<svg width="398" height="181" viewBox="0 0 398 181" fill="none" xmlns="http://www.w3.org/2000/svg">
<g clip-path="url(#clip0_11071_37392)">
<rect y="0.416504" width="398" height="180" fill="#0EA5E9"/>
<path d="M149.31 77.7881C136.106 59.9748 114.84 48.4165 90.8556 48.4165V120.423L149.31 77.7881Z" fill="#7DD3FC"/>
<path d="M98.9142 122.997H171.457C171.457 107.035 166.22 92.2966 157.368 80.3618L98.9142 122.997Z" fill="#082F49"/>
<path d="M90.8556 199.071C130.921 199.071 163.399 166.834 163.399 127.065H90.8556V199.071Z" fill="#7DD3FC"/>
<path d="M14.0021 127.056C14.0021 143.018 19.2395 157.756 28.0913 169.691C41.2954 187.504 62.5609 199.062 86.5453 199.062V55.0493C46.48 55.0493 14.0021 87.2869 14.0021 127.056Z" fill="#0C4A6E"/>
<path d="M369.055 179.01H315.248V181.793H369.055V179.01Z" fill="#4C87D7"/>
<path d="M322.301 94.4194H315.156V173.057H322.301V94.4194Z" fill="#E9D5FF"/>
<path d="M334.491 111.678H327.346V173.068H334.491V111.678Z" fill="#0EA5E9"/>
<path d="M346.168 102.417H339.168V173.417H346.168V102.417Z" fill="#0EA5E9"/>
<path d="M357.168 66.4165H350.168V173.417H357.168V66.4165Z" fill="#075985"/>
<path d="M369.168 82.4165H362.168V173.417H369.168V82.4165Z" fill="#0EA5E9"/>
<rect x="116" y="34.4165" width="75" height="24" rx="2" fill="#FDC500"/>
<path d="M128.754 48.3925H126.822V51.4165H125.286V42.6445H128.754C130.518 42.6445 131.658 43.7965 131.658 45.5125C131.658 47.2045 130.506 48.3925 128.754 48.3925ZM128.454 44.0125H126.822V47.0245H128.43C129.486 47.0245 130.05 46.4605 130.05 45.5005C130.05 44.5405 129.474 44.0125 128.454 44.0125ZM140.955 47.0245C140.955 49.6885 139.203 51.5605 136.683 51.5605C134.175 51.5605 132.447 49.7005 132.447 47.0245C132.447 44.3605 134.187 42.4885 136.695 42.4885C139.203 42.4885 140.955 44.3485 140.955 47.0245ZM139.335 47.0245C139.335 45.1525 138.303 43.9645 136.695 43.9645C135.087 43.9645 134.055 45.1525 134.055 47.0245C134.055 48.8965 135.087 50.0845 136.695 50.0845C138.303 50.0845 139.335 48.8725 139.335 47.0245ZM143.88 51.4165L141.264 42.6445H142.86L144.252 47.2765C144.384 47.7565 144.516 48.2485 144.648 49.0165C144.792 48.2365 144.924 47.7805 145.08 47.2765L146.46 42.6445H148.152L149.508 47.2765C149.652 47.7685 149.784 48.2725 149.928 49.0165C150.096 48.2005 150.216 47.7325 150.348 47.2885L151.764 42.6445H153.324L150.66 51.4165H149.172L147.3 45.0325L145.392 51.4165H143.88ZM159.926 51.4165H154.478V42.6445H159.926V44.0605H156.014V46.3165H159.518V47.6725H156.014V50.0005H159.926V51.4165ZM163.127 51.4165H161.591V42.6445H164.939C166.931 42.6445 168.095 43.6525 168.095 45.3805C168.095 46.5565 167.543 47.3965 166.511 47.8165L168.179 51.4165H166.499L165.011 48.1405H163.127V51.4165ZM163.127 44.0125V46.7845H164.939C165.911 46.7845 166.487 46.2685 166.487 45.3805C166.487 44.5045 165.911 44.0125 164.939 44.0125H163.127ZM172.865 51.4165V42.6445H176.357C178.085 42.6445 179.141 43.5445 179.141 45.0085C179.141 45.9805 178.709 46.6765 177.881 47.0245C178.805 47.3245 179.273 48.0205 179.273 49.0405C179.273 50.5405 178.229 51.4165 176.417 51.4165H172.865ZM176.225 44.0005H174.401V46.3885H176.261C177.101 46.3885 177.569 45.9445 177.569 45.1645C177.569 44.4085 177.089 44.0005 176.225 44.0005ZM176.357 47.6845H174.401V50.0605H176.357C177.221 50.0605 177.701 49.6405 177.701 48.8485C177.701 48.1045 177.209 47.6845 176.357 47.6845ZM181.197 44.3005C180.693 44.3005 180.297 43.9045 180.297 43.4125C180.297 42.9205 180.693 42.5365 181.197 42.5365C181.677 42.5365 182.073 42.9205 182.073 43.4125C182.073 43.9045 181.677 44.3005 181.197 44.3005ZM180.465 51.4165V45.4885H181.929V51.4165H180.465Z" fill="black"/>
<rect x="-1" y="135.417" width="46" height="24" rx="2" fill="#FDC500"/>
<path d="M13.7774 152.417H8.32942V143.645H13.7774V145.061H9.86542V147.317H13.3694V148.673H9.86542V151.001H13.7774V152.417ZM16.2587 152.417H14.5907L16.6307 149.513L14.5907 146.489H16.2947L17.6027 148.505L18.8627 146.489H20.5067L18.4907 149.489L20.4467 152.417H18.7667L17.5067 150.461L16.2587 152.417ZM20.7615 149.441C20.7615 147.605 21.9735 146.309 23.7255 146.309C25.3455 146.309 26.4495 147.209 26.6055 148.637H25.1415C24.9735 147.965 24.4815 147.617 23.7855 147.617C22.8495 147.617 22.2255 148.325 22.2255 149.441C22.2255 150.557 22.8015 151.253 23.7375 151.253C24.4695 151.253 24.9855 150.893 25.1415 150.245H26.6175C26.4375 151.625 25.2855 152.573 23.7375 152.573C21.9375 152.573 20.7615 151.325 20.7615 149.441ZM30.3592 152.573C28.5952 152.573 27.3592 151.289 27.3592 149.453C27.3592 147.593 28.5712 146.309 30.3112 146.309C32.0872 146.309 33.2152 147.497 33.2152 149.345V149.789L28.7512 149.801C28.8592 150.845 29.4112 151.373 30.3832 151.373C31.1872 151.373 31.7152 151.061 31.8832 150.497H33.2392C32.9872 151.793 31.9072 152.573 30.3592 152.573ZM30.3232 147.509C29.4592 147.509 28.9312 147.977 28.7872 148.865H31.7632C31.7632 148.049 31.1992 147.509 30.3232 147.509ZM35.8629 152.417H34.4109V143.489H35.8629V152.417Z" fill="black"/>
<rect x="75" y="132.417" width="56" height="24" rx="2" fill="#FDC500"/>
<path d="M87.7525 146.393H85.8205V149.417H84.2845V140.645H87.7525C89.5165 140.645 90.6565 141.797 90.6565 143.513C90.6565 145.205 89.5045 146.393 87.7525 146.393ZM87.4525 142.013H85.8205V145.025H87.4285C88.4845 145.025 89.0485 144.461 89.0485 143.501C89.0485 142.541 88.4725 142.013 87.4525 142.013ZM91.2166 152.165V150.941H92.0926C92.6686 150.941 93.0286 150.809 93.2806 150.113L93.4486 149.669L91.0606 143.489H92.6086L94.1326 147.809L95.7406 143.489H97.2526L94.3486 150.737C93.9046 151.841 93.2806 152.297 92.3086 152.297C91.9006 152.297 91.5406 152.249 91.2166 152.165ZM100.1 149.417H98.6361V144.713H97.4961V143.489H98.6361V141.641H100.1V143.489H101.252V144.713H100.1V149.417ZM103.626 149.417H102.162V140.489H103.638V144.257C104.01 143.681 104.706 143.309 105.558 143.309C107.022 143.309 107.79 144.233 107.79 145.769V149.417H106.326V146.117C106.326 145.121 105.834 144.641 105.09 144.641C104.166 144.641 103.626 145.289 103.626 146.177V149.417ZM108.881 146.441C108.881 144.593 110.213 143.321 112.049 143.321C113.885 143.321 115.217 144.593 115.217 146.441C115.217 148.289 113.885 149.561 112.049 149.561C110.213 149.561 108.881 148.289 108.881 146.441ZM110.345 146.441C110.345 147.521 111.041 148.253 112.049 148.253C113.057 148.253 113.753 147.521 113.753 146.441C113.753 145.361 113.057 144.629 112.049 144.629C111.041 144.629 110.345 145.361 110.345 146.441ZM117.841 149.417H116.377V143.489H117.733L117.853 144.257C118.225 143.657 118.945 143.309 119.749 143.309C121.237 143.309 122.005 144.233 122.005 145.769V149.417H120.541V146.117C120.541 145.121 120.049 144.641 119.293 144.641C118.393 144.641 117.841 145.265 117.841 146.225V149.417Z" fill="black"/>
<rect x="15" y="27.4165" width="66.3333" height="20.7292" rx="0.721014" fill="#FDC500"/>
<path d="M28.0663 43.4165H26.3303V33.1825H28.0663L31.3703 41.3305L34.6743 33.1825H36.4383V43.4165H34.7023V40.2665C34.7023 38.2085 34.7023 37.6065 34.8003 36.8785L32.1963 43.4165H30.5443L27.9543 36.8925C28.0523 37.5085 28.0663 38.4745 28.0663 39.7485V43.4165ZM37.8493 46.6225V45.1945H38.8713C39.5433 45.1945 39.9633 45.0405 40.2573 44.2285L40.4533 43.7105L37.6673 36.5005H39.4733L41.2513 41.5405L43.1273 36.5005H44.8913L41.5033 44.9565C40.9853 46.2445 40.2573 46.7765 39.1233 46.7765C38.6473 46.7765 38.2273 46.7205 37.8493 46.6225ZM45.5255 36.0385C45.5255 34.2465 47.0095 33.0005 49.1655 33.0005C51.2375 33.0005 52.5535 34.1485 52.6095 35.9965H50.8175C50.7755 35.1145 50.1455 34.5965 49.1375 34.5965C48.0315 34.5965 47.3175 35.1285 47.3175 35.9825C47.3175 36.7105 47.7095 37.1165 48.5635 37.3125L50.1735 37.6625C51.9235 38.0405 52.7775 38.9365 52.7775 40.4625C52.7775 42.3665 51.2935 43.5985 49.0395 43.5985C46.8555 43.5985 45.4275 42.4365 45.3855 40.6025H47.1775C47.1915 41.4705 47.8915 41.9885 49.0395 41.9885C50.2295 41.9885 50.9855 41.4705 50.9855 40.6165C50.9855 39.9305 50.6355 39.5245 49.7955 39.3425L48.1715 38.9785C46.4355 38.6005 45.5255 37.6065 45.5255 36.0385ZM62.4346 44.1865L61.3146 42.9265C60.5866 43.3465 59.7186 43.5845 58.7526 43.5845C55.8266 43.5845 53.8106 41.4145 53.8106 38.2925C53.8106 35.1845 55.8406 33.0005 58.7666 33.0005C61.6926 33.0005 63.7366 35.1705 63.7366 38.2925C63.7366 39.7625 63.2886 41.0225 62.4906 41.9465L63.5826 43.1645L62.4346 44.1865ZM61.8466 38.2925C61.8466 36.1085 60.6426 34.7225 58.7666 34.7225C56.8906 34.7225 55.6866 36.1085 55.6866 38.2925C55.6866 40.4765 56.8906 41.8625 58.7666 41.8625C59.2706 41.8625 59.7186 41.7645 60.1246 41.5685L58.7666 40.0425L59.9006 39.0205L61.2586 40.5465C61.6366 39.9585 61.8466 39.1885 61.8466 38.2925ZM67.1965 33.1825V41.7645H71.4805V43.4165H65.4045V33.1825H67.1965Z" fill="black"/>
<path d="M325.054 181.064H389.324C391.498 181.064 393.334 179.542 393.615 177.507L397.866 146.693C398.203 144.249 396.187 142.082 393.575 142.082H329.305C327.131 142.082 325.295 143.604 325.014 145.638L320.763 176.452C320.426 178.897 322.442 181.064 325.054 181.064Z" fill="#292A2E"/>
<path opacity="0.8" d="M325.054 181.064H389.324C391.498 181.064 393.334 179.542 393.615 177.507L397.866 146.693C398.203 144.249 396.187 142.082 393.575 142.082H329.305C327.131 142.082 325.295 143.604 325.014 145.638L320.763 176.452C320.426 178.897 322.442 181.064 325.054 181.064Z" fill="white"/>
<path d="M321.556 179.88C320.672 178.93 320.264 177.666 320.438 176.412L324.689 145.598C324.99 143.416 326.975 141.771 329.306 141.771H393.576C394.916 141.771 396.191 142.315 397.075 143.265C397.959 144.215 398.366 145.479 398.193 146.733L393.942 177.547C393.641 179.729 391.656 181.374 389.325 181.374H325.055C323.715 181.374 322.44 180.829 321.556 179.879V179.88ZM329.306 142.392C327.304 142.392 325.6 143.805 325.342 145.678L321.09 176.493C320.942 177.569 321.292 178.654 322.051 179.47C322.81 180.285 323.904 180.753 325.055 180.753H389.325C391.327 180.753 393.031 179.341 393.289 177.467L397.541 146.653C397.689 145.577 397.339 144.492 396.58 143.676C395.822 142.86 394.727 142.393 393.577 142.393H329.306L329.306 142.392Z" fill="#292A2E"/>
<path d="M321.42 181.064H385.691C387.864 181.064 389.701 179.542 389.981 177.507L394.233 146.693C394.57 144.249 392.554 142.082 389.942 142.082H325.671C323.498 142.082 321.661 143.604 321.381 145.638L317.129 176.452C316.792 178.897 318.808 181.064 321.42 181.064Z" fill="white"/>
<path d="M317.923 179.88C317.039 178.93 316.631 177.666 316.804 176.412L321.055 145.598C321.356 143.416 323.341 141.771 325.672 141.771H389.943C391.282 141.771 392.557 142.315 393.441 143.265C394.325 144.215 394.733 145.479 394.56 146.733L390.309 177.547C390.007 179.729 388.023 181.374 385.692 181.374H321.421C320.082 181.374 318.806 180.829 317.923 179.879V179.88ZM325.672 142.392C323.671 142.392 321.966 143.805 321.708 145.678L317.457 176.493C317.308 177.569 317.658 178.654 318.417 179.47C319.176 180.285 320.271 180.753 321.421 180.753H385.692C387.693 180.753 389.397 179.341 389.656 177.467L393.907 146.653C394.056 145.576 393.706 144.491 392.947 143.676C392.188 142.86 391.093 142.392 389.943 142.392H325.672Z" fill="#292A2E"/>
<path d="M331.601 91.3793C331.601 91.3793 328.045 87.6059 328.461 80.5423C328.783 75.0732 333.25 79.4981 333.25 79.4981C333.25 79.4981 333.523 75.5622 336.401 76.5005C339.279 77.4388 340.085 81.7795 340.085 81.7795" fill="#13335F"/>
<path d="M351.606 79.834C351.606 79.834 365.977 84.0892 356.693 101.87L355.376 101.708L352.703 101.377" fill="#13335F"/>
<path d="M330.961 120.487C331.027 120.478 331.758 131.921 345.842 130.924C355.592 130.234 359.068 120.47 359.292 120.47C358.241 120.259 356.942 119.939 356.425 119.83C354.71 119.465 352.568 118.129 352.073 115.315C351.788 113.693 352.272 105.395 352.123 103.754L337.157 106.907C337.366 110.373 338.829 118.408 333.699 119.83C332.846 120.065 331.926 120.281 330.961 120.487H330.961Z" fill="#E67925"/>
<path opacity="0.22" d="M336.948 116.546C337.16 115.907 337.286 115.352 337.398 114.353C337.598 112.568 337.492 110.926 337.3 109.254C340.324 108.874 343.226 107.674 345.572 105.833C345.85 106.802 347.378 111.035 346.955 111.956C346.155 113.696 342.396 116.546 336.948 116.546Z" fill="#13335F"/>
<path d="M338.922 112.591C344.816 113.193 352.477 111.046 354.148 103.647L355.654 96.9704C357.325 89.571 354.561 82.7448 347.18 81.2603C339.798 79.7761 332.927 84.6652 331.257 92.0643L330.589 95.0202C330.452 95.6286 330.273 96.734 330.181 98.106C329.996 100.843 329.727 105.007 331.063 108.111C332.325 111.041 335.157 112.206 338.922 112.591Z" fill="#E67925"/>
<path d="M334.257 95.5583C334.285 95.1301 333.94 94.7618 333.486 94.7356C333.033 94.7094 332.642 95.0353 332.615 95.4635C332.587 95.8917 332.932 96.26 333.386 96.2862C333.839 96.3123 334.23 95.9864 334.257 95.5583Z" fill="#0A0A0A"/>
<path d="M338.408 102.627C338.574 102.637 338.724 102.527 338.752 102.368C338.782 102.199 338.661 102.039 338.482 102.011L336.753 101.738L338.036 98.5197C338.1 98.3591 338.014 98.1798 337.844 98.1195C337.674 98.0593 337.484 98.1403 337.42 98.301L335.995 101.873C335.961 101.96 335.969 102.057 336.018 102.138C336.067 102.219 336.152 102.274 336.25 102.289L338.373 102.624C338.385 102.625 338.397 102.627 338.408 102.627Z" fill="#0A0A0A"/>
<path d="M338.568 106.161C341.547 106.333 342.543 104.686 342.588 104.608C342.675 104.458 342.617 104.269 342.458 104.186C342.3 104.104 342.1 104.158 342.012 104.308C341.97 104.378 340.953 105.993 337.7 105.435C337.517 105.403 337.349 105.516 337.317 105.685C337.284 105.854 337.403 106.015 337.581 106.046C337.932 106.106 338.262 106.144 338.569 106.161H338.568Z" fill="#0A0A0A"/>
<path d="M341.853 93.9538C341.76 94.1803 342.628 94.5771 343.859 94.966C345.09 95.355 346.209 95.6486 346.313 95.3622C346.444 95.0005 345.567 94.0803 344.336 93.6913C343.105 93.3023 342.001 93.5978 341.853 93.9538Z" fill="#0A0A0A"/>
<path d="M342.946 96.5085C342.974 96.0803 342.629 95.712 342.175 95.6858C341.721 95.6596 341.331 95.9855 341.303 96.4137C341.276 96.8419 341.621 97.2102 342.075 97.2364C342.528 97.2625 342.919 96.9366 342.946 96.5085Z" fill="#0A0A0A"/>
<path d="M331.868 93.5407C331.879 93.7836 332.843 93.8138 334.136 93.6976C335.429 93.5814 336.577 93.4217 336.549 93.12C336.514 92.7391 335.452 92.2149 334.159 92.3308C332.866 92.447 331.85 93.1588 331.868 93.5407Z" fill="#0A0A0A"/>
<path d="M353.181 105.809C355.425 106.26 357.754 104.36 358.232 102.243C358.71 100.126 357.155 98.5924 354.912 98.1416L353.436 99.3278L351.253 105.421L353.181 105.809Z" fill="#E67925"/>
<path d="M352.365 102.047C351.983 102.008 351.706 101.687 351.745 101.327C352 98.9974 352.645 91.1437 349.895 90.052C347.74 89.1966 341.657 91.1767 336.804 89.3172C334.682 88.5038 332.477 88.6243 332.056 89.5679C331.889 89.9417 331.699 84.0836 336.055 80.4861C339.523 77.6218 348.73 78.3647 352.592 80.2465C363.286 85.4575 355.279 98.6914 355.279 98.6914L354.188 101.715C354.083 102.007 353.777 102.191 353.452 102.158L352.365 102.047Z" fill="#13335F"/>
<path d="M343.841 82.0045C344.843 79.7885 344.361 77.4715 342.766 76.8293C341.171 76.1872 339.066 77.463 338.065 79.679C337.063 81.895 337.545 84.212 339.14 84.8541C340.735 85.4963 342.84 84.2204 343.841 82.0045Z" fill="#13335F"/>
<path d="M269.074 186.971L307.489 179.458C310.742 178.822 313.426 176.662 314.604 173.73L329.714 136.15C331.619 131.413 329.094 126.115 324.075 124.318C319.055 122.52 313.443 124.903 311.538 129.64L298.321 162.513L265.129 169.004C265.129 169.004 268.408 187.102 269.073 186.972L269.074 186.971Z" fill="#091A2F"/>
<path d="M313.506 145.694C313.949 150.613 317.095 181.302 317.521 187.361H375.316C375.648 181.896 376.726 158.695 377.986 148.009C379.188 137.811 379.624 131.992 378.239 128.823C375.797 123.234 369.687 121.223 364.423 120.55C361.209 120.139 356.375 119.845 356.375 119.845C356.375 119.845 355.966 127.66 346.207 128.095C332.921 128.687 333.809 119.845 333.743 119.845C331.591 119.845 319.875 121.323 316.946 123.125C312.808 125.67 311.586 129.139 311.537 132.325C311.482 135.995 313.002 140.114 313.506 145.694Z" fill="#091A2F"/>
<path d="M315.777 170.77C315.782 170.77 315.787 170.77 315.791 170.769C315.882 170.762 315.949 170.687 315.942 170.601L314.441 153.59C314.434 153.504 314.357 153.438 314.264 153.448C314.173 153.455 314.106 153.53 314.113 153.616L315.614 170.627C315.62 170.708 315.693 170.77 315.777 170.77V170.77Z" fill="#0C0C0C"/>
<path d="M288.251 180.98L275.57 144.187C275.113 142.861 273.803 141.963 272.325 141.963H220.66C218.342 141.963 216.698 144.099 217.416 146.18L230.097 182.973C230.554 184.299 231.864 185.197 233.342 185.197H285.007C287.325 185.197 288.969 183.061 288.251 180.98Z" fill="#292A2E"/>
<path d="M288.251 180.98L275.57 144.187C275.113 142.861 273.803 141.963 272.325 141.963H220.66C218.342 141.963 216.698 144.099 217.416 146.18L230.097 182.973C230.554 184.299 231.864 185.197 233.342 185.197H285.007C287.325 185.197 288.969 183.061 288.251 180.98Z" fill="#292A2E"/>
<path d="M252.834 170.489C255.826 170.489 258.252 168.199 258.252 165.375C258.252 162.55 255.826 160.26 252.834 160.26C249.841 160.26 247.415 162.55 247.415 165.375C247.415 168.199 249.841 170.489 252.834 170.489Z" fill="white"/>
<path d="M291.143 172.361L299.774 169.506L298.535 169.425C297.715 169.34 297.047 168.684 297.094 167.906C297.144 167.077 297.918 166.466 298.782 166.556L314.052 168.087L313.656 172.719C313.403 175.662 311.285 178.166 308.3 179.049L301.687 180.993C300.983 181.202 300.189 180.943 299.84 180.33C299.503 179.738 299.643 179.069 300.08 178.64C300.061 178.626 300.044 178.609 300.035 178.586C300.017 178.542 300.027 178.497 300.054 178.461L298.835 178.822C298.047 179.055 297.156 178.707 296.868 177.977C296.603 177.304 296.904 176.577 297.525 176.233C297.51 176.226 297.499 176.217 297.488 176.205L296.987 176.353C296.283 176.561 295.489 176.303 295.14 175.69C294.732 174.973 295.021 174.142 295.693 173.762C295.691 173.753 295.689 173.743 295.689 173.733L292.094 174.922C291.345 175.17 290.524 174.798 290.262 174.09C289.999 173.383 290.394 172.609 291.143 172.361Z" fill="#E67925"/>
<path opacity="0.2" d="M295.83 173.866C295.846 173.866 295.863 173.864 295.879 173.858L299.356 172.665C299.431 172.639 299.469 172.562 299.442 172.492C299.415 172.421 299.333 172.386 299.258 172.411L295.781 173.604C295.707 173.63 295.669 173.707 295.696 173.777C295.717 173.832 295.772 173.866 295.83 173.866Z" fill="#0A0A0A"/>
<path opacity="0.2" d="M297.588 176.252C297.603 176.252 297.62 176.25 297.635 176.244L300.376 175.327C300.45 175.302 300.49 175.224 300.463 175.154C300.437 175.084 300.355 175.047 300.281 175.072L297.54 175.99C297.466 176.015 297.426 176.092 297.453 176.162C297.473 176.217 297.529 176.252 297.588 176.252Z" fill="#0A0A0A"/>
<path opacity="0.2" d="M300.168 178.673C300.185 178.673 300.202 178.67 300.219 178.664L301.503 178.202C301.576 178.176 301.613 178.098 301.585 178.028C301.557 177.958 301.475 177.923 301.4 177.95L300.117 178.412C300.043 178.438 300.006 178.516 300.034 178.586C300.056 178.64 300.11 178.673 300.168 178.673V178.673Z" fill="#0A0A0A"/>
<path d="M307.292 165.346L343.501 165.323L357.2 133.784L377.634 141.892L360.543 179.325L360.376 179.697C358.713 183.318 354.785 185.751 350.369 185.505L306.744 183.072L307.292 165.346Z" fill="#091A2F"/>
<path d="M350.97 185.677C355.088 185.677 358.877 183.355 360.528 179.76L360.696 179.386L375.258 147.491L374.956 147.368L360.225 179.637C358.549 183.289 354.592 185.583 350.379 185.35L306.914 182.926L307.453 165.502L343.612 165.479L354.145 141.228L353.841 141.11L343.391 165.168L307.133 165.191L306.576 183.218L306.735 183.227L350.36 185.66C350.564 185.671 350.768 185.677 350.971 185.677H350.97Z" fill="#0C0C0C"/>
<path d="M216.311 173.314C216.311 173.314 237.353 241.623 232.393 251.609C227.517 261.425 183.016 318.778 183.016 318.778L167.014 305.612L206.593 245.031C206.593 245.031 194.876 210.045 188.543 191.697C184.725 180.636 178.299 180.989 177.689 169.37L216.311 173.314V173.314Z" fill="#262626"/>
<path d="M157.665 171.602C157.665 171.602 157.519 170.964 157.432 174.697C157.372 177.333 156.237 186.665 160.159 201.382C167.507 228.956 189.512 325.884 189.512 325.884L211.097 325.713L190.742 170.755L157.665 171.602V171.602Z" fill="#262626"/>
<path d="M157.33 171.715L157.259 171.719C157.259 171.719 157.31 170.435 157.33 171.715Z" fill="#333333"/>
<path d="M275.491 110.636C275.206 110.109 274.627 109.859 274.069 109.925C274.069 109.902 274.069 109.877 274.053 109.856C274.025 109.82 273.982 109.81 273.939 109.813L274.903 109.16C275.486 108.766 275.724 108.017 275.38 107.423C275.024 106.807 274.256 106.584 273.618 106.834C273.621 106.821 273.612 106.809 273.609 106.796L274.006 106.528C274.554 106.157 274.791 105.467 274.508 104.889C274.127 104.111 273.122 103.886 272.423 104.359L271.508 104.978C271.506 104.973 271.508 104.967 271.505 104.962C271.501 104.956 271.491 104.956 271.486 104.95C271.909 104.501 271.964 103.821 271.578 103.311C271.146 102.655 270.15 102.79 269.559 103.19L264.177 106.698L265.139 105.17C265.525 104.557 265.384 103.735 264.756 103.339C264.086 102.917 263.187 103.116 262.781 103.761L257.529 112.106C256.248 114.142 256.915 116.77 259.034 118.037C261.452 119.482 264.558 119.398 266.884 117.824L275.011 112.326C275.547 111.963 275.79 111.19 275.49 110.635L275.491 110.636Z" fill="#E67925"/>
<g opacity="0.25">
<path d="M266.181 108.445C266.222 108.499 266.3 108.511 266.358 108.474L271.471 105.131C271.529 105.093 271.544 105.017 271.504 104.962C271.47 104.907 271.383 104.893 271.325 104.931L266.212 108.274C266.153 108.312 266.139 108.388 266.179 108.443L266.181 108.445V108.445Z" fill="#0C0C0C"/>
</g>
<g opacity="0.25">
<path d="M267.681 110.615C267.722 110.668 267.801 110.68 267.858 110.643L273.565 106.912C273.623 106.874 273.638 106.799 273.597 106.743C273.56 106.693 273.476 106.675 273.418 106.713L267.712 110.443C267.654 110.481 267.639 110.557 267.679 110.612L267.681 110.615Z" fill="#0C0C0C"/>
</g>
<g opacity="0.25">
<path d="M269.291 112.973C269.332 113.026 269.411 113.038 269.469 113.001L274.021 110.025C274.079 109.987 274.094 109.912 274.053 109.856C274.011 109.801 273.932 109.788 273.874 109.826L269.322 112.801C269.264 112.839 269.249 112.915 269.29 112.97L269.291 112.973Z" fill="#0C0C0C"/>
</g>
<path d="M254.429 110.206L239.005 134.999L220.185 111.7L204.556 124.999L231.247 157.626L231.422 157.858C232.353 159.065 233.583 160.094 235.077 160.835C240.292 163.424 246.742 161.532 249.484 156.611L271.416 119.123L254.428 110.206L254.429 110.206Z" fill="#091A2F"/>
<path d="M237.493 137.98C237.463 137.98 237.432 137.973 237.404 137.96C237.307 137.913 237.269 137.802 237.319 137.711L238.83 134.914C238.88 134.823 238.998 134.787 239.094 134.834C239.191 134.88 239.229 134.992 239.179 135.083L237.668 137.879C237.633 137.943 237.564 137.98 237.493 137.98Z" fill="#0C0C0C"/>
<path d="M219.099 134.857L218.628 142.688L219.019 142.709L219.49 134.878L219.099 134.857Z" fill="#0C0C0C"/>
<path d="M169.355 79.4646C169.355 79.4646 168.632 90.0452 166.515 93.1873C160.417 102.233 158.557 109.357 164.486 114.777C170.414 120.197 208.648 120.689 211.696 108.404C214.261 98.0617 209.042 96.8898 207.873 88.3218C207.345 84.445 205.86 76.312 205.86 76.312" fill="#13335F"/>
<path d="M201.961 106.441C201.895 106.433 201.162 117.904 187.044 116.904C177.27 116.213 173.785 106.424 173.561 106.424C174.615 106.213 176.389 105.906 176.857 105.67C178.397 104.889 180.301 104.077 180.797 101.256C181.083 99.6303 180.598 91.3121 180.747 89.667L195.751 92.8277C195.541 96.3021 194.074 104.357 199.217 105.782C200.072 106.018 200.994 106.235 201.962 106.441H201.961Z" fill="#E67925"/>
<path opacity="0.22" d="M195.961 102.49C195.748 101.85 195.622 101.293 195.51 100.293C195.309 98.5027 195.415 96.8572 195.608 95.1808C192.577 94.7998 189.667 93.5968 187.315 91.752C187.037 92.7232 185.281 96.3079 185.705 97.2307C186.507 98.9752 190.499 102.49 195.961 102.49Z" fill="#0C0C0C"/>
<path d="M193.973 98.88C188.052 99.3572 181.703 97.0354 180.208 89.5837L177.584 82.8632C176.089 75.4112 179.025 68.6297 186.459 67.3018C193.892 65.9739 199.863 68.2936 201.357 75.7452C201.357 75.7452 202.28 80.0088 202.422 81.4511C202.957 86.8894 202.957 98.156 193.973 98.88Z" fill="#E67925"/>
<path d="M201.179 80.0797C201.152 80.3214 200.188 80.2962 198.905 80.1058C197.623 79.9153 196.487 79.6898 196.534 79.3902C196.594 79.0121 197.688 78.8605 198.971 79.051C200.254 79.2414 201.222 79.6994 201.179 80.0797Z" fill="#13335F"/>
<path d="M171.637 85.2067L180.006 87.3863C185.053 85.4587 184.873 73.8802 184.873 73.8802C184.873 73.8802 191.004 79.5195 205.859 76.3119C205.859 76.3119 202.88 57.3793 180.933 63.065C173.857 64.8984 168.778 72.2506 169.41 81.2464C169.854 87.5506 171.637 85.2067 171.637 85.2067Z" fill="#13335F"/>
<path d="M179.849 91.775C177.59 92.1786 175.264 91.4208 174.63 88.2095C174.208 86.0763 176.042 84.457 178.301 84.0537L179.752 85.2744L181.792 91.428L179.849 91.775Z" fill="#E67925"/>
<path d="M199.787 83.1628C200.241 83.1628 200.61 82.8151 200.61 82.3861C200.61 81.9571 200.241 81.6094 199.787 81.6094C199.332 81.6094 198.964 81.9571 198.964 82.3861C198.964 82.8151 199.332 83.1628 199.787 83.1628Z" fill="#13335F"/>
<path d="M194.89 88.7726C194.723 88.7726 194.581 88.6539 194.563 88.4942C194.544 88.3237 194.675 88.1708 194.856 88.1528L196.6 87.9807L195.527 84.6942C195.473 84.5301 195.571 84.3564 195.744 84.3058C195.918 84.2555 196.102 84.3471 196.156 84.5112L197.347 88.159C197.376 88.2479 197.361 88.3442 197.306 88.4218C197.252 88.4995 197.164 88.5498 197.066 88.5595L194.925 88.7707C194.913 88.772 194.901 88.7723 194.89 88.7723L194.89 88.7726Z" fill="#13335F"/>
<path d="M193.675 92.2912C190.691 92.2912 189.803 90.5893 189.764 90.5097C189.686 90.3544 189.757 90.1695 189.921 90.0962C190.084 90.0232 190.28 90.089 190.358 90.2428C190.395 90.3152 191.306 91.9868 194.59 91.6161C194.774 91.5947 194.934 91.7174 194.956 91.8876C194.977 92.0579 194.848 92.2126 194.668 92.2331C194.314 92.2732 193.983 92.2912 193.675 92.2912Z" fill="#13335F"/>
<path d="M191.184 79.917C191.263 80.1485 190.371 80.4946 189.117 80.8118C187.863 81.129 186.727 81.3577 186.642 81.0659C186.534 80.6975 187.469 80.1401 188.723 79.8229C189.977 79.5056 191.06 79.5529 191.184 79.917Z" fill="#13335F"/>
<path d="M191.189 83.7205C191.643 83.7205 192.012 83.3727 192.012 82.9437C192.012 82.5147 191.643 82.167 191.189 82.167C190.734 82.167 190.366 82.5147 190.366 82.9437C190.366 83.3727 190.734 83.7205 191.189 83.7205Z" fill="#13335F"/>
<path d="M175.252 82.5791L175.149 85.5425C175.745 84.8658 176.606 84.3951 177.606 84.283C177.854 84.2519 178.101 84.255 178.342 84.274C179.843 85.3965 178.776 87.4471 180.007 87.3862C180.706 87.3517 182.299 85.7942 182.681 84.8282C182.924 84.2159 181.177 81.8661 181.186 81.2124" fill="#13335F"/>
<path d="M219.549 131.657C219.104 136.588 216.941 167.353 216.513 173.427H157.45C157.118 167.949 155.759 143.994 154.496 133.282C153.291 123.059 150.928 117.941 152.66 114.919C155.492 109.98 163.23 107.126 168.506 106.451C171.728 106.04 176.574 105.745 176.574 105.745C176.574 105.745 176.984 113.579 186.767 114.015C200.085 114.608 199.196 105.745 199.262 105.745C201.419 105.745 213.744 107.034 216.76 108.721C224.977 113.313 220.492 121.207 219.549 131.657Z" fill="#091A2F"/>
<path d="M256.271 135.102L250.818 160.12C250.59 161.166 249.618 161.921 248.486 161.93L210.934 162.231C209.404 162.244 208.253 160.922 208.561 159.508L214.014 134.49C214.242 133.443 215.214 132.689 216.346 132.68L253.898 132.378C255.428 132.366 256.579 133.688 256.271 135.102Z" fill="#292A2E"/>
<path d="M221.256 152.872C221.323 153.545 220.794 154.144 220.093 154.292L218.936 154.533C218.976 154.548 219.011 154.574 219.023 154.618C219.027 154.64 219.019 154.666 219.007 154.684C219.548 154.832 219.979 155.276 220.018 155.868C220.065 156.486 219.52 157.107 218.878 157.244L209.116 159.29C208.61 159.397 208.101 159.449 207.595 159.449C205.315 159.449 203.136 158.398 201.807 156.575C200.385 154.625 200.863 151.959 202.889 150.564L211.193 144.835C211.381 144.706 211.596 144.624 211.812 144.595L211.048 148.097L211.252 148.053L211.295 148.046L217.663 146.821C218.372 146.674 219.344 146.918 219.469 147.68C219.611 148.294 219.277 148.897 218.701 149.155C218.705 149.159 218.713 149.163 218.713 149.17C218.717 149.178 218.709 149.181 218.709 149.189L219.81 148.96C220.649 148.782 221.48 149.363 221.507 150.217C221.527 150.854 221.021 151.401 220.363 151.538L219.889 151.637C219.885 151.652 219.889 151.667 219.881 151.678C220.571 151.682 221.186 152.174 221.257 152.873L221.256 152.872Z" fill="#E67925"/>
<g opacity="0.25">
<path d="M212.371 150.402C212.386 150.466 212.453 150.507 212.522 150.494L218.615 149.314C218.685 149.301 218.73 149.236 218.715 149.171C218.707 149.108 218.633 149.063 218.563 149.076L212.47 150.256C212.401 150.269 212.356 150.333 212.37 150.399L212.371 150.402Z" fill="#0C0C0C"/>
</g>
<g opacity="0.25">
<path d="M212.846 152.953C212.862 153.017 212.929 153.058 212.998 153.045L219.797 151.729C219.867 151.715 219.912 151.651 219.897 151.585C219.884 151.525 219.815 151.477 219.745 151.491L212.946 152.807C212.876 152.82 212.831 152.884 212.846 152.95L212.846 152.953Z" fill="#0C0C0C"/>
</g>
<g opacity="0.25">
<path d="M213.347 155.718C213.363 155.782 213.43 155.823 213.499 155.81L218.923 154.76C218.992 154.747 219.037 154.682 219.023 154.617C219.007 154.55 218.941 154.508 218.871 154.522L213.447 155.572C213.377 155.585 213.332 155.65 213.347 155.715L213.347 155.718Z" fill="#0C0C0C"/>
</g>
<path d="M208.512 162.935L155.552 171.968C155.163 172.008 154.774 172.028 154.387 172.028C151.442 172.028 148.606 170.886 146.562 168.841C144.249 166.527 143.219 163.325 143.778 160.188L151.192 118.594C152.178 113.063 157.726 109.336 163.587 110.265C169.446 111.195 173.397 116.433 172.412 121.963L167.356 150.597L206.183 145.994L208.511 162.935L208.512 162.935Z" fill="#091A2F"/>
<path d="M155.554 172.153C155.461 172.153 155.379 172.09 155.361 172.001C155.342 171.9 155.413 171.804 155.519 171.786L208.295 162.784L206.016 146.2L167.382 150.78C167.319 150.787 167.26 150.767 167.217 150.724C167.174 150.682 167.155 150.624 167.165 150.566L170.379 132.266C170.396 132.166 170.496 132.095 170.604 132.114C170.711 132.13 170.783 132.226 170.765 132.327L167.594 150.382L206.161 145.811C206.266 145.798 206.365 145.869 206.379 145.971L208.708 162.911C208.721 163.009 208.651 163.1 208.548 163.117L155.589 172.151C155.577 172.153 155.565 172.154 155.553 172.154L155.554 172.153Z" fill="#0C0C0C"/>
<path d="M167.326 150.414L163.919 150.929L163.981 151.295L167.388 150.78L167.326 150.414Z" fill="#0C0C0C"/>
</g>
<defs>
<clipPath id="clip0_11071_37392">
<rect y="0.416504" width="398" height="180" rx="8" fill="white"/>
</clipPath>
</defs>
</svg>
