<svg width="398" height="191" viewBox="0 0 398 191" fill="none" xmlns="http://www.w3.org/2000/svg">
<g clip-path="url(#clip0_10336_18791)">
<rect width="398" height="190.708" fill="#A48AFB"/>
<g opacity="0.1">
<path d="M208.3 219.729H65.081C63.3848 219.727 61.7586 219.053 60.5592 217.853C59.3598 216.654 58.6851 215.028 58.6833 213.332V117.299C58.6851 115.603 59.3598 113.976 60.5592 112.777C61.7586 111.578 63.3848 110.903 65.081 110.901H208.3C209.996 110.903 211.623 111.578 212.822 112.777C214.021 113.976 214.696 115.603 214.698 117.299V213.332C214.696 215.028 214.021 216.654 212.822 217.853C211.623 219.053 209.996 219.727 208.3 219.729ZM65.081 112.74C63.8724 112.741 62.7136 113.222 61.8589 114.077C61.0043 114.931 60.5236 116.09 60.5224 117.299V213.332C60.5236 214.54 61.0043 215.699 61.8589 216.554C62.7136 217.408 63.8724 217.889 65.081 217.89H208.3C209.509 217.889 210.668 217.408 211.522 216.554C212.377 215.699 212.858 214.54 212.859 213.332V117.299C212.858 116.09 212.377 114.931 211.522 114.077C210.668 113.222 209.509 112.741 208.3 112.74H65.081Z" fill="white"/>
<path d="M70.4453 125.033C72.4056 125.033 73.9947 123.444 73.9947 121.484C73.9947 119.523 72.4056 117.934 70.4453 117.934C68.485 117.934 66.8958 119.523 66.8958 121.484C66.8958 123.444 68.485 125.033 70.4453 125.033Z" fill="white"/>
<path d="M85.1356 125.033C87.0959 125.033 88.685 123.444 88.685 121.484C88.685 119.523 87.0959 117.934 85.1356 117.934C83.1753 117.934 81.5861 119.523 81.5861 121.484C81.5861 123.444 83.1753 125.033 85.1356 125.033Z" fill="white"/>
<path d="M99.8207 125.033C101.781 125.033 103.37 123.444 103.37 121.484C103.37 119.523 101.781 117.934 99.8207 117.934C97.8604 117.934 96.2713 119.523 96.2713 121.484C96.2713 123.444 97.8604 125.033 99.8207 125.033Z" fill="white"/>
<path d="M114.501 134.052H69.4989C68.8082 134.052 68.2483 134.612 68.2483 135.303C68.2483 135.994 68.8082 136.554 69.4989 136.554H114.501C115.192 136.554 115.752 135.994 115.752 135.303C115.752 134.612 115.192 134.052 114.501 134.052Z" fill="white"/>
<path d="M101.221 147.951H82.8367C82.146 147.951 81.5861 148.511 81.5861 149.201C81.5861 149.892 82.146 150.452 82.8367 150.452H101.221C101.911 150.452 102.471 149.892 102.471 149.201C102.471 148.511 101.911 147.951 101.221 147.951Z" fill="white"/>
<path d="M135.439 161.847H82.8367C82.146 161.847 81.5861 162.407 81.5861 163.098C81.5861 163.789 82.146 164.349 82.8367 164.349H135.439C136.13 164.349 136.69 163.789 136.69 163.098C136.69 162.407 136.13 161.847 135.439 161.847Z" fill="white"/>
<path d="M178.343 189.637H82.8367C82.146 189.637 81.5861 190.197 81.5861 190.888C81.5861 191.578 82.146 192.138 82.8367 192.138H178.343C179.034 192.138 179.593 191.578 179.593 190.888C179.593 190.197 179.034 189.637 178.343 189.637Z" fill="white"/>
<path d="M147.118 134.052H121.325C120.634 134.052 120.074 134.612 120.074 135.303C120.074 135.994 120.634 136.554 121.325 136.554H147.118C147.808 136.554 148.368 135.994 148.368 135.303C148.368 134.612 147.808 134.052 147.118 134.052Z" fill="white"/>
<path d="M203.988 147.951H110.815C110.124 147.951 109.565 148.511 109.565 149.201C109.565 149.892 110.124 150.452 110.815 150.452H203.988C204.679 150.452 205.239 149.892 205.239 149.201C205.239 148.511 204.679 147.951 203.988 147.951Z" fill="white"/>
<path d="M160.455 161.847H144.658C143.967 161.847 143.407 162.407 143.407 163.098C143.407 163.789 143.967 164.349 144.658 164.349H160.455C161.146 164.349 161.706 163.789 161.706 163.098C161.706 162.407 161.146 161.847 160.455 161.847Z" fill="white"/>
<path d="M171.279 134.052H156.545C155.855 134.052 155.295 134.612 155.295 135.303C155.295 135.994 155.855 136.554 156.545 136.554H171.279C171.969 136.554 172.529 135.994 172.529 135.303C172.529 134.612 171.969 134.052 171.279 134.052Z" fill="white"/>
<path d="M114.501 176.228H69.4989C68.8082 176.228 68.2483 176.788 68.2483 177.479C68.2483 178.17 68.8082 178.729 69.4989 178.729H114.501C115.192 178.729 115.752 178.17 115.752 177.479C115.752 176.788 115.192 176.228 114.501 176.228Z" fill="white"/>
<path d="M147.118 176.228H121.325C120.634 176.228 120.074 176.788 120.074 177.479C120.074 178.17 120.634 178.729 121.325 178.729H147.118C147.808 178.729 148.368 178.17 148.368 177.479C148.368 176.788 147.808 176.228 147.118 176.228Z" fill="white"/>
<path d="M171.279 176.228H156.545C155.855 176.228 155.295 176.788 155.295 177.479C155.295 178.17 155.855 178.729 156.545 178.729H171.279C171.969 178.729 172.529 178.17 172.529 177.479C172.529 176.788 171.969 176.228 171.279 176.228Z" fill="white"/>
<path d="M203.981 161.847H169.885C169.194 161.847 168.634 162.407 168.634 163.098C168.634 163.789 169.194 164.349 169.885 164.349H203.981C204.672 164.349 205.232 163.789 205.232 163.098C205.232 162.407 204.672 161.847 203.981 161.847Z" fill="white"/>
<path d="M203.986 189.637H186.894C186.204 189.637 185.644 190.197 185.644 190.888C185.644 191.578 186.204 192.138 186.894 192.138H203.986C204.677 192.138 205.237 191.578 205.237 190.888C205.237 190.197 204.677 189.637 203.986 189.637Z" fill="white"/>
</g>
<path d="M369.281 47.6772H307.189C305.825 47.6772 304.719 48.783 304.719 50.1471V108.869C304.719 110.233 305.825 111.339 307.189 111.339H369.281C370.645 111.339 371.751 110.233 371.751 108.869V50.1471C371.751 48.783 370.645 47.6772 369.281 47.6772Z" fill="#BAA7FB"/>
<path d="M310.234 52.7666C310.989 52.7666 311.601 52.1546 311.601 51.3996C311.601 50.6445 310.989 50.0325 310.234 50.0325C309.479 50.0325 308.867 50.6445 308.867 51.3996C308.867 52.1546 309.479 52.7666 310.234 52.7666Z" fill="white"/>
<path d="M315.89 52.7666C316.645 52.7666 317.257 52.1546 317.257 51.3996C317.257 50.6445 316.645 50.0325 315.89 50.0325C315.135 50.0325 314.523 50.6445 314.523 51.3996C314.523 52.1546 315.135 52.7666 315.89 52.7666Z" fill="white"/>
<path d="M321.548 52.7666C322.303 52.7666 322.915 52.1546 322.915 51.3996C322.915 50.6445 322.303 50.0325 321.548 50.0325C320.793 50.0325 320.181 50.6445 320.181 51.3996C320.181 52.1546 320.793 52.7666 321.548 52.7666Z" fill="white"/>
<path d="M336.743 85.1544C336.743 86.2009 336.645 87.3521 336.451 88.608C336.257 89.8638 335.814 91.0449 335.121 92.1513C334.428 93.2277 333.43 94.1397 332.127 94.8872C330.824 95.6048 329.064 95.9636 326.846 95.9636C325.598 95.9636 324.392 95.7693 323.228 95.3806C322.064 95.0218 321.024 94.4536 320.109 93.6762C319.195 92.8689 318.46 91.8522 317.906 90.6263C317.351 89.3704 317.074 87.8604 317.074 86.0963V83.3155H322.979V84.7507C322.979 85.5282 323.034 86.2458 323.145 86.9036C323.256 87.5614 323.45 88.1296 323.727 88.608C324.004 89.0565 324.379 89.4153 324.85 89.6844C325.349 89.9535 325.986 90.0881 326.763 90.0881C327.622 90.0881 328.287 89.9236 328.759 89.5947C329.23 89.2658 329.563 88.8472 329.757 88.3389C329.978 87.8006 330.103 87.2325 330.131 86.6345C330.186 86.0066 330.214 85.4086 330.214 84.8404V63.2219H336.743V85.1544Z" fill="white"/>
<path d="M345.586 87.7109C345.586 88.3987 345.71 88.9967 345.96 89.505C346.237 89.9834 346.584 90.3871 346.999 90.716C347.415 91.015 347.887 91.2393 348.413 91.3888C348.968 91.5383 349.536 91.613 350.118 91.613C350.534 91.613 350.964 91.5682 351.407 91.4785C351.878 91.3589 352.294 91.1944 352.655 90.9851C353.043 90.7459 353.362 90.4469 353.611 90.0881C353.861 89.6994 353.985 89.2209 353.985 88.6528C353.985 87.696 353.389 86.9784 352.197 86.4999C351.033 86.0215 349.397 85.5431 347.291 85.0647C346.431 84.8554 345.586 84.6162 344.754 84.3471C343.95 84.048 343.229 83.6743 342.592 83.2258C341.954 82.7474 341.441 82.1643 341.053 81.4766C340.665 80.7589 340.471 79.8918 340.471 78.8752C340.471 77.3801 340.734 76.1542 341.261 75.1973C341.815 74.2405 342.536 73.493 343.423 72.9547C344.31 72.3866 345.308 71.9979 346.417 71.7886C347.526 71.5494 348.663 71.4298 349.827 71.4298C350.991 71.4298 352.114 71.5494 353.195 71.7886C354.304 72.0278 355.288 72.4315 356.148 72.9996C357.007 73.5677 357.714 74.3302 358.268 75.287C358.85 76.214 359.197 77.3951 359.308 78.8303H353.694C353.611 77.6044 353.181 76.7821 352.405 76.3635C351.629 75.9149 350.714 75.6907 349.661 75.6907C349.328 75.6907 348.968 75.7206 348.58 75.7804C348.191 75.8103 347.831 75.9 347.498 76.0495C347.193 76.199 346.93 76.4233 346.708 76.7223C346.487 76.9914 346.376 77.3652 346.376 77.8436C346.376 78.4117 346.57 78.8752 346.958 79.234C347.346 79.5928 347.845 79.8918 348.455 80.131C349.092 80.3403 349.813 80.5347 350.617 80.7141C351.421 80.8935 352.239 81.0878 353.07 81.2971C353.93 81.5065 354.762 81.7606 355.565 82.0596C356.397 82.3586 357.132 82.7623 357.769 83.2706C358.407 83.749 358.92 84.362 359.308 85.1095C359.696 85.8272 359.89 86.7242 359.89 87.8006C359.89 89.3256 359.599 90.6113 359.017 91.6579C358.462 92.6745 357.728 93.4968 356.813 94.1247C355.898 94.7527 354.845 95.1862 353.653 95.4254C352.488 95.6945 351.296 95.8291 350.077 95.8291C348.829 95.8291 347.609 95.6945 346.417 95.4254C345.225 95.1563 344.158 94.7078 343.215 94.0799C342.301 93.452 341.538 92.6297 340.928 91.613C340.346 90.5665 340.027 89.2658 339.972 87.7109H345.586Z" fill="white"/>
<path d="M371.096 129.258H346.834C346.301 129.258 345.869 129.69 345.869 130.223V153.168C345.869 153.701 346.301 154.133 346.834 154.133H371.096C371.629 154.133 372.061 153.701 372.061 153.168V130.223C372.061 129.69 371.629 129.258 371.096 129.258Z" fill="#9C7FFB"/>
<path d="M348.024 131.246C348.319 131.246 348.558 131.007 348.558 130.712C348.558 130.417 348.319 130.178 348.024 130.178C347.729 130.178 347.49 130.417 347.49 130.712C347.49 131.007 347.729 131.246 348.024 131.246Z" fill="white"/>
<path d="M350.234 131.246C350.529 131.246 350.768 131.007 350.768 130.712C350.768 130.417 350.529 130.178 350.234 130.178C349.939 130.178 349.7 130.417 349.7 130.712C349.7 131.007 349.939 131.246 350.234 131.246Z" fill="white"/>
<path d="M352.445 131.246C352.74 131.246 352.979 131.007 352.979 130.712C352.979 130.417 352.74 130.178 352.445 130.178C352.15 130.178 351.911 130.417 351.911 130.712C351.911 131.007 352.15 131.246 352.445 131.246Z" fill="white"/>
<path d="M356.303 146.205C356.206 146.205 356.112 146.17 356.038 146.106L352.18 142.771C352.101 142.703 352.051 142.607 352.042 142.503C352.032 142.399 352.063 142.295 352.127 142.213L355.039 138.538C355.106 138.454 355.203 138.4 355.31 138.387C355.417 138.375 355.524 138.406 355.608 138.472C355.693 138.539 355.747 138.637 355.759 138.743C355.771 138.85 355.741 138.957 355.674 139.042L353.003 142.414L356.567 145.495C356.629 145.549 356.673 145.62 356.693 145.7C356.713 145.78 356.709 145.864 356.68 145.941C356.651 146.018 356.6 146.085 356.533 146.132C356.465 146.179 356.385 146.204 356.303 146.205ZM362.356 146.205C362.274 146.205 362.193 146.179 362.125 146.132C362.058 146.085 362.006 146.018 361.977 145.941C361.948 145.864 361.944 145.779 361.964 145.699C361.985 145.619 362.029 145.547 362.092 145.493L365.655 142.412L362.983 139.042C362.949 139 362.925 138.952 362.91 138.901C362.896 138.85 362.891 138.796 362.898 138.743C362.904 138.691 362.92 138.639 362.946 138.593C362.972 138.546 363.007 138.505 363.048 138.472C363.09 138.439 363.138 138.415 363.189 138.4C363.24 138.386 363.294 138.381 363.347 138.387C363.399 138.394 363.451 138.41 363.497 138.436C363.544 138.462 363.584 138.497 363.618 138.538L366.529 142.213C366.594 142.295 366.624 142.399 366.615 142.503C366.605 142.607 366.555 142.703 366.476 142.771L362.618 146.106C362.546 146.169 362.453 146.204 362.356 146.205ZM358.501 146.411C358.439 146.411 358.377 146.397 358.322 146.37C358.266 146.342 358.217 146.302 358.179 146.253C358.141 146.203 358.115 146.146 358.103 146.085C358.091 146.024 358.093 145.961 358.109 145.901L360.141 138.354C360.169 138.25 360.237 138.162 360.331 138.108C360.424 138.055 360.535 138.04 360.639 138.068C360.743 138.096 360.832 138.165 360.885 138.258C360.939 138.351 360.953 138.462 360.925 138.566L358.892 146.111C358.869 146.197 358.818 146.273 358.747 146.327C358.677 146.382 358.59 146.411 358.501 146.411Z" fill="white"/>
<path d="M79.2016 135.776H37.9182C37.0113 135.776 36.276 136.511 36.276 137.418V176.461C36.276 177.368 37.0113 178.103 37.9182 178.103H79.2016C80.1085 178.103 80.8438 177.368 80.8438 176.461V137.418C80.8438 136.511 80.1085 135.776 79.2016 135.776Z" fill="#BAA7FB"/>
<path d="M39.9428 139.16C40.4448 139.16 40.8517 138.753 40.8517 138.251C40.8517 137.749 40.4448 137.342 39.9428 137.342C39.4408 137.342 39.0338 137.749 39.0338 138.251C39.0338 138.753 39.4408 139.16 39.9428 139.16Z" fill="white"/>
<path d="M43.7033 139.16C44.2053 139.16 44.6122 138.753 44.6122 138.251C44.6122 137.749 44.2053 137.342 43.7033 137.342C43.2013 137.342 42.7944 137.749 42.7944 138.251C42.7944 138.753 43.2013 139.16 43.7033 139.16Z" fill="white"/>
<path d="M47.4651 139.16C47.9671 139.16 48.3741 138.753 48.3741 138.251C48.3741 137.749 47.9671 137.342 47.4651 137.342C46.9632 137.342 46.5562 137.749 46.5562 138.251C46.5562 138.753 46.9632 139.16 47.4651 139.16Z" fill="white"/>
<path d="M42.6057 160.961V152.359H44.339V155.745H47.7343V152.359H49.4675V160.961H47.7343V157.2H44.339V160.961H42.6057Z" fill="white"/>
<path d="M53.1925 160.961V153.815H50.646V152.359H57.4666V153.815H54.9257V160.961H53.1925Z" fill="white"/>
<path d="M58.5612 160.961V152.359H61.1545L62.7116 158.227L64.2519 152.359H66.8527V160.961H65.2412V154.19L63.538 160.961H61.8684L60.1708 154.19V160.961H58.5612Z" fill="white"/>
<path d="M68.6216 160.96V152.428H70.3549V159.511H74.6646V160.96H68.6216Z" fill="white"/>
<path d="M78.4969 30.0574H25.9295C24.7747 30.0574 23.8385 30.9935 23.8385 32.1484V81.8622C23.8385 83.017 24.7747 83.9532 25.9295 83.9532H78.4969C79.6517 83.9532 80.5879 83.017 80.5879 81.8622V32.1484C80.5879 30.9935 79.6517 30.0574 78.4969 30.0574Z" fill="#BAA7FB"/>
<path d="M28.5063 34.366C29.1455 34.366 29.6637 33.8479 29.6637 33.2086C29.6637 32.5694 29.1455 32.0513 28.5063 32.0513C27.8671 32.0513 27.3489 32.5694 27.3489 33.2086C27.3489 33.8479 27.8671 34.366 28.5063 34.366Z" fill="white"/>
<path d="M33.2951 34.366C33.9343 34.366 34.4525 33.8479 34.4525 33.2086C34.4525 32.5694 33.9343 32.0513 33.2951 32.0513C32.6559 32.0513 32.1377 32.5694 32.1377 33.2086C32.1377 33.8479 32.6559 34.366 33.2951 34.366Z" fill="white"/>
<path d="M38.0854 34.366C38.7246 34.366 39.2428 33.8479 39.2428 33.2086C39.2428 32.5694 38.7246 32.0513 38.0854 32.0513C37.4462 32.0513 36.9281 32.5694 36.9281 33.2086C36.9281 33.8479 37.4462 34.366 38.0854 34.366Z" fill="white"/>
<path d="M41.2188 60.6558L44.3143 61.6395C43.8388 63.3672 43.0503 64.6522 41.9459 65.4915C40.8414 66.3307 39.4425 66.7519 37.7459 66.7519C35.6475 66.7519 33.9202 66.0325 32.5673 64.5969C31.2143 63.1581 30.5394 61.1937 30.5394 58.7006C30.5394 56.0629 31.2174 54.0155 32.5765 52.5553C33.9356 51.095 35.7211 50.3665 37.9361 50.3665C39.872 50.3665 41.4427 50.9383 42.6484 52.0849C43.3663 52.7612 43.9063 53.7358 44.2652 55.0023L41.1053 55.7586C40.9181 54.9378 40.5285 54.2891 39.9364 53.8126C39.3443 53.3361 38.6233 53.0994 37.7735 53.0994C36.6016 53.0994 35.6505 53.5206 34.9204 54.3629C34.1902 55.2052 33.8251 56.5702 33.8251 58.4577C33.8251 60.4621 34.1841 61.8885 34.905 62.737C35.6229 63.5885 36.5586 64.0128 37.7091 64.0128C38.5589 64.0128 39.286 63.7422 39.8996 63.2012C40.5101 62.6601 40.9488 61.8117 41.2157 60.6496L41.2188 60.6558Z" fill="white"/>
<path d="M46.2449 61.3251L49.3497 61.0207C49.5368 62.0659 49.9172 62.8345 50.4879 63.3233C51.0585 63.8121 51.8316 64.058 52.8011 64.058C53.8288 64.058 54.605 63.8397 55.1265 63.4032C55.6481 62.9667 55.9088 62.4564 55.9088 61.8753C55.9088 61.5003 55.7984 61.1806 55.5806 60.9193C55.3628 60.6549 54.9793 60.4274 54.4332 60.2337C54.0589 60.1046 53.206 59.874 51.8776 59.542C50.1657 59.1178 48.9662 58.5952 48.2759 57.9742C47.3064 57.1011 46.8186 56.0405 46.8186 54.7863C46.8186 53.9808 47.0457 53.2246 47.5028 52.5237C47.9599 51.8227 48.6164 51.2878 49.4754 50.9189C50.3345 50.5531 51.3714 50.3687 52.5863 50.3687C54.5712 50.3687 56.0653 50.8052 57.0685 51.6752C58.0717 52.5483 58.5994 53.7103 58.6485 55.1675L55.4548 55.3089C55.3167 54.4942 55.0253 53.9101 54.5743 53.5535C54.1264 53.1969 53.4515 53.0186 52.5526 53.0186C51.6537 53.0186 50.899 53.2092 50.3744 53.5904C50.0369 53.8363 49.8681 54.1622 49.8681 54.5741C49.8681 54.9492 50.0277 55.2689 50.3437 55.5364C50.7456 55.8745 51.7242 56.2281 53.2766 56.597C54.8289 56.9659 55.9794 57.344 56.7218 57.7375C57.4674 58.131 58.0472 58.6659 58.4705 59.3484C58.8908 60.0278 59.1025 60.8701 59.1025 61.8723C59.1025 62.7792 58.851 63.6307 58.3478 64.4238C57.8447 65.217 57.1329 65.8041 56.2126 66.1915C55.2922 66.5758 54.1448 66.7694 52.7704 66.7694C50.7701 66.7694 49.2362 66.3052 48.1655 65.3799C47.0948 64.4546 46.4536 63.105 46.2449 61.3312V61.3251Z" fill="white"/>
<path d="M60.9778 61.3251L64.0825 61.0207C64.2697 62.0659 64.6501 62.8345 65.2207 63.3233C65.7913 63.8121 66.5645 64.058 67.5339 64.058C68.5617 64.058 69.3378 63.8397 69.8594 63.4032C70.3809 62.9667 70.6417 62.4564 70.6417 61.8753C70.6417 61.5003 70.5313 61.1806 70.3134 60.9193C70.0926 60.6549 69.7121 60.4274 69.166 60.2337C68.7917 60.1046 67.9389 59.874 66.6105 59.542C64.8986 59.1178 63.699 58.5952 63.0088 57.9742C62.0393 57.1011 61.5515 56.0405 61.5515 54.7863C61.5515 53.9808 61.7785 53.2246 62.2356 52.5237C62.6928 51.8227 63.3493 51.2878 64.2083 50.9189C65.0673 50.5531 66.1043 50.3687 67.3192 50.3687C69.3041 50.3687 70.7982 50.8052 71.8014 51.6752C72.8046 52.5483 73.3323 53.7103 73.3813 55.1675L70.1876 55.3089C70.0496 54.4942 69.7581 53.9101 69.3072 53.5535C68.8592 53.1969 68.1843 53.0186 67.2854 53.0186C66.3865 53.0186 65.6318 53.2092 65.1072 53.5904C64.7697 53.8363 64.601 54.1622 64.601 54.5741C64.601 54.9492 64.7605 55.2689 65.0765 55.5364C65.4784 55.8745 66.4571 56.2281 68.0094 56.597C69.5618 56.9659 70.7123 57.344 71.4547 57.7375C72.2002 58.131 72.78 58.6659 73.2034 59.3484C73.6237 60.0278 73.8354 60.8701 73.8354 61.8723C73.8354 62.7792 73.5838 63.6307 73.0807 64.4238C72.5775 65.217 71.8658 65.8041 70.9454 66.1915C70.0251 66.5758 68.8777 66.7694 67.5063 66.7694C65.506 66.7694 63.9721 66.3052 62.9014 65.3799C61.8307 64.4546 61.1895 63.105 60.9809 61.3312L60.9778 61.3251Z" fill="white"/>
<path d="M278.761 84.3423L253.122 92.1426C249.838 93.1418 246.913 95.0692 244.699 97.6926C242.486 100.316 241.078 103.524 240.645 106.929L234.223 157.505L214.209 187.69L229.418 190.561L254.564 168.332C258.808 147.226 263.052 126.119 267.295 105.012L278.761 84.3423Z" fill="#E67925"/>
<path d="M274.35 89.9817L286.423 89.0845L284.718 66.1442L272.645 67.0414L274.35 89.9817Z" fill="#E67925"/>
<path d="M276.819 44.4394C267.742 44.4824 261.118 53.1095 263.477 61.9224L265.795 72.4922C266.642 76.3542 269.917 79.3156 273.495 79.5949C274.259 79.633 275.024 79.5959 275.781 79.4842C281.045 78.6537 284.004 73.1689 285.659 70.1017C285.941 69.5812 286.247 68.9685 286.558 68.2709C288.543 66.3423 289.906 63.8641 290.472 61.1549C291.038 58.4457 290.781 55.6292 289.734 53.0672C288.687 50.5053 286.898 48.3148 284.597 46.7774C282.295 45.24 279.587 44.4258 276.819 44.4394Z" fill="#E67925"/>
<path d="M272.397 70.9287C272.273 70.9287 272.151 70.901 272.039 70.8476C271.927 70.7942 271.829 70.7165 271.751 70.6201C271.673 70.5238 271.617 70.4112 271.588 70.2907C271.56 70.1702 271.558 70.0447 271.584 69.9235L272.568 65.3282C272.574 65.2961 272.587 65.2656 272.605 65.2384C272.623 65.2111 272.647 65.1878 272.674 65.1698C272.701 65.1518 272.732 65.1394 272.764 65.1333C272.796 65.1273 272.829 65.1277 272.861 65.1346C272.893 65.1414 272.924 65.1546 272.95 65.1733C272.977 65.1921 273 65.216 273.018 65.2436C273.035 65.2713 273.047 65.3022 273.052 65.3344C273.058 65.3667 273.057 65.3997 273.049 65.4316L272.065 70.0269C272.054 70.0768 272.055 70.1284 272.067 70.178C272.079 70.2276 272.102 70.2739 272.134 70.3133C272.167 70.3527 272.208 70.3842 272.254 70.4056C272.3 70.4269 272.351 70.4375 272.402 70.4366L274.078 70.4058C274.143 70.4058 274.206 70.4317 274.252 70.4779C274.298 70.524 274.324 70.5866 274.324 70.6519C274.324 70.7171 274.298 70.7797 274.252 70.8259C274.206 70.872 274.143 70.8979 274.078 70.8979L272.397 70.9287ZM268.569 63.6378C268.336 63.6387 268.108 63.709 267.914 63.8396C267.72 63.9703 267.57 64.1554 267.481 64.3717C267.393 64.588 267.37 64.8256 267.417 65.0546C267.464 65.2835 267.577 65.4935 267.743 65.658C267.909 65.8224 268.12 65.9339 268.35 65.9784C268.579 66.0229 268.816 65.9983 269.032 65.9078C269.247 65.8173 269.431 65.665 269.56 65.4701C269.689 65.2751 269.757 65.0464 269.756 64.8127C269.754 64.4997 269.628 64.2001 269.406 63.9798C269.183 63.7595 268.883 63.6364 268.569 63.6378ZM277.532 63.5947C277.299 63.5957 277.071 63.6659 276.877 63.7965C276.683 63.9271 276.533 64.1122 276.444 64.3284C276.356 64.5446 276.333 64.7821 276.38 65.0111C276.426 65.24 276.54 65.45 276.706 65.6145C276.872 65.7789 277.082 65.8906 277.312 65.9352C277.541 65.9798 277.778 65.9554 277.994 65.8651C278.209 65.7748 278.393 65.6227 278.522 65.4279C278.651 65.2331 278.719 65.0045 278.719 64.7709C278.718 64.6157 278.687 64.4622 278.627 64.3191C278.567 64.176 278.48 64.046 278.369 63.9368C278.259 63.8275 278.129 63.7411 277.985 63.6824C277.841 63.6237 277.688 63.5939 277.532 63.5947ZM280.447 60.5201C279.088 59.243 277.051 59.7585 276.711 59.8446C276.421 59.9185 275.446 60.1695 275.404 60.637C275.379 60.9027 275.67 61.1291 275.682 61.1291C276.313 61.6003 277.158 60.6911 278.45 60.6997C279.954 60.7108 280.927 61.9485 281.129 61.7221C281.263 61.5769 280.907 60.9532 280.447 60.5201ZM269.258 59.8336C268.918 59.7462 266.883 59.2184 265.521 60.498C265.058 60.9298 264.7 61.5523 264.834 61.7024C265.036 61.9301 266.013 60.6948 267.518 60.6887C268.814 60.6887 269.651 61.5954 270.283 61.1266C270.296 61.1168 270.586 60.8966 270.563 60.6345C270.523 60.1621 269.546 59.9074 269.258 59.8336Z" fill="#262246"/>
<path d="M273.805 79.9712C273.739 79.9712 273.677 79.9453 273.631 79.8991C273.584 79.853 273.558 79.7904 273.558 79.7251C273.558 79.6922 273.565 79.6596 273.578 79.6292C273.591 79.5989 273.609 79.5714 273.633 79.5485C273.657 79.5255 273.685 79.5075 273.715 79.4956C273.746 79.4837 273.779 79.4781 273.812 79.479C275.193 79.5182 276.563 79.2157 277.799 78.5984C279.035 77.9811 280.1 77.0682 280.899 75.9406C280.936 75.8873 280.994 75.8511 281.058 75.84C281.122 75.8289 281.189 75.8439 281.242 75.8816C281.295 75.9192 281.331 75.9766 281.343 76.041C281.354 76.1053 281.339 76.1715 281.301 76.2248C280.456 77.4179 279.33 78.3841 278.022 79.0376C276.715 79.6911 275.266 80.0118 273.805 79.9712Z" fill="#13335F"/>
<path d="M284.081 84.9175L311.064 88.7044C314.995 89.2563 318.735 90.7496 321.964 93.0573C325.194 95.365 327.818 98.4188 329.614 101.959L360.599 163.03L338.218 170.491C293.056 97.8495 304.506 115.89 284.081 84.9175Z" fill="#E67925"/>
<path d="M248.987 96.1535L278.761 84.3423L317.886 91.8879C316.573 125.134 315.261 158.38 313.949 191.627H249.643C249.425 159.803 249.207 127.978 248.987 96.1535Z" fill="#091A2F"/>
<path d="M272.279 166.363L354.957 152.912C356.571 155.201 365.959 168.822 361.028 176.534C357.535 181.997 348.545 181.859 342.982 181.784C323.357 181.517 301.824 181.415 276.544 181.292L272.279 166.363Z" fill="#E67925"/>
<path d="M278.76 83.7275L312.315 88.0608C316.383 88.587 320.272 90.0587 323.669 92.358C327.066 94.6573 329.877 97.7203 331.877 101.302L355.94 144.383L322.334 154.881L304.103 109.605L278.76 83.7275Z" fill="#091A2F"/>
<path d="M239.337 107.945L226.984 151.744L261.926 156.912L272.102 97.2752L279.826 83.9531L257.019 90.3164C252.807 91.4911 248.968 93.7297 245.872 96.817C242.775 99.9042 240.525 103.736 239.337 107.945Z" fill="#091A2F"/>
<path d="M273.988 85.2465C273.988 85.2465 274.159 89.5908 279.244 89.9599C284.329 90.329 286.085 84.6695 286.085 84.6695L283.751 81.2664L277.68 81.9221L274.646 83.5216L273.988 85.2465Z" fill="#E67925"/>
<path d="M284.456 67.0359L282.766 58.8786C282.766 58.8786 279.09 57.5099 279.818 53.0803C279.818 53.0803 274.031 56.1696 273.343 49.7442C273.343 49.7442 270.356 49.0239 269.731 51.036C269.105 53.0481 268.992 54.836 266.938 55.201C264.885 55.566 264.335 54.25 264.335 54.25C264.335 54.25 266.919 59.8229 261.597 59.7977C256.276 59.7725 252.176 53.5646 256.929 50.276C256.929 50.276 256.153 44.1092 262.255 45.5443C262.255 45.5443 260.704 35.9657 271.302 39.9035C271.302 39.9035 272.521 35.2823 277.483 38.4867C277.483 38.4867 283.698 36.2439 286.292 42.0892C286.292 42.0892 291.268 40.6674 290.793 46.0792C290.793 46.0792 299.452 47.9249 294.876 55.1937C294.876 55.1937 299.011 59.2614 293.452 61.5692C293.452 61.5692 295.499 65.6688 291.196 65.6913C291.196 65.6913 294.499 76.9916 285.544 77.7346L284.456 67.0359Z" fill="#13335F"/>
<path d="M287.184 62.5951C285.657 61.8052 283.67 62.6136 282.746 64.4C281.822 66.1865 282.309 68.2768 283.836 69.0654C285.363 69.8541 287.35 69.047 288.274 67.2605C289.198 65.4741 288.711 63.385 287.184 62.5951Z" fill="#E67925"/>
<path d="M284.691 67.5712C284.927 67.4934 285.132 67.3429 285.277 67.1411C285.423 66.9393 285.5 66.6967 285.499 66.4482C285.498 66.1996 285.418 65.9578 285.27 65.7574C285.123 65.5571 284.916 65.4086 284.679 65.3332C284.624 65.3149 284.577 65.2774 284.546 65.2273C284.516 65.1773 284.504 65.118 284.513 65.0602C284.523 65.0024 284.552 64.9498 284.597 64.9119C284.642 64.8739 284.698 64.8532 284.757 64.8534L287.095 64.8423C287.16 64.8423 287.222 64.8682 287.269 64.9144C287.315 64.9605 287.341 65.0231 287.341 65.0884C287.341 65.1536 287.315 65.2162 287.269 65.2624C287.222 65.3085 287.16 65.3344 287.095 65.3344L285.562 65.3418C285.748 65.5465 285.88 65.7947 285.946 66.0637C286.013 66.3326 286.01 66.6138 285.94 66.8817C285.869 67.1495 285.733 67.3955 285.543 67.5971C285.353 67.7988 285.116 67.9497 284.853 68.0362C284.791 68.0578 284.724 68.0539 284.665 68.0255C284.606 67.9972 284.561 67.9466 284.539 67.8849C284.518 67.8232 284.522 67.7555 284.55 67.6967C284.578 67.6379 284.629 67.5927 284.691 67.5712Z" fill="#262246"/>
<path d="M315.978 140.446C315.913 140.446 315.85 140.42 315.804 140.374C315.758 140.328 315.732 140.265 315.732 140.2V107.637C315.732 107.572 315.758 107.509 315.804 107.463C315.85 107.417 315.913 107.391 315.978 107.391C316.043 107.391 316.106 107.417 316.152 107.463C316.198 107.509 316.224 107.572 316.224 107.637V140.2C316.224 140.265 316.198 140.328 316.152 140.374C316.106 140.42 316.043 140.446 315.978 140.446Z" fill="#13335F"/>
<path d="M278.056 165.545L252.834 166.693C250.243 170.903 247.653 175.113 245.063 179.324C244.413 180.528 244.701 181.991 245.657 182.769C246.774 183.679 248.594 183.484 249.579 182.194L254.747 173.5L251.979 183.508C252.188 185.896 254.787 186.083 256.173 184.338L259.422 175.21L258.869 183.671C258.937 184.184 259.177 184.659 259.549 185.019C259.922 185.378 260.406 185.6 260.921 185.649C261.437 185.697 261.953 185.57 262.387 185.287C262.821 185.005 263.146 184.583 263.309 184.092C263.571 181.518 263.834 178.945 264.097 176.372L264.57 184.123C264.672 184.575 264.924 184.979 265.285 185.269C265.645 185.56 266.094 185.72 266.557 185.723C267.02 185.727 267.471 185.574 267.836 185.289C268.201 185.004 268.459 184.604 268.568 184.153L269.203 178.667L272.709 181.581C273.41 182.163 274.255 182.546 275.156 182.688C276.057 182.83 276.979 182.726 277.825 182.388L281.999 180.718C280.683 175.661 279.369 170.603 278.056 165.545Z" fill="#E67925"/>
<path d="M329.827 157.246C329.762 157.252 329.697 157.231 329.647 157.188C329.597 157.146 329.567 157.085 329.561 157.02C329.556 156.955 329.577 156.89 329.619 156.84C329.662 156.79 329.722 156.76 329.788 156.754L348.19 153.76C348.222 153.755 348.255 153.756 348.287 153.763C348.319 153.771 348.349 153.785 348.375 153.804C348.402 153.823 348.424 153.847 348.441 153.875C348.459 153.903 348.47 153.934 348.475 153.966C348.48 153.999 348.479 154.032 348.472 154.064C348.464 154.095 348.45 154.125 348.431 154.152C348.412 154.178 348.388 154.201 348.36 154.218C348.332 154.235 348.301 154.247 348.269 154.252C329.099 157.368 329.876 157.246 329.827 157.246Z" fill="#13335F"/>
<path d="M272.784 72.8173L277.844 71.6436C277.963 72.3015 277.825 72.9801 277.457 73.5384C277.089 74.0968 276.52 74.4922 275.869 74.6425C275.217 74.7929 274.533 74.6867 273.958 74.3459C273.382 74.0051 272.96 73.456 272.779 72.8124L272.784 72.8173Z" fill="#262246"/>
<path d="M223.838 188.182H200.215L203.414 156.686H220.639L223.838 188.182Z" fill="white"/>
<path d="M245.391 184.901H241.577V187.444H245.391V184.901Z" fill="#13335F"/>
<path d="M250.064 184.901H246.25V187.444H250.064V184.901Z" fill="#13335F"/>
<path d="M254.738 184.901H250.924V187.444H254.738V184.901Z" fill="#13335F"/>
<path d="M259.414 184.901H255.6V187.444H259.414V184.901Z" fill="#13335F"/>
<path d="M264.09 184.901H260.276V187.444H264.09V184.901Z" fill="#13335F"/>
<path d="M268.763 184.901H264.949V187.444H268.763V184.901Z" fill="#13335F"/>
<path d="M273.441 184.901H269.627V187.444H273.441V184.901Z" fill="#13335F"/>
<path d="M278.115 184.901H274.301V187.444H278.115V184.901Z" fill="#13335F"/>
<path d="M282.79 184.901H278.976V187.444H282.79V184.901Z" fill="#13335F"/>
<path d="M287.464 184.901H283.65V187.444H287.464V184.901Z" fill="#13335F"/>
<path d="M292.14 184.901H288.326V187.444H292.14V184.901Z" fill="#13335F"/>
<path d="M270.086 175.386H165.52L159.615 105.011H265.103L270.086 175.386Z" fill="white"/>
<path d="M244.135 188.65H176.466L179.775 184.054H240.504L244.135 188.65Z" fill="white"/>
<path d="M294.578 186.19H178.312L176.466 188.65V191.111H294.578V186.19Z" fill="white"/>
<path d="M201.515 175.634C201.48 175.634 201.446 175.627 201.414 175.613C201.383 175.599 201.354 175.579 201.331 175.553C201.308 175.527 201.29 175.497 201.279 175.464C201.269 175.431 201.265 175.396 201.269 175.362L203.163 156.661C203.17 156.6 203.199 156.544 203.244 156.503C203.289 156.463 203.348 156.44 203.409 156.441H220.634C220.695 156.44 220.753 156.462 220.799 156.502C220.844 156.543 220.873 156.598 220.88 156.658L222.849 174.212C222.852 174.244 222.849 174.277 222.84 174.308C222.831 174.339 222.816 174.368 222.796 174.394C222.755 174.445 222.695 174.478 222.63 174.485C222.564 174.492 222.499 174.473 222.448 174.432C222.397 174.391 222.364 174.331 222.357 174.266L220.413 156.933H203.636L201.76 175.412C201.753 175.473 201.725 175.529 201.68 175.57C201.635 175.611 201.576 175.634 201.515 175.634Z" fill="#13335F"/>
<rect x="110.901" y="25.9116" width="36.276" height="18.6562" rx="0.721015" fill="#FDC500"/>
<path d="M118.159 38.3685H120.102C120.416 38.3685 120.721 38.3176 121.017 38.2158C121.313 38.1141 121.577 37.9476 121.808 37.7163C122.039 37.4758 122.224 37.166 122.363 36.7867C122.502 36.4075 122.571 35.945 122.571 35.3992C122.571 34.8997 122.52 34.4511 122.419 34.0534C122.326 33.6464 122.169 33.2995 121.947 33.0127C121.725 32.726 121.429 32.5086 121.059 32.3606C120.698 32.2034 120.25 32.1247 119.713 32.1247H118.159V38.3685ZM115.981 30.2932H120.254C120.892 30.2932 121.484 30.395 122.03 30.5985C122.585 30.802 123.061 31.1072 123.459 31.5142C123.866 31.9212 124.181 32.43 124.403 33.0405C124.634 33.651 124.75 34.3679 124.75 35.1911C124.75 35.9126 124.657 36.5786 124.472 37.1891C124.287 37.7996 124.005 38.3268 123.626 38.7708C123.256 39.2148 122.789 39.5663 122.224 39.8253C121.669 40.0751 121.013 40.2 120.254 40.2H115.981V30.2932Z" fill="black"/>
<path d="M127.472 36.9116C127.472 37.2446 127.532 37.5267 127.652 37.758C127.773 37.9892 127.93 38.1788 128.124 38.3268C128.328 38.4656 128.564 38.572 128.832 38.646C129.1 38.7107 129.378 38.7431 129.664 38.7431C129.859 38.7431 130.067 38.7292 130.289 38.7015C130.511 38.6645 130.719 38.5997 130.913 38.5072C131.107 38.4147 131.269 38.2898 131.399 38.1326C131.528 37.9661 131.593 37.758 131.593 37.5082C131.593 37.24 131.505 37.0226 131.329 36.8561C131.163 36.6896 130.941 36.5508 130.663 36.4398C130.386 36.3288 130.071 36.2317 129.72 36.1485C129.368 36.0652 129.012 35.9727 128.651 35.871C128.281 35.7785 127.921 35.6675 127.569 35.538C127.218 35.3992 126.903 35.2235 126.626 35.0107C126.348 34.798 126.122 34.5344 125.946 34.2199C125.779 33.8961 125.696 33.5076 125.696 33.0544C125.696 32.5456 125.802 32.1062 126.015 31.7362C126.237 31.357 126.524 31.0425 126.875 30.7927C127.227 30.543 127.625 30.358 128.069 30.2377C128.513 30.1175 128.957 30.0574 129.401 30.0574C129.919 30.0574 130.414 30.1175 130.885 30.2377C131.366 30.3487 131.792 30.5337 132.162 30.7927C132.532 31.0517 132.823 31.3847 133.036 31.7917C133.258 32.1895 133.369 32.6751 133.369 33.2486H131.26C131.241 32.9526 131.177 32.7075 131.066 32.5132C130.964 32.319 130.825 32.1664 130.649 32.0554C130.474 31.9444 130.27 31.8657 130.039 31.8195C129.817 31.7732 129.572 31.7501 129.304 31.7501C129.128 31.7501 128.952 31.7686 128.776 31.8056C128.601 31.8426 128.439 31.9074 128.291 31.9999C128.152 32.0924 128.036 32.208 127.944 32.3467C127.851 32.4855 127.805 32.6612 127.805 32.874C127.805 33.0682 127.842 33.2255 127.916 33.3457C127.99 33.466 128.133 33.577 128.346 33.6787C128.568 33.7805 128.869 33.8822 129.248 33.984C129.637 34.0857 130.141 34.2152 130.76 34.3725C130.945 34.4095 131.2 34.4789 131.524 34.5806C131.857 34.6731 132.185 34.8257 132.509 35.0385C132.832 35.2512 133.11 35.538 133.341 35.8987C133.582 36.2502 133.702 36.7035 133.702 37.2585C133.702 37.7117 133.614 38.1326 133.438 38.5211C133.263 38.9096 132.999 39.2472 132.647 39.534C132.305 39.8115 131.875 40.0288 131.357 40.1861C130.848 40.3433 130.256 40.422 129.581 40.422C129.035 40.422 128.503 40.3526 127.985 40.2138C127.477 40.0843 127.023 39.8762 126.626 39.5895C126.237 39.3027 125.927 38.9373 125.696 38.4933C125.465 38.0493 125.354 37.5221 125.363 36.9116H127.472Z" fill="black"/>
<path d="M137.218 36.3705H139.785L138.536 32.7352H138.508L137.218 36.3705ZM137.426 30.2932H139.66L143.365 40.2H141.103L140.354 37.9938H136.649L135.872 40.2H133.68L137.426 30.2932Z" fill="black"/>
<rect x="157.542" y="67.3699" width="36.8519" height="16.5833" rx="0.512721" fill="#FDC500"/>
<path d="M167.974 77.2266C167.974 77.5211 167.944 77.845 167.885 78.1984C167.826 78.5518 167.692 78.8841 167.481 79.1954C167.271 79.4983 166.968 79.7549 166.573 79.9652C166.177 80.1672 165.643 80.2681 164.97 80.2681C164.591 80.2681 164.225 80.2135 163.872 80.1041C163.519 80.0031 163.203 79.8432 162.925 79.6245C162.648 79.3973 162.425 79.1113 162.257 78.7663C162.088 78.4129 162.004 77.988 162.004 77.4916V76.7092H163.796V77.113C163.796 77.3318 163.813 77.5337 163.847 77.7188C163.88 77.9039 163.939 78.0638 164.023 78.1984C164.108 78.3246 164.221 78.4255 164.364 78.5013C164.516 78.577 164.709 78.6149 164.945 78.6149C165.206 78.6149 165.408 78.5686 165.551 78.476C165.694 78.3835 165.795 78.2657 165.853 78.1227C165.921 77.9712 165.959 77.8113 165.967 77.6431C165.984 77.4664 165.992 77.2981 165.992 77.1383V71.0552H167.974V77.2266Z" fill="black"/>
<path d="M169.194 75.5481C169.219 75.1274 169.324 74.7782 169.509 74.5006C169.694 74.2229 169.93 74 170.216 73.8317C170.502 73.6634 170.822 73.5456 171.175 73.4783C171.537 73.4026 171.899 73.3647 172.26 73.3647C172.589 73.3647 172.921 73.39 173.257 73.4404C173.594 73.4825 173.901 73.5709 174.179 73.7055C174.456 73.8401 174.684 74.0294 174.86 74.2734C175.037 74.509 175.125 74.8245 175.125 75.2199V78.6149C175.125 78.9093 175.142 79.1912 175.176 79.4604C175.209 79.7297 175.268 79.9316 175.352 80.0662H173.535C173.501 79.9652 173.472 79.8643 173.447 79.7633C173.43 79.6539 173.417 79.5446 173.409 79.4352C173.123 79.7297 172.786 79.9358 172.399 80.0536C172.012 80.1714 171.617 80.2303 171.213 80.2303C170.902 80.2303 170.611 80.1924 170.342 80.1167C170.073 80.041 169.837 79.9232 169.635 79.7633C169.433 79.6035 169.274 79.4015 169.156 79.1575C169.046 78.9135 168.992 78.6233 168.992 78.2867C168.992 77.9165 169.055 77.6136 169.181 77.378C169.316 77.134 169.484 76.9405 169.686 76.7975C169.896 76.6545 170.132 76.5493 170.393 76.482C170.662 76.4063 170.931 76.3474 171.2 76.3053C171.47 76.2632 171.735 76.2296 171.995 76.2043C172.256 76.1791 172.488 76.1412 172.69 76.0908C172.891 76.0403 173.051 75.9688 173.169 75.8762C173.287 75.7752 173.342 75.6322 173.333 75.4471C173.333 75.2536 173.3 75.1021 173.232 74.9928C173.173 74.875 173.089 74.7866 172.98 74.7277C172.879 74.6604 172.757 74.6184 172.614 74.6015C172.479 74.5763 172.332 74.5637 172.172 74.5637C171.819 74.5637 171.541 74.6394 171.339 74.7908C171.137 74.9423 171.019 75.1947 170.986 75.5481H169.194ZM173.333 76.8732C173.257 76.9405 173.161 76.9952 173.043 77.0373C172.934 77.0709 172.812 77.1004 172.677 77.1256C172.551 77.1509 172.416 77.1719 172.273 77.1887C172.13 77.2056 171.987 77.2266 171.844 77.2518C171.709 77.2771 171.575 77.3107 171.44 77.3528C171.314 77.3949 171.2 77.4538 171.099 77.5295C171.007 77.5968 170.931 77.6851 170.872 77.7945C170.813 77.9039 170.784 78.0427 170.784 78.211C170.784 78.3709 170.813 78.5055 170.872 78.6149C170.931 78.7242 171.011 78.8126 171.112 78.8799C171.213 78.9388 171.331 78.9808 171.465 79.0061C171.6 79.0313 171.739 79.044 171.882 79.044C172.235 79.044 172.509 78.9851 172.702 78.8673C172.896 78.7495 173.039 78.6106 173.131 78.4508C173.224 78.2825 173.278 78.1142 173.295 77.946C173.321 77.7777 173.333 77.6431 173.333 77.5421V76.8732Z" fill="black"/>
<path d="M179.873 80.0662H177.879L175.645 73.5414H177.526L178.902 77.9964H178.927L180.302 73.5414H182.082L179.873 80.0662Z" fill="black"/>
<path d="M182.492 75.5481C182.518 75.1274 182.623 74.7782 182.808 74.5006C182.993 74.2229 183.229 74 183.515 73.8317C183.801 73.6634 184.121 73.5456 184.474 73.4783C184.836 73.4026 185.197 73.3647 185.559 73.3647C185.887 73.3647 186.22 73.39 186.556 73.4404C186.893 73.4825 187.2 73.5709 187.478 73.7055C187.755 73.8401 187.982 74.0294 188.159 74.2734C188.336 74.509 188.424 74.8245 188.424 75.2199V78.6149C188.424 78.9093 188.441 79.1912 188.475 79.4604C188.508 79.7297 188.567 79.9316 188.651 80.0662H186.834C186.8 79.9652 186.771 79.8643 186.746 79.7633C186.729 79.6539 186.716 79.5446 186.708 79.4352C186.422 79.7297 186.085 79.9358 185.698 80.0536C185.311 80.1714 184.916 80.2303 184.512 80.2303C184.2 80.2303 183.91 80.1924 183.641 80.1167C183.372 80.041 183.136 79.9232 182.934 79.7633C182.732 79.6035 182.572 79.4015 182.455 79.1575C182.345 78.9135 182.291 78.6233 182.291 78.2867C182.291 77.9165 182.354 77.6136 182.48 77.378C182.614 77.134 182.783 76.9405 182.985 76.7975C183.195 76.6545 183.431 76.5493 183.691 76.482C183.961 76.4063 184.23 76.3474 184.499 76.3053C184.768 76.2632 185.033 76.2296 185.294 76.2043C185.555 76.1791 185.786 76.1412 185.988 76.0908C186.19 76.0403 186.35 75.9688 186.468 75.8762C186.586 75.7752 186.64 75.6322 186.632 75.4471C186.632 75.2536 186.598 75.1021 186.531 74.9928C186.472 74.875 186.388 74.7866 186.279 74.7277C186.178 74.6604 186.056 74.6184 185.913 74.6015C185.778 74.5763 185.631 74.5637 185.471 74.5637C185.118 74.5637 184.84 74.6394 184.638 74.7908C184.436 74.9423 184.318 75.1947 184.285 75.5481H182.492ZM186.632 76.8732C186.556 76.9405 186.46 76.9952 186.342 77.0373C186.232 77.0709 186.11 77.1004 185.976 77.1256C185.85 77.1509 185.715 77.1719 185.572 77.1887C185.429 77.2056 185.286 77.2266 185.143 77.2518C185.008 77.2771 184.874 77.3107 184.739 77.3528C184.613 77.3949 184.499 77.4538 184.398 77.5295C184.306 77.5968 184.23 77.6851 184.171 77.7945C184.112 77.9039 184.083 78.0427 184.083 78.211C184.083 78.3709 184.112 78.5055 184.171 78.6149C184.23 78.7242 184.31 78.8126 184.411 78.8799C184.512 78.9388 184.63 78.9808 184.764 79.0061C184.899 79.0313 185.038 79.044 185.181 79.044C185.534 79.044 185.807 78.9851 186.001 78.8673C186.195 78.7495 186.338 78.6106 186.43 78.4508C186.523 78.2825 186.577 78.1142 186.594 77.946C186.619 77.7777 186.632 77.6431 186.632 77.5421V76.8732Z" fill="black"/>
<rect x="61.151" y="96.3906" width="72.5521" height="20.7292" rx="0.721014" fill="#FDC500"/>
<path d="M71.1445 108.139C71.1445 108.407 71.193 108.635 71.29 108.821C71.387 109.008 71.5138 109.161 71.6705 109.28C71.8347 109.392 72.025 109.478 72.2414 109.538C72.4578 109.59 72.6816 109.616 72.9129 109.616C73.0696 109.616 73.2375 109.605 73.4166 109.583C73.5957 109.553 73.7636 109.5 73.9203 109.426C74.077 109.351 74.2076 109.25 74.312 109.124C74.4165 108.989 74.4687 108.821 74.4687 108.62C74.4687 108.404 74.3978 108.228 74.2561 108.094C74.1218 107.96 73.9427 107.848 73.7188 107.758C73.495 107.669 73.2413 107.59 72.9577 107.523C72.6741 107.456 72.3869 107.381 72.0958 107.299C71.7974 107.225 71.5064 107.135 71.2228 107.031C70.9393 106.919 70.6855 106.777 70.4617 106.605C70.2378 106.434 70.055 106.221 69.9132 105.967C69.7789 105.706 69.7118 105.393 69.7118 105.027C69.7118 104.617 69.7976 104.262 69.9692 103.964C70.1483 103.658 70.3796 103.404 70.6632 103.203C70.9467 103.001 71.2676 102.852 71.6257 102.755C71.9839 102.658 72.3421 102.609 72.7003 102.609C73.1181 102.609 73.5173 102.658 73.8979 102.755C74.2859 102.844 74.6292 102.994 74.9276 103.203C75.2261 103.412 75.4612 103.68 75.6328 104.008C75.8119 104.329 75.9014 104.721 75.9014 105.184H74.2001C74.1852 104.945 74.1329 104.747 74.0434 104.591C73.9613 104.434 73.8494 104.311 73.7076 104.221C73.5658 104.132 73.4017 104.068 73.2151 104.031C73.036 103.994 72.8383 103.975 72.6219 103.975C72.4801 103.975 72.3384 103.99 72.1966 104.02C72.0548 104.05 71.9242 104.102 71.8048 104.176C71.6929 104.251 71.5996 104.344 71.525 104.456C71.4504 104.568 71.4131 104.71 71.4131 104.882C71.4131 105.038 71.4429 105.165 71.5026 105.262C71.5623 105.359 71.678 105.449 71.8496 105.531C72.0287 105.613 72.2712 105.695 72.5771 105.777C72.8905 105.859 73.2972 105.964 73.7972 106.09C73.9464 106.12 74.1516 106.176 74.4128 106.258C74.6814 106.333 74.9463 106.456 75.2075 106.628C75.4686 106.799 75.6925 107.031 75.879 107.322C76.073 107.605 76.17 107.971 76.17 108.418C76.17 108.784 76.0992 109.124 75.9574 109.437C75.8156 109.75 75.6029 110.023 75.3194 110.254C75.0433 110.478 74.6963 110.653 74.2785 110.78C73.8681 110.907 73.3905 110.97 72.8458 110.97C72.4055 110.97 71.9765 110.914 71.5586 110.803C71.1482 110.698 70.7826 110.53 70.4617 110.299C70.1483 110.068 69.8983 109.773 69.7118 109.415C69.5252 109.056 69.4357 108.631 69.4431 108.139H71.1445Z" fill="black"/>
<path d="M79.7452 109.75C80.0064 109.75 80.2228 109.698 80.3944 109.594C80.5735 109.489 80.7153 109.355 80.8197 109.191C80.9316 109.019 81.01 108.821 81.0548 108.598C81.0995 108.374 81.1219 108.146 81.1219 107.915C81.1219 107.683 81.0958 107.456 81.0436 107.232C80.9988 107.008 80.9205 106.81 80.8085 106.639C80.6966 106.46 80.5511 106.318 80.372 106.213C80.2004 106.102 79.9877 106.046 79.734 106.046C79.4728 106.046 79.2527 106.102 79.0736 106.213C78.902 106.318 78.7602 106.456 78.6483 106.628C78.5438 106.799 78.4692 106.997 78.4244 107.221C78.3797 107.445 78.3573 107.676 78.3573 107.915C78.3573 108.146 78.3797 108.374 78.4244 108.598C78.4767 108.821 78.555 109.019 78.6595 109.191C78.7714 109.355 78.9169 109.489 79.096 109.594C79.2751 109.698 79.4915 109.75 79.7452 109.75ZM76.8239 105.005H78.3349V105.743H78.3573C78.5513 105.43 78.7975 105.202 79.096 105.061C79.3945 104.919 79.7228 104.848 80.081 104.848C80.5362 104.848 80.9279 104.934 81.2562 105.105C81.5846 105.277 81.8569 105.505 82.0733 105.788C82.2897 106.072 82.4501 106.404 82.5546 106.784C82.6591 107.157 82.7113 107.549 82.7113 107.96C82.7113 108.348 82.6591 108.721 82.5546 109.079C82.4501 109.437 82.2897 109.754 82.0733 110.03C81.8644 110.306 81.5995 110.526 81.2786 110.691C80.9652 110.855 80.5959 110.937 80.1705 110.937C79.8124 110.937 79.4803 110.866 79.1744 110.724C78.8759 110.575 78.6296 110.359 78.4356 110.075H78.4133V112.817H76.8239V105.005Z" fill="black"/>
<path d="M83.4425 105.005H84.9536V106.079H84.9759C85.0506 105.9 85.1513 105.736 85.2781 105.587C85.405 105.43 85.5505 105.299 85.7147 105.195C85.8788 105.083 86.0542 104.997 86.2407 104.937C86.4273 104.878 86.6213 104.848 86.8228 104.848C86.9272 104.848 87.0429 104.867 87.1697 104.904V106.381C87.0951 106.366 87.0056 106.355 86.9011 106.348C86.7966 106.333 86.6959 106.325 86.5989 106.325C86.3079 106.325 86.0616 106.374 85.8602 106.471C85.6587 106.568 85.4945 106.702 85.3677 106.874C85.2483 107.038 85.1625 107.232 85.1103 107.456C85.058 107.68 85.0319 107.922 85.0319 108.183V110.791H83.4425V105.005Z" fill="black"/>
<path d="M89.2032 104.109H87.6138V102.8H89.2032V104.109ZM87.6138 105.005H89.2032V110.791H87.6138V105.005Z" fill="black"/>
<path d="M90.2308 105.005H91.7418V105.811H91.7754C91.9769 105.475 92.2381 105.232 92.5589 105.083C92.8798 104.926 93.2081 104.848 93.5439 104.848C93.9692 104.848 94.3162 104.908 94.5848 105.027C94.8609 105.139 95.0773 105.299 95.234 105.508C95.3907 105.71 95.4989 105.96 95.5586 106.258C95.6258 106.549 95.6593 106.874 95.6593 107.232V110.791H94.07V107.523C94.07 107.045 93.9953 106.691 93.8461 106.46C93.6969 106.221 93.432 106.102 93.0514 106.102C92.6186 106.102 92.3052 106.232 92.1112 106.493C91.9172 106.747 91.8202 107.169 91.8202 107.758V110.791H90.2308V105.005Z" fill="black"/>
<path d="M99.3393 109.426C99.5631 109.426 99.7609 109.381 99.9325 109.292C100.104 109.202 100.246 109.083 100.358 108.933C100.47 108.784 100.552 108.616 100.604 108.43C100.664 108.236 100.694 108.034 100.694 107.825C100.694 107.586 100.671 107.363 100.626 107.154C100.582 106.937 100.507 106.747 100.403 106.583C100.298 106.419 100.16 106.288 99.9884 106.191C99.8168 106.094 99.6004 106.046 99.3393 106.046C99.1154 106.046 98.9214 106.09 98.7572 106.18C98.6005 106.269 98.4662 106.393 98.3543 106.549C98.2498 106.698 98.1715 106.874 98.1192 107.075C98.0745 107.269 98.0521 107.475 98.0521 107.691C98.0521 107.9 98.0707 108.109 98.108 108.318C98.1528 108.519 98.2237 108.702 98.3207 108.866C98.4252 109.03 98.5595 109.165 98.7236 109.269C98.8878 109.374 99.093 109.426 99.3393 109.426ZM102.205 110.422C102.205 110.653 102.171 110.918 102.104 111.217C102.044 111.515 101.91 111.791 101.701 112.045C101.492 112.306 101.19 112.526 100.794 112.705C100.399 112.884 99.8691 112.974 99.2049 112.974C98.9214 112.974 98.6304 112.937 98.3319 112.862C98.0409 112.795 97.7723 112.687 97.526 112.537C97.2872 112.388 97.0858 112.194 96.9216 111.955C96.7649 111.724 96.6754 111.444 96.653 111.116H98.2312C98.3058 111.414 98.4513 111.62 98.6677 111.732C98.8841 111.851 99.1341 111.911 99.4176 111.911C99.8653 111.911 100.19 111.776 100.391 111.508C100.6 111.239 100.701 110.9 100.694 110.489V109.728H100.671C100.5 110.034 100.253 110.262 99.9325 110.411C99.6191 110.553 99.287 110.623 98.9363 110.623C98.5035 110.623 98.1304 110.549 97.817 110.4C97.5036 110.243 97.2462 110.034 97.0447 109.773C96.8433 109.504 96.694 109.195 96.597 108.844C96.5075 108.486 96.4627 108.109 96.4627 107.713C96.4627 107.34 96.5149 106.982 96.6194 106.639C96.7313 106.288 96.8918 105.982 97.1007 105.721C97.3096 105.452 97.5671 105.24 97.873 105.083C98.1864 104.926 98.5446 104.848 98.9475 104.848C99.3281 104.848 99.6601 104.919 99.9437 105.061C100.235 105.202 100.477 105.441 100.671 105.777H100.694V105.005H102.205V110.422Z" fill="black"/>
<path d="M107.503 107.904C107.503 107.657 107.476 107.422 107.424 107.198C107.372 106.975 107.29 106.777 107.178 106.605C107.066 106.434 106.924 106.299 106.753 106.202C106.588 106.098 106.387 106.046 106.148 106.046C105.917 106.046 105.715 106.098 105.544 106.202C105.372 106.299 105.23 106.434 105.118 106.605C105.007 106.777 104.924 106.975 104.872 107.198C104.82 107.422 104.794 107.657 104.794 107.904C104.794 108.142 104.82 108.374 104.872 108.598C104.924 108.821 105.007 109.019 105.118 109.191C105.23 109.362 105.372 109.5 105.544 109.605C105.715 109.702 105.917 109.75 106.148 109.75C106.387 109.75 106.588 109.702 106.753 109.605C106.924 109.5 107.066 109.362 107.178 109.191C107.29 109.019 107.372 108.821 107.424 108.598C107.476 108.374 107.503 108.142 107.503 107.904ZM103.26 102.8H104.85V105.71H104.872C105.066 105.411 105.327 105.195 105.656 105.061C105.991 104.919 106.338 104.848 106.697 104.848C106.988 104.848 107.275 104.908 107.558 105.027C107.842 105.146 108.096 105.329 108.32 105.575C108.551 105.822 108.737 106.139 108.879 106.527C109.021 106.907 109.092 107.363 109.092 107.892C109.092 108.422 109.021 108.881 108.879 109.269C108.737 109.65 108.551 109.963 108.32 110.209C108.096 110.456 107.842 110.638 107.558 110.758C107.275 110.877 106.988 110.937 106.697 110.937C106.271 110.937 105.891 110.87 105.555 110.735C105.219 110.601 104.965 110.373 104.794 110.053H104.771V110.791H103.26V102.8Z" fill="black"/>
<path d="M111.289 107.904C111.289 108.135 111.312 108.363 111.357 108.586C111.401 108.803 111.476 109 111.58 109.18C111.692 109.351 111.838 109.489 112.017 109.594C112.196 109.698 112.42 109.75 112.688 109.75C112.957 109.75 113.181 109.698 113.36 109.594C113.547 109.489 113.692 109.351 113.797 109.18C113.909 109 113.987 108.803 114.032 108.586C114.076 108.363 114.099 108.135 114.099 107.904C114.099 107.672 114.076 107.445 114.032 107.221C113.987 106.997 113.909 106.799 113.797 106.628C113.692 106.456 113.547 106.318 113.36 106.213C113.181 106.102 112.957 106.046 112.688 106.046C112.42 106.046 112.196 106.102 112.017 106.213C111.838 106.318 111.692 106.456 111.58 106.628C111.476 106.799 111.401 106.997 111.357 107.221C111.312 107.445 111.289 107.672 111.289 107.904ZM109.7 107.904C109.7 107.441 109.771 107.023 109.913 106.65C110.054 106.269 110.256 105.949 110.517 105.687C110.778 105.419 111.092 105.214 111.457 105.072C111.823 104.923 112.233 104.848 112.688 104.848C113.144 104.848 113.554 104.923 113.92 105.072C114.293 105.214 114.61 105.419 114.871 105.687C115.132 105.949 115.334 106.269 115.476 106.65C115.617 107.023 115.688 107.441 115.688 107.904C115.688 108.366 115.617 108.784 115.476 109.157C115.334 109.53 115.132 109.851 114.871 110.12C114.61 110.381 114.293 110.582 113.92 110.724C113.554 110.866 113.144 110.937 112.688 110.937C112.233 110.937 111.823 110.866 111.457 110.724C111.092 110.582 110.778 110.381 110.517 110.12C110.256 109.851 110.054 109.53 109.913 109.157C109.771 108.784 109.7 108.366 109.7 107.904Z" fill="black"/>
<path d="M117.908 107.904C117.908 108.135 117.93 108.363 117.975 108.586C118.02 108.803 118.095 109 118.199 109.18C118.311 109.351 118.456 109.489 118.636 109.594C118.815 109.698 119.039 109.75 119.307 109.75C119.576 109.75 119.8 109.698 119.979 109.594C120.165 109.489 120.311 109.351 120.415 109.18C120.527 109 120.606 108.803 120.65 108.586C120.695 108.363 120.717 108.135 120.717 107.904C120.717 107.672 120.695 107.445 120.65 107.221C120.606 106.997 120.527 106.799 120.415 106.628C120.311 106.456 120.165 106.318 119.979 106.213C119.8 106.102 119.576 106.046 119.307 106.046C119.039 106.046 118.815 106.102 118.636 106.213C118.456 106.318 118.311 106.456 118.199 106.628C118.095 106.799 118.02 106.997 117.975 107.221C117.93 107.445 117.908 107.672 117.908 107.904ZM116.319 107.904C116.319 107.441 116.39 107.023 116.531 106.65C116.673 106.269 116.875 105.949 117.136 105.687C117.397 105.419 117.71 105.214 118.076 105.072C118.442 104.923 118.852 104.848 119.307 104.848C119.762 104.848 120.173 104.923 120.538 105.072C120.911 105.214 121.229 105.419 121.49 105.687C121.751 105.949 121.952 106.269 122.094 106.65C122.236 107.023 122.307 107.441 122.307 107.904C122.307 108.366 122.236 108.784 122.094 109.157C121.952 109.53 121.751 109.851 121.49 110.12C121.229 110.381 120.911 110.582 120.538 110.724C120.173 110.866 119.762 110.937 119.307 110.937C118.852 110.937 118.442 110.866 118.076 110.724C117.71 110.582 117.397 110.381 117.136 110.12C116.875 109.851 116.673 109.53 116.531 109.157C116.39 108.784 116.319 108.366 116.319 107.904Z" fill="black"/>
<path d="M125.131 105.005H126.295V106.068H125.131V108.933C125.131 109.202 125.176 109.381 125.265 109.471C125.355 109.56 125.534 109.605 125.803 109.605C125.892 109.605 125.978 109.601 126.06 109.594C126.142 109.586 126.221 109.575 126.295 109.56V110.791C126.161 110.814 126.012 110.829 125.847 110.836C125.683 110.844 125.523 110.847 125.366 110.847C125.12 110.847 124.885 110.829 124.661 110.791C124.445 110.762 124.251 110.698 124.079 110.601C123.915 110.504 123.784 110.366 123.687 110.187C123.59 110.008 123.542 109.773 123.542 109.482V106.068H122.579V105.005H123.542V103.27H125.131V105.005Z" fill="black"/>
</g>
<defs>
<clipPath id="clip0_10336_18791">
<rect width="398" height="190.708" rx="8" fill="white"/>
</clipPath>
</defs>
</svg>
