<svg width="398" height="180" viewBox="0 0 398 180" fill="none" xmlns="http://www.w3.org/2000/svg">
<g clip-path="url(#clip0_9349_80779)">
<rect width="398" height="184" fill="#059669"/>
<g opacity="0.1">
<path d="M200.973 212H62.7918C61.1553 211.998 59.5862 211.347 58.429 210.19C57.2718 209.033 56.6209 207.464 56.6191 205.827V113.173C56.6209 111.536 57.2718 109.967 58.429 108.81C59.5862 107.653 61.1553 107.002 62.7918 107H200.973C202.61 107.002 204.179 107.653 205.336 108.81C206.493 109.967 207.144 111.536 207.146 113.173V205.827C207.144 207.464 206.493 209.033 205.336 210.19C204.179 211.347 202.61 211.998 200.973 212ZM62.7918 108.774C61.6257 108.776 60.5076 109.239 59.6831 110.064C58.8585 110.889 58.3947 112.007 58.3935 113.173V205.827C58.3947 206.993 58.8585 208.111 59.6831 208.936C60.5076 209.761 61.6257 210.224 62.7918 210.226H200.973C202.139 210.224 203.257 209.761 204.082 208.936C204.906 208.111 205.37 206.993 205.371 205.827V113.173C205.37 112.007 204.906 110.889 204.082 110.064C203.257 109.239 202.139 108.776 200.973 108.774H62.7918Z" fill="white"/>
<path d="M67.9674 120.635C69.8587 120.635 71.3919 119.102 71.3919 117.21C71.3919 115.319 69.8587 113.786 67.9674 113.786C66.076 113.786 64.5428 115.319 64.5428 117.21C64.5428 119.102 66.076 120.635 67.9674 120.635Z" fill="white"/>
<path d="M82.1409 120.635C84.0322 120.635 85.5655 119.102 85.5655 117.21C85.5655 115.319 84.0322 113.786 82.1409 113.786C80.2495 113.786 78.7163 115.319 78.7163 117.21C78.7163 119.102 80.2495 120.635 82.1409 120.635Z" fill="white"/>
<path d="M96.3095 120.635C98.2008 120.635 99.7341 119.102 99.7341 117.21C99.7341 115.319 98.2008 113.786 96.3095 113.786C94.4181 113.786 92.8849 115.319 92.8849 117.21C92.8849 119.102 94.4181 120.635 96.3095 120.635Z" fill="white"/>
<path d="M110.474 129.337H67.0542C66.3879 129.337 65.8477 129.877 65.8477 130.544C65.8477 131.21 66.3879 131.75 67.0542 131.75H110.474C111.14 131.75 111.68 131.21 111.68 130.544C111.68 129.877 111.14 129.337 110.474 129.337Z" fill="white"/>
<path d="M97.6602 142.746H79.9229C79.2565 142.746 78.7163 143.287 78.7163 143.953C78.7163 144.619 79.2565 145.16 79.9229 145.16H97.6602C98.3266 145.16 98.8668 144.619 98.8668 143.953C98.8668 143.287 98.3266 142.746 97.6602 142.746Z" fill="white"/>
<path d="M130.675 156.154H79.9229C79.2565 156.154 78.7163 156.694 78.7163 157.361C78.7163 158.027 79.2565 158.567 79.9229 158.567H130.675C131.341 158.567 131.882 158.027 131.882 157.361C131.882 156.694 131.341 156.154 130.675 156.154Z" fill="white"/>
<path d="M141.943 129.337H117.057C116.391 129.337 115.85 129.877 115.85 130.544C115.85 131.21 116.391 131.75 117.057 131.75H141.943C142.609 131.75 143.149 131.21 143.149 130.544C143.149 129.877 142.609 129.337 141.943 129.337Z" fill="white"/>
<path d="M196.813 142.746H106.917C106.251 142.746 105.711 143.287 105.711 143.953C105.711 144.619 106.251 145.16 106.917 145.16H196.813C197.479 145.16 198.019 144.619 198.019 143.953C198.019 143.287 197.479 142.746 196.813 142.746Z" fill="white"/>
<path d="M154.811 156.154H139.569C138.903 156.154 138.363 156.694 138.363 157.361C138.363 158.027 138.903 158.567 139.569 158.567H154.811C155.478 158.567 156.018 158.027 156.018 157.361C156.018 156.694 155.478 156.154 154.811 156.154Z" fill="white"/>
<path d="M165.254 129.337H151.039C150.372 129.337 149.832 129.877 149.832 130.544C149.832 131.21 150.372 131.75 151.039 131.75H165.254C165.92 131.75 166.46 131.21 166.46 130.544C166.46 129.877 165.92 129.337 165.254 129.337Z" fill="white"/>
<path d="M110.474 170.029H67.0542C66.3879 170.029 65.8477 170.57 65.8477 171.236C65.8477 171.902 66.3879 172.442 67.0542 172.442H110.474C111.14 172.442 111.68 171.902 111.68 171.236C111.68 170.57 111.14 170.029 110.474 170.029Z" fill="white"/>
<path d="M141.943 170.029H117.057C116.391 170.029 115.85 170.57 115.85 171.236C115.85 171.902 116.391 172.442 117.057 172.442H141.943C142.609 172.442 143.149 171.902 143.149 171.236C143.149 170.57 142.609 170.029 141.943 170.029Z" fill="white"/>
<path d="M165.254 170.029H151.039C150.372 170.029 149.832 170.57 149.832 171.236C149.832 171.902 150.372 172.442 151.039 172.442H165.254C165.92 172.442 166.46 171.902 166.46 171.236C166.46 170.57 165.92 170.029 165.254 170.029Z" fill="white"/>
<path d="M196.806 156.154H163.909C163.243 156.154 162.702 156.694 162.702 157.361C162.702 158.027 163.243 158.567 163.909 158.567H196.806C197.473 158.567 198.013 158.027 198.013 157.361C198.013 156.694 197.473 156.154 196.806 156.154Z" fill="white"/>
</g>
<path opacity="0.1" d="M353.747 190.947C378.182 190.947 385.627 170.792 378.587 146.111C374.606 132.152 365.399 113.899 350.358 105.639C309.198 83.0338 314.745 81.9484 304.556 57.8878C287.923 18.6101 223.964 17.0944 197.83 45.2397C177.495 67.1389 168.793 98.0109 141.089 120.757C107.648 148.214 116.77 191.344 148.892 191.344L353.747 190.947H353.747Z" fill="#091A2F"/>
<path d="M381.111 167.143H123.374L138.207 135.214H366.278L381.111 167.143Z" fill="#292A2E"/>
<path d="M381.111 167.143H123.374L138.207 135.214H366.278L381.111 167.143Z" fill="white"/>
<path d="M381.111 167.425H123.374C123.278 167.425 123.188 167.376 123.137 167.294C123.085 167.213 123.079 167.111 123.12 167.024L137.953 135.095C137.999 134.996 138.099 134.933 138.208 134.933H366.278C366.387 134.933 366.486 134.996 366.532 135.095L381.366 167.024C381.407 167.111 381.4 167.213 381.348 167.294C381.297 167.376 381.207 167.425 381.111 167.425ZM123.817 166.862H380.668L366.099 135.495H138.386L123.817 166.862Z" fill="#292A2E"/>
<path d="M270.062 124.524H245.102V143.393H270.062V124.524Z" fill="#292A2E"/>
<path opacity="0.64" d="M270.062 124.524H245.102V134.605H270.062V124.524Z" fill="#13335F"/>
<path d="M310.595 49.6599H204.571C202.903 49.6599 201.551 51.0117 201.551 52.6794V126.674C201.551 128.342 202.903 129.693 204.571 129.693H310.595C312.262 129.693 313.614 128.342 313.614 126.674V52.6794C313.614 51.0117 312.262 49.6599 310.595 49.6599Z" fill="#292A2E"/>
<path d="M309.105 53.0897H206.062C205.377 53.0897 204.822 53.6447 204.822 54.3292V115.697C204.822 116.382 205.377 116.937 206.062 116.937H309.105C309.789 116.937 310.344 116.382 310.344 115.697V54.3292C310.344 53.6447 309.789 53.0897 309.105 53.0897Z" fill="white"/>
<path d="M275.255 141.843H239.91C239.005 141.843 238.272 142.576 238.272 143.48C238.272 144.385 239.005 145.118 239.91 145.118H275.255C276.16 145.118 276.893 144.385 276.893 143.48C276.893 142.576 276.16 141.843 275.255 141.843Z" fill="#292A2E"/>
<path d="M240.101 63.2881H235.408C235.293 63.2881 235.2 63.195 235.2 63.0797C235.2 62.9644 235.293 62.8713 235.408 62.8713H240.101C240.216 62.8713 240.31 62.9644 240.31 63.0797C240.31 63.195 240.216 63.2881 240.101 63.2881Z" fill="#292A2E"/>
<path d="M232.026 63.2881H230.25C230.135 63.2881 230.042 63.1951 230.042 63.0797C230.042 62.9644 230.135 62.8713 230.25 62.8713H232.026C232.141 62.8713 232.234 62.9644 232.234 63.0797C232.234 63.1951 232.141 63.2881 232.026 63.2881Z" fill="#292A2E"/>
<path d="M232.026 67.0471H230.25C230.135 67.0471 230.042 66.954 230.042 66.8387C230.042 66.7233 230.135 66.6302 230.25 66.6302H232.026C232.141 66.6302 232.234 66.7233 232.234 66.8387C232.234 66.954 232.141 67.0471 232.026 67.0471Z" fill="#292A2E"/>
<path d="M232.026 70.806H230.25C230.135 70.806 230.042 70.7129 230.042 70.5976C230.042 70.4823 230.135 70.3892 230.25 70.3892H232.026C232.141 70.3892 232.234 70.4823 232.234 70.5976C232.234 70.7129 232.141 70.806 232.026 70.806Z" fill="#292A2E"/>
<path d="M232.026 74.5649H230.25C230.135 74.5649 230.042 74.4718 230.042 74.3565C230.042 74.2412 230.135 74.1481 230.25 74.1481H232.026C232.141 74.1481 232.234 74.2412 232.234 74.3565C232.234 74.4718 232.141 74.5649 232.026 74.5649Z" fill="#292A2E"/>
<path d="M232.026 78.3235H230.25C230.135 78.3235 230.042 78.2304 230.042 78.1151C230.042 77.9998 230.135 77.9067 230.25 77.9067H232.026C232.141 77.9067 232.234 77.9998 232.234 78.1151C232.234 78.2304 232.141 78.3235 232.026 78.3235Z" fill="#292A2E"/>
<path d="M232.026 82.0823H230.25C230.135 82.0823 230.042 81.9892 230.042 81.8739C230.042 81.7586 230.135 81.6655 230.25 81.6655H232.026C232.141 81.6655 232.234 81.7586 232.234 81.8739C232.234 81.9892 232.141 82.0823 232.026 82.0823Z" fill="#292A2E"/>
<path d="M232.026 85.8413H230.25C230.135 85.8413 230.042 85.7482 230.042 85.6329C230.042 85.5176 230.135 85.4245 230.25 85.4245H232.026C232.141 85.4245 232.234 85.5176 232.234 85.6329C232.234 85.7482 232.141 85.8413 232.026 85.8413Z" fill="#292A2E"/>
<path d="M232.026 89.5999H230.25C230.135 89.5999 230.042 89.5068 230.042 89.3915C230.042 89.2762 230.135 89.1831 230.25 89.1831H232.026C232.141 89.1831 232.234 89.2762 232.234 89.3915C232.234 89.5068 232.141 89.5999 232.026 89.5999Z" fill="#292A2E"/>
<path d="M232.026 93.3588H230.25C230.135 93.3588 230.042 93.2657 230.042 93.1504C230.042 93.0351 230.135 92.942 230.25 92.942H232.026C232.141 92.942 232.234 93.0351 232.234 93.1504C232.234 93.2657 232.141 93.3588 232.026 93.3588Z" fill="#292A2E"/>
<path d="M232.026 97.1177H230.25C230.135 97.1177 230.042 97.0246 230.042 96.9093C230.042 96.794 230.135 96.7009 230.25 96.7009H232.026C232.141 96.7009 232.234 96.794 232.234 96.9093C232.234 97.0246 232.141 97.1177 232.026 97.1177Z" fill="#292A2E"/>
<path d="M232.026 100.876H230.25C230.135 100.876 230.042 100.783 230.042 100.668C230.042 100.553 230.135 100.46 230.25 100.46H232.026C232.141 100.46 232.234 100.553 232.234 100.668C232.234 100.783 232.141 100.876 232.026 100.876Z" fill="#292A2E"/>
<path d="M232.026 104.635H230.25C230.135 104.635 230.042 104.542 230.042 104.427C230.042 104.312 230.135 104.219 230.25 104.219H232.026C232.141 104.219 232.234 104.312 232.234 104.427C232.234 104.542 232.141 104.635 232.026 104.635Z" fill="#292A2E"/>
<path d="M232.026 108.394H230.25C230.135 108.394 230.042 108.301 230.042 108.186C230.042 108.07 230.135 107.977 230.25 107.977H232.026C232.141 107.977 232.234 108.07 232.234 108.186C232.234 108.301 232.141 108.394 232.026 108.394Z" fill="#292A2E"/>
<path d="M232.026 112.153H230.25C230.135 112.153 230.042 112.06 230.042 111.944C230.042 111.829 230.135 111.736 230.25 111.736H232.026C232.141 111.736 232.234 111.829 232.234 111.944C232.234 112.06 232.141 112.153 232.026 112.153Z" fill="#292A2E"/>
<path d="M243.852 67.047H239.576C239.461 67.047 239.368 66.9539 239.368 66.8386C239.368 66.7233 239.461 66.6302 239.576 66.6302H243.852C243.967 66.6302 244.06 66.7233 244.06 66.8386C244.06 66.9539 243.967 67.047 243.852 67.047Z" fill="#292A2E"/>
<path d="M240.101 89.5999H235.408C235.293 89.5999 235.2 89.5068 235.2 89.3914C235.2 89.2761 235.293 89.183 235.408 89.183H240.101C240.216 89.183 240.31 89.2761 240.31 89.3914C240.31 89.5068 240.216 89.5999 240.101 89.5999Z" fill="#292A2E"/>
<path d="M243.852 93.3588H239.576C239.461 93.3588 239.368 93.2657 239.368 93.1504C239.368 93.035 239.461 92.942 239.576 92.942H243.852C243.967 92.942 244.06 93.035 244.06 93.1504C244.06 93.2657 243.967 93.3588 243.852 93.3588Z" fill="#292A2E"/>
<path d="M273.646 70.8059H242.492C242.377 70.8059 242.284 70.7128 242.284 70.5975C242.284 70.4822 242.377 70.3891 242.492 70.3891H273.646C273.761 70.3891 273.854 70.4822 273.854 70.5975C273.854 70.7128 273.761 70.8059 273.646 70.8059Z" fill="#292A2E"/>
<path d="M296.184 70.8059H278.157C278.042 70.8059 277.948 70.7128 277.948 70.5975C277.948 70.4822 278.042 70.3891 278.157 70.3891H296.184C296.299 70.3891 296.393 70.4822 296.393 70.5975C296.393 70.7128 296.3 70.8059 296.184 70.8059Z" fill="#022C22"/>
<path d="M305.859 70.8059H300.333C300.218 70.8059 300.125 70.7128 300.125 70.5975C300.125 70.4822 300.218 70.3891 300.333 70.3891H305.859C305.974 70.3891 306.068 70.4822 306.068 70.5975C306.068 70.7128 305.974 70.8059 305.859 70.8059Z" fill="#292A2E"/>
<path d="M286.147 78.3235H242.492C242.377 78.3235 242.284 78.2304 242.284 78.1151C242.284 77.9998 242.377 77.9067 242.492 77.9067H286.147C286.262 77.9067 286.356 77.9998 286.356 78.1151C286.356 78.2304 286.263 78.3235 286.147 78.3235Z" fill="#292A2E"/>
<path d="M296.185 78.3235H290.659C290.544 78.3235 290.451 78.2304 290.451 78.1151C290.451 77.9998 290.544 77.9067 290.659 77.9067H296.185C296.3 77.9067 296.394 77.9998 296.394 78.1151C296.394 78.2304 296.301 78.3235 296.185 78.3235Z" fill="#091A2F"/>
<path d="M247.185 74.5648H242.492C242.377 74.5648 242.284 74.4717 242.284 74.3564C242.284 74.241 242.377 74.1479 242.492 74.1479H247.185C247.3 74.1479 247.393 74.241 247.393 74.3564C247.393 74.4717 247.3 74.5648 247.185 74.5648Z" fill="#022C22"/>
<path d="M283.683 74.5648H251.696C251.581 74.5648 251.487 74.4717 251.487 74.3564C251.487 74.241 251.581 74.1479 251.696 74.1479H283.683C283.798 74.1479 283.891 74.241 283.891 74.3564C283.891 74.4717 283.798 74.5648 283.683 74.5648Z" fill="#091A2F"/>
<path d="M305.896 74.5648H288.702C288.587 74.5648 288.494 74.4717 288.494 74.3564C288.494 74.241 288.587 74.1479 288.702 74.1479H305.896C306.011 74.1479 306.105 74.241 306.105 74.3564C306.105 74.4717 306.011 74.5648 305.896 74.5648Z" fill="#292A2E"/>
<path d="M273.646 82.0823H242.492C242.377 82.0823 242.284 81.9892 242.284 81.8739C242.284 81.7586 242.377 81.6655 242.492 81.6655H273.646C273.761 81.6655 273.854 81.7586 273.854 81.8739C273.854 81.9892 273.761 82.0823 273.646 82.0823Z" fill="#292A2E"/>
<path d="M287.85 82.0823H278.157C278.042 82.0823 277.948 81.9892 277.948 81.8739C277.948 81.7586 278.042 81.6655 278.157 81.6655H287.85C287.965 81.6655 288.058 81.7586 288.058 81.8739C288.058 81.9892 287.965 82.0823 287.85 82.0823Z" fill="#022C22"/>
<path d="M305.858 82.0823H291.998C291.883 82.0823 291.79 81.9892 291.79 81.8739C291.79 81.7586 291.883 81.6655 291.998 81.6655H305.858C305.973 81.6655 306.067 81.7586 306.067 81.8739C306.067 81.9892 305.974 82.0823 305.858 82.0823Z" fill="#292A2E"/>
<path d="M247.185 85.8412H242.492C242.377 85.8412 242.284 85.7482 242.284 85.6328C242.284 85.5175 242.377 85.4244 242.492 85.4244H247.185C247.3 85.4244 247.393 85.5175 247.393 85.6328C247.393 85.7482 247.3 85.8412 247.185 85.8412Z" fill="#091A2F"/>
<path d="M283.683 85.8412H251.696C251.581 85.8412 251.487 85.7482 251.487 85.6328C251.487 85.5175 251.581 85.4244 251.696 85.4244H283.683C283.798 85.4244 283.891 85.5175 283.891 85.6328C283.891 85.7482 283.798 85.8412 283.683 85.8412Z" fill="#022C22"/>
<path d="M272.813 100.877H241.659C241.544 100.877 241.451 100.783 241.451 100.668C241.451 100.553 241.544 100.46 241.659 100.46H272.813C272.928 100.46 273.021 100.553 273.021 100.668C273.021 100.783 272.928 100.877 272.813 100.877Z" fill="#292A2E"/>
<path d="M295.351 100.877H277.324C277.209 100.877 277.115 100.783 277.115 100.668C277.115 100.553 277.209 100.46 277.324 100.46H295.351C295.466 100.46 295.56 100.553 295.56 100.668C295.56 100.783 295.467 100.877 295.351 100.877Z" fill="#091A2F"/>
<path d="M254.686 97.1177H241.659C241.544 97.1177 241.451 97.0246 241.451 96.9093C241.451 96.794 241.544 96.7009 241.659 96.7009H254.686C254.801 96.7009 254.895 96.794 254.895 96.9093C254.895 97.0246 254.802 97.1177 254.686 97.1177Z" fill="#022C22"/>
<path d="M282.85 97.1177H259.198C259.083 97.1177 258.989 97.0246 258.989 96.9093C258.989 96.794 259.083 96.7009 259.198 96.7009H282.85C282.965 96.7009 283.059 96.794 283.059 96.9093C283.059 97.0246 282.966 97.1177 282.85 97.1177Z" fill="#091A2F"/>
<path d="M305.063 97.1177H287.869C287.754 97.1177 287.661 97.0246 287.661 96.9093C287.661 96.794 287.754 96.7009 287.869 96.7009H305.063C305.178 96.7009 305.272 96.794 305.272 96.9093C305.272 97.0246 305.178 97.1177 305.063 97.1177Z" fill="#292A2E"/>
<path d="M285.314 108.394H241.659C241.544 108.394 241.451 108.301 241.451 108.186C241.451 108.07 241.544 107.977 241.659 107.977H285.314C285.429 107.977 285.522 108.07 285.522 108.186C285.522 108.301 285.429 108.394 285.314 108.394Z" fill="#091A2F"/>
<path d="M298.165 108.394H289.826C289.711 108.394 289.618 108.301 289.618 108.186C289.618 108.07 289.711 107.977 289.826 107.977H298.165C298.28 107.977 298.373 108.07 298.373 108.186C298.373 108.301 298.28 108.394 298.165 108.394Z" fill="#292A2E"/>
<path d="M246.352 104.635H241.659C241.544 104.635 241.451 104.542 241.451 104.427C241.451 104.311 241.544 104.218 241.659 104.218H246.352C246.467 104.218 246.56 104.311 246.56 104.427C246.56 104.542 246.467 104.635 246.352 104.635Z" fill="#091A2F"/>
<path d="M282.851 104.635H250.864C250.749 104.635 250.656 104.542 250.656 104.427C250.656 104.311 250.749 104.218 250.864 104.218H282.851C282.966 104.218 283.06 104.311 283.06 104.427C283.06 104.542 282.967 104.635 282.851 104.635Z" fill="#292A2E"/>
<path d="M305.063 104.635H287.869C287.754 104.635 287.661 104.542 287.661 104.427C287.661 104.311 287.754 104.218 287.869 104.218H305.063C305.178 104.218 305.272 104.311 305.272 104.427C305.272 104.542 305.178 104.635 305.063 104.635Z" fill="#022C22"/>
<path d="M272.813 112.153H241.659C241.544 112.153 241.451 112.06 241.451 111.945C241.451 111.829 241.544 111.736 241.659 111.736H272.813C272.928 111.736 273.021 111.829 273.021 111.945C273.021 112.06 272.928 112.153 272.813 112.153Z" fill="#022C22"/>
<path d="M287.018 112.153H277.325C277.21 112.153 277.117 112.06 277.117 111.945C277.117 111.829 277.21 111.736 277.325 111.736H287.018C287.133 111.736 287.227 111.829 287.227 111.945C287.227 112.06 287.134 112.153 287.018 112.153Z" fill="#292A2E"/>
<path d="M305.027 112.153H291.167C291.052 112.153 290.958 112.06 290.958 111.945C290.958 111.829 291.051 111.736 291.167 111.736H305.027C305.142 111.736 305.235 111.829 305.235 111.945C305.235 112.06 305.142 112.153 305.027 112.153Z" fill="#091A2F"/>
<path d="M227.425 114.206C227.31 114.206 227.217 114.113 227.217 113.998V56.7271C227.217 56.6121 227.31 56.5187 227.425 56.5187C227.54 56.5187 227.633 56.6118 227.633 56.7271V113.998C227.633 114.113 227.54 114.206 227.425 114.206Z" fill="#292A2E"/>
<path d="M217.896 59.3295H208.874C208.759 59.3295 208.665 59.2364 208.665 59.1211C208.665 59.0058 208.758 58.9127 208.874 58.9127H217.896C218.011 58.9127 218.105 59.0058 218.105 59.1211C218.105 59.2364 218.012 59.3295 217.896 59.3295Z" fill="#292A2E"/>
<path d="M215.177 63.4392H208.872C208.757 63.4392 208.664 63.3461 208.664 63.2307C208.664 63.1154 208.757 63.0223 208.872 63.0223H215.177C215.292 63.0223 215.385 63.1154 215.385 63.2307C215.385 63.3461 215.292 63.4392 215.177 63.4392Z" fill="#292A2E"/>
<path d="M220.721 67.549H208.872C208.757 67.549 208.664 67.4559 208.664 67.3406C208.664 67.2253 208.757 67.1322 208.872 67.1322H220.721C220.836 67.1322 220.93 67.2253 220.93 67.3406C220.93 67.4559 220.837 67.549 220.721 67.549Z" fill="#292A2E"/>
<path d="M222.932 71.6587H213.04C212.925 71.6587 212.831 71.5656 212.831 71.4503C212.831 71.335 212.924 71.2419 213.04 71.2419H222.932C223.047 71.2419 223.14 71.335 223.14 71.4503C223.14 71.5656 223.047 71.6587 222.932 71.6587Z" fill="#292A2E"/>
<path d="M218.149 75.7686H213.04C212.925 75.7686 212.831 75.6755 212.831 75.5602C212.831 75.4449 212.924 75.3518 213.04 75.3518H218.149C218.264 75.3518 218.357 75.4449 218.357 75.5602C218.357 75.6755 218.264 75.7686 218.149 75.7686Z" fill="#292A2E"/>
<path d="M222.062 79.8785H213.04C212.925 79.8785 212.831 79.7854 212.831 79.6701C212.831 79.5548 212.924 79.4617 213.04 79.4617H222.062C222.177 79.4617 222.271 79.5548 222.271 79.6701C222.271 79.7854 222.178 79.8785 222.062 79.8785Z" fill="#292A2E"/>
<path d="M215.829 83.9882H208.872C208.757 83.9882 208.664 83.8951 208.664 83.7798C208.664 83.6644 208.757 83.5714 208.872 83.5714H215.829C215.944 83.5714 216.038 83.6644 216.038 83.7798C216.038 83.8951 215.945 83.9882 215.829 83.9882Z" fill="#292A2E"/>
<path d="M213.438 88.0981H208.872C208.757 88.0981 208.664 88.005 208.664 87.8897C208.664 87.7744 208.757 87.6813 208.872 87.6813H213.438C213.553 87.6813 213.646 87.7744 213.646 87.8897C213.646 88.005 213.553 88.0981 213.438 88.0981Z" fill="#292A2E"/>
<path d="M231.742 58.448V58.5231L234.346 59.4898C234.421 59.519 234.471 59.5938 234.471 59.6774V59.7482C234.471 59.8107 234.442 59.8731 234.388 59.9066C234.334 59.944 234.267 59.9524 234.204 59.9274L231.263 58.7774C231.187 58.7481 231.137 58.6733 231.137 58.594V58.3814C231.137 58.2981 231.187 58.2272 231.263 58.198L234.204 57.0437C234.229 57.0353 234.254 57.0314 234.28 57.0314C234.317 57.0314 234.355 57.0437 234.388 57.0648C234.442 57.1022 234.471 57.1607 234.471 57.2274V57.2983C234.471 57.3815 234.421 57.4566 234.346 57.4817L231.742 58.448Z" fill="#292A2E"/>
<path d="M236.904 56.1935L235.346 60.9649C235.321 61.0442 235.246 61.1025 235.158 61.1025C235.096 61.1025 235.037 61.0732 235.004 61.0231C234.967 60.9731 234.954 60.9106 234.971 60.8482L236.529 56.081C236.558 55.9978 236.633 55.9393 236.721 55.9393C236.784 55.9393 236.838 55.9685 236.875 56.0186C236.913 56.0729 236.925 56.1353 236.904 56.1935Z" fill="#292A2E"/>
<path d="M240.732 58.3813V58.594C240.732 58.6733 240.686 58.7481 240.611 58.7773L237.665 59.9274C237.607 59.9524 237.54 59.944 237.486 59.9066C237.432 59.8731 237.398 59.8107 237.398 59.7482V59.6773C237.398 59.5941 237.448 59.519 237.527 59.4898L240.132 58.5231V58.448L237.527 57.4813C237.448 57.4563 237.398 57.3812 237.398 57.298V57.2271C237.398 57.1604 237.432 57.1019 237.486 57.0645C237.519 57.0437 237.556 57.0311 237.594 57.0311C237.619 57.0311 237.644 57.0353 237.665 57.0434L240.611 58.1977C240.686 58.2269 240.732 58.2981 240.732 58.3813Z" fill="#292A2E"/>
<path d="M133.71 191.423C130.484 191.423 127.409 189.943 125.398 187.367C123.151 184.489 122.552 180.654 123.816 177.228C124.412 175.609 139.713 136.111 142.377 129.246L160.79 139.96C159.292 143.821 153.866 158.451 149.507 170.237L156.749 169.45L159.029 188.733L134.851 191.361C134.469 191.403 134.088 191.423 133.71 191.423Z" fill="#091A2F"/>
<path d="M193.939 121.033C193.874 121.024 192.102 127.693 178.273 126.655C168.699 125.938 166.365 119.421 166.146 119.421C167.178 119.202 168.854 118.974 169.312 118.729C170.82 117.919 171.918 116.933 172.471 114.817C172.903 113.162 173.123 106.792 173.123 103.595L187.855 106.906C187.65 110.511 186.213 118.87 191.25 120.349C192.088 120.594 192.991 120.819 193.939 121.033Z" fill="#E67925"/>
<path d="M187.345 113.994C181.537 114.452 174.076 112.001 172.659 104.252L171.381 97.2605C169.964 89.5121 172.885 82.4864 180.18 81.1522C187.476 79.8179 194.078 85.1021 195.495 92.8505L196.061 95.9457C196.604 98.9188 197.706 113.177 187.345 113.994Z" fill="#E67925"/>
<path d="M159.855 120.494C154.636 120.881 149.315 121.446 145.475 125.002C140.85 129.283 140.012 134.548 142.962 149.036C145.501 161.503 144.494 166.95 146.192 189.954C146.242 190.632 146.349 192.034 146.349 192.034L202.178 191.941C202.178 191.941 207.409 161.421 210.297 147.344C212.494 136.642 218.262 123.65 193.939 121.032C193.874 121.025 174.366 119.418 159.855 120.494L159.855 120.494Z" fill="#091A2F"/>
<path d="M146.349 192.175C146.273 192.175 146.211 192.115 146.208 192.039L144.459 146.624C144.456 146.547 144.516 146.482 144.594 146.478C144.679 146.473 144.737 146.536 144.74 146.613L146.489 192.028C146.492 192.106 146.432 192.171 146.354 192.174C146.353 192.174 146.351 192.174 146.349 192.174V192.175Z" fill="#13335F"/>
<path d="M235.931 136.709L239.854 127.911C240.215 127.101 241.196 126.761 241.989 127.2C242.692 127.59 242.933 128.49 242.606 129.224L241.765 131.111L247.133 126.392C247.721 125.857 248.784 125.576 249.341 126.275C249.828 126.81 249.861 127.598 249.466 128.168C249.472 128.173 249.479 128.176 249.483 128.183C249.488 128.187 249.489 128.193 249.492 128.198L250.399 127.373C251.098 126.737 252.227 126.872 252.741 127.729C253.118 128.357 252.95 129.172 252.409 129.665L252.023 130.016C252.029 130.032 252.031 130.049 252.03 130.065C252.663 129.71 253.487 129.845 253.967 130.446C254.476 131.084 254.349 132.022 253.746 132.571L252.788 133.443C252.832 133.438 252.877 133.451 252.909 133.487C252.928 133.508 252.936 133.533 252.94 133.559C253.568 133.406 254.27 133.658 254.635 134.3C254.991 134.924 254.815 135.719 254.284 136.203L246.202 143.561C243.889 145.667 240.53 146.158 237.711 144.804C235.24 143.617 234.162 140.68 235.278 138.176L235.931 136.71V136.709Z" fill="#E67925"/>
<g opacity="0.2">
<path d="M244.175 132.865C244.227 132.921 244.314 132.926 244.371 132.875L249.471 128.381C249.529 128.33 249.534 128.241 249.483 128.183C249.439 128.124 249.343 128.119 249.284 128.17L244.185 132.664C244.127 132.716 244.121 132.804 244.173 132.863L244.175 132.865V132.865Z" fill="#13335F"/>
</g>
<g opacity="0.2">
<path d="M246.096 135.168C246.148 135.224 246.235 135.229 246.292 135.179L251.983 130.163C252.041 130.112 252.047 130.023 251.995 129.965C251.948 129.912 251.855 129.901 251.797 129.952L246.106 134.968C246.048 135.019 246.042 135.108 246.094 135.166L246.096 135.169V135.168Z" fill="#13335F"/>
</g>
<g opacity="0.2">
<path d="M248.162 137.675C248.214 137.731 248.301 137.736 248.358 137.686L252.898 133.685C252.956 133.634 252.962 133.545 252.91 133.486C252.857 133.429 252.77 133.423 252.712 133.474L248.172 137.475C248.114 137.526 248.108 137.615 248.16 137.673L248.162 137.676V137.675Z" fill="#13335F"/>
</g>
<path d="M192.728 106.053C191.728 101.028 191.269 97.6751 191.322 94.1378C192.731 91.6667 192.361 88.8309 192.04 87.6052C192.543 87.8794 192.939 88.0648 193.303 88.1896C194.209 88.5007 195.072 87.6142 194.726 86.7204C193.636 83.8978 190.834 78.4128 185.05 76.5749C183.594 76.0081 179.876 75.2924 174.94 75.9693C170.741 76.545 161.236 80.5281 159.757 92.1797H159.756C159.756 92.1797 159.756 92.1831 159.756 92.1865C159.707 92.5729 157.87 102.464 155.889 107.615C153.226 114.539 149.487 116.691 149.581 124.68C149.703 134.956 168.595 136.324 179.99 135.555C191.385 134.786 197.745 131.039 197.828 123.634C197.92 115.336 194.729 116.107 192.728 106.053Z" fill="#13335F"/>
<path d="M192.732 102.49C190.515 102.895 188.284 100.852 187.879 98.6347C187.473 96.4176 188.484 94.1375 191.323 94.1375L192.732 102.49Z" fill="#E67925"/>
<path d="M216.58 189.827C216.145 189.827 215.708 189.8 215.27 189.745C211.205 189.237 207.802 186.422 206.542 182.524L191.889 137.205L211.959 130.716L219.667 154.553L232.985 133.373L250.841 144.602L225.506 184.894C223.561 187.987 220.174 189.827 216.58 189.827Z" fill="#091A2F"/>
<path d="M204.756 177.314C204.748 177.314 204.739 177.314 204.73 177.312C204.654 177.298 204.604 177.224 204.618 177.148L209.599 150.108C209.613 150.031 209.685 149.98 209.763 149.995C209.839 150.009 209.89 150.083 209.876 150.159L204.894 177.199C204.882 177.267 204.823 177.314 204.756 177.314Z" fill="#13335F"/>
<path d="M221.457 160.936C221.395 160.936 221.338 160.894 221.321 160.83L219.662 154.438C219.643 154.363 219.688 154.287 219.763 154.267C219.839 154.247 219.915 154.293 219.934 154.368L221.594 160.76C221.613 160.835 221.568 160.911 221.493 160.931C221.481 160.934 221.469 160.935 221.457 160.935V160.936Z" fill="#13335F"/>
<path d="M334.346 159.864H279.36C277.901 159.864 276.77 158.589 276.944 157.14L278.415 144.863C278.561 143.639 279.599 142.718 280.831 142.718H334.346C335.69 142.718 336.78 143.808 336.78 145.152V157.429C336.78 158.774 335.69 159.864 334.346 159.864Z" fill="#292A2E"/>
<path d="M294.235 159.979L296.586 150.955C296.803 150.124 296.266 149.274 295.401 149.128C293.728 148.811 293.524 151.117 293.207 152.22L292 145.407C291.815 143.57 289.345 143.509 289.162 145.34C289.149 145.339 289.136 145.34 289.124 145.347C289.182 142.001 285.477 142.259 286.111 145.192C286.098 145.201 286.086 145.212 286.077 145.225C285.457 143.603 282.922 144.362 283.265 146.083L283.462 147.321C283.416 147.271 283.326 147.265 283.277 147.317C282.426 146.112 280.341 146.996 280.663 148.504L282.327 158.952C283.277 165.711 293.221 167.978 294.235 159.979H294.235Z" fill="#E67925"/>
<g opacity="0.2">
<path d="M290.323 152.089C289.956 152.055 289.175 145.697 289.028 145.498C289.016 145.424 289.065 145.354 289.139 145.341C289.208 145.323 289.284 145.377 289.297 145.451L290.437 151.931C290.45 152.007 290.398 152.078 290.323 152.089Z" fill="#13335F"/>
</g>
<g opacity="0.2">
<path d="M287.478 152.671C287.405 152.682 287.336 152.633 287.324 152.56L286.052 145.328C286.039 145.254 286.088 145.183 286.162 145.17C286.535 145.136 287.443 152.361 287.592 152.513C287.605 152.588 287.554 152.66 287.479 152.671H287.478Z" fill="#13335F"/>
</g>
<g opacity="0.2">
<path d="M284.403 153.319C284.33 153.33 284.261 153.281 284.248 153.208L283.233 147.439C283.22 147.365 283.27 147.294 283.344 147.281C283.419 147.269 283.488 147.318 283.502 147.391L284.516 153.16C284.53 153.236 284.478 153.307 284.403 153.319L284.403 153.319Z" fill="#13335F"/>
</g>
<path d="M210.645 192.175H145.28L141.126 160.258C140.85 158.155 142.06 156.234 143.891 155.477C144.425 155.255 145.01 155.131 145.629 155.131H201.831C204.115 155.131 206.041 156.824 206.336 159.086L210.645 192.175Z" fill="white"/>
<path d="M206.677 159.043C206.362 156.616 204.278 154.785 201.831 154.785H145.629C145.004 154.785 144.394 154.906 143.826 155.131C143.584 155.227 143.348 155.342 143.126 155.477C142.693 155.736 142.299 156.059 141.959 156.447C141.03 157.505 140.603 158.911 140.783 160.303L144.934 192.175H145.629L141.469 160.216C141.312 159.018 141.68 157.812 142.476 156.906C143.272 155.997 144.422 155.477 145.629 155.477H201.831C203.932 155.477 205.721 157.049 205.993 159.131L210.297 192.175H210.994L206.677 159.043Z" fill="#292A2E"/>
<path d="M206.832 192.175H141.467L137.313 160.258C136.958 157.541 139.073 155.131 141.815 155.131H198.018C198.631 155.131 199.219 155.252 199.756 155.477C201.218 156.082 202.307 157.432 202.52 159.085L206.832 192.175Z" fill="#292A2E"/>
<path d="M202.863 159.043C202.667 157.516 201.767 156.225 200.518 155.477C200.296 155.345 200.062 155.227 199.817 155.131C199.258 154.909 198.65 154.785 198.017 154.785H141.815C140.409 154.785 139.07 155.393 138.142 156.447C137.217 157.505 136.787 158.911 136.969 160.303L141.118 192.175H141.815L137.656 160.216C137.498 159.018 137.867 157.811 138.662 156.906C139.458 155.997 140.609 155.477 141.815 155.477H198.017C200.118 155.477 201.907 157.049 202.18 159.13L206.483 192.175H207.181L202.863 159.043Z" fill="#292A2E"/>
<path d="M317.783 122.427C317.848 122.419 318.563 134.293 332.358 133.258C341.908 132.542 345.313 122.41 345.532 122.41C344.502 122.192 342.768 121.873 342.311 121.629C340.807 120.821 338.665 119.981 338.18 117.06C337.901 115.377 338.375 106.766 338.229 105.063L323.851 108.335C324.056 111.932 325.49 120.27 320.465 121.745C319.629 121.989 318.728 122.214 317.783 122.427L317.783 122.427Z" fill="#E67925"/>
<path d="M324.257 113.945C330.046 114.392 337.478 111.935 338.877 104.21L340.14 97.2397C341.539 89.5146 338.616 82.5171 331.342 81.1997C324.068 79.8823 317.498 85.16 316.098 92.8853L315.54 95.9712C315.424 96.6066 315.285 97.7583 315.238 99.1842C315.144 102.029 315.013 106.356 316.421 109.535C317.75 112.536 320.559 113.66 324.257 113.945L324.257 113.945Z" fill="#E67925"/>
<path d="M337.239 80.8037C335.386 80.1987 332.765 79.6843 330.151 79.5977C329.918 78.6794 329.398 77.9656 328.634 77.6672C327.362 77.1702 325.809 77.9707 324.775 79.5128C324.2 78.6319 323.422 77.8382 322.39 77.517C319.542 76.6302 319.401 80.721 319.401 80.721C319.401 80.721 314.886 76.2657 314.745 81.9481C314.574 88.8233 315.837 90.8395 316.759 91.3486C318.579 92.3538 319.935 92.1839 320.655 93.6627C322.836 98.1411 320.698 110.756 323.222 112.335C327.09 114.755 335.011 114.838 337.583 114.654C338.573 114.584 339.499 113.437 339.915 112.537C341.261 109.63 344.262 103.043 345.097 100.318C346.639 95.2898 346.522 83.835 337.239 80.8037Z" fill="#13335F"/>
<path d="M321.493 107.828C323.727 107.586 325.277 105 325.035 102.767C324.793 100.534 322.849 99.4987 320.615 99.7411L319.627 101.363L319.573 108.037L321.493 107.829L321.493 107.828Z" fill="#E67925"/>
<path d="M297.954 148.702C298.39 153.824 300.51 185.781 300.93 192.09H358.704C359.03 186.4 360.495 161.517 361.733 150.389C362.915 139.771 365.233 134.454 363.533 131.315C360.757 126.184 353.171 123.22 347.998 122.52C344.839 122.092 344.188 121.785 342.9 121.785C333.634 121.785 320.721 121.785 320.656 121.785C318.541 121.785 305.033 123.824 302.264 125.859C294.599 131.494 297.028 137.847 297.954 148.702Z" fill="#091A2F"/>
<path d="M371.038 191.756C374.264 191.756 377.34 190.275 379.351 187.699C381.598 184.821 382.197 180.985 380.934 177.559C380.337 175.941 366.344 138.887 363.68 132.021L343.956 140.013C345.453 143.873 350.88 158.506 355.24 170.293L347.997 169.506L345.717 190.477L369.897 191.694C370.279 191.736 370.66 191.756 371.039 191.756L371.038 191.756Z" fill="#091A2F"/>
<path d="M359.781 150.605L358.361 192.085L358.745 192.098L360.164 150.618L359.781 150.605Z" fill="#13335F"/>
<path d="M289.594 191.756C286.369 191.756 283.293 190.275 281.282 187.699C279.035 184.821 278.436 180.985 279.699 177.559C280.296 175.941 294.875 138.723 297.539 131.858L316.677 140.013C315.179 143.874 309.753 158.506 305.393 170.293L312.636 169.506L314.916 190.477L290.735 191.694C290.354 191.736 289.973 191.756 289.594 191.756L289.594 191.756Z" fill="#091A2F"/>
<path d="M305.348 167.833C305.327 167.833 305.305 167.83 305.284 167.823C305.173 167.788 305.111 167.669 305.147 167.558L310.267 151.438C310.303 151.327 310.421 151.266 310.532 151.301C310.643 151.336 310.705 151.455 310.67 151.566L305.549 167.686C305.52 167.776 305.437 167.833 305.348 167.833Z" fill="#13335F"/>
<path d="M370.97 160.258L366.813 192.175H301.45L305.759 159.086C306.054 156.824 307.981 155.131 310.262 155.131H366.464C367.083 155.131 367.671 155.255 368.205 155.477C370.036 156.236 371.242 158.155 370.97 160.258Z" fill="white"/>
<path d="M370.137 156.447C369.797 156.059 369.403 155.736 368.97 155.477C368.745 155.342 368.512 155.227 368.267 155.131C367.699 154.906 367.089 154.785 366.464 154.785H310.262C307.815 154.785 305.734 156.616 305.416 159.043L301.102 192.175H301.799L306.102 159.131C306.372 157.049 308.161 155.477 310.262 155.477H366.464C367.674 155.477 368.821 155.997 369.617 156.906C370.416 157.811 370.781 159.018 370.627 160.216L366.464 192.175H367.162L371.31 160.303C371.493 158.911 371.065 157.505 370.137 156.447Z" fill="#292A2E"/>
<path d="M374.784 160.258L370.627 192.175H305.265L309.573 159.086C309.79 157.432 310.875 156.085 312.338 155.477C312.875 155.252 313.463 155.131 314.076 155.131H370.281C373.02 155.131 375.138 157.541 374.784 160.258Z" fill="#292A2E"/>
<path d="M373.952 156.447C373.024 155.393 371.685 154.785 370.281 154.785H314.076C313.444 154.785 312.836 154.906 312.279 155.131C312.034 155.227 311.801 155.345 311.579 155.477C310.327 156.225 309.43 157.516 309.23 159.043L304.916 192.175H305.614L309.917 159.131C310.187 157.049 311.975 155.477 314.076 155.477H370.281C371.488 155.477 372.635 155.997 373.434 156.906C374.23 157.811 374.596 159.018 374.441 160.216L370.281 192.175H370.976L375.127 160.303C375.307 158.911 374.88 157.505 373.952 156.447Z" fill="#292A2E"/>
<path d="M279.049 181.379L279.953 157.599L292.448 156.938L293.584 181.379H279.049Z" fill="#091A2F"/>
<path d="M358.043 124.711H334.634C334.12 124.711 333.703 125.128 333.703 125.642V147.78C333.703 148.294 334.12 148.711 334.634 148.711H358.043C358.557 148.711 358.974 148.294 358.974 147.78V125.642C358.974 125.128 358.557 124.711 358.043 124.711Z" fill="#022C22"/>
<path d="M335.782 126.63C336.067 126.63 336.298 126.399 336.298 126.114C336.298 125.83 336.067 125.599 335.782 125.599C335.498 125.599 335.267 125.83 335.267 126.114C335.267 126.399 335.498 126.63 335.782 126.63Z" fill="white"/>
<path d="M337.914 126.63C338.199 126.63 338.43 126.399 338.43 126.114C338.43 125.83 338.199 125.599 337.914 125.599C337.63 125.599 337.399 125.83 337.399 126.114C337.399 126.399 337.63 126.63 337.914 126.63Z" fill="white"/>
<path d="M340.048 126.63C340.332 126.63 340.563 126.399 340.563 126.114C340.563 125.83 340.332 125.599 340.048 125.599C339.763 125.599 339.532 125.83 339.532 126.114C339.532 126.399 339.763 126.63 340.048 126.63Z" fill="white"/>
<path d="M343.769 141.062C343.676 141.062 343.585 141.028 343.514 140.967L339.792 137.749C339.716 137.683 339.668 137.59 339.658 137.49C339.649 137.39 339.678 137.29 339.741 137.211L342.55 133.665C342.615 133.584 342.709 133.531 342.812 133.52C342.915 133.508 343.018 133.537 343.1 133.602C343.181 133.666 343.233 133.76 343.245 133.863C343.257 133.966 343.227 134.07 343.163 134.151L340.586 137.404L344.025 140.377C344.084 140.429 344.127 140.498 344.146 140.575C344.166 140.652 344.161 140.733 344.134 140.807C344.106 140.882 344.056 140.946 343.991 140.991C343.926 141.037 343.849 141.061 343.769 141.062ZM349.61 141.062C349.531 141.062 349.453 141.037 349.387 140.992C349.322 140.946 349.272 140.882 349.244 140.807C349.216 140.733 349.212 140.651 349.232 140.574C349.252 140.497 349.294 140.428 349.355 140.376L352.793 137.403L350.214 134.151C350.182 134.111 350.159 134.064 350.145 134.015C350.131 133.966 350.126 133.914 350.132 133.863C350.138 133.812 350.154 133.763 350.179 133.718C350.204 133.673 350.238 133.633 350.278 133.602C350.318 133.57 350.364 133.546 350.413 133.532C350.463 133.518 350.515 133.514 350.566 133.52C350.617 133.525 350.666 133.541 350.711 133.566C350.756 133.591 350.795 133.625 350.827 133.665L353.636 137.211C353.698 137.29 353.728 137.39 353.719 137.49C353.709 137.59 353.661 137.683 353.585 137.749L349.863 140.967C349.793 141.028 349.703 141.061 349.61 141.062ZM345.89 141.261C345.83 141.261 345.771 141.247 345.717 141.221C345.663 141.194 345.616 141.156 345.58 141.108C345.543 141.061 345.518 141.005 345.507 140.946C345.495 140.887 345.497 140.827 345.513 140.769L347.473 133.488C347.5 133.387 347.566 133.302 347.656 133.25C347.746 133.198 347.853 133.185 347.953 133.212C348.054 133.239 348.139 133.305 348.191 133.395C348.243 133.485 348.256 133.592 348.229 133.692L346.267 140.972C346.245 141.055 346.196 141.128 346.128 141.18C346.06 141.233 345.976 141.261 345.89 141.261Z" fill="white"/>
<path d="M76.4156 131H36.5844C35.7094 131 35 131.709 35 132.584V170.253C35 171.128 35.7094 171.838 36.5844 171.838H76.4156C77.2906 171.838 78 171.128 78 170.253V132.584C78 131.709 77.2906 131 76.4156 131Z" fill="#022C22"/>
<path d="M38.5378 134.265C39.0221 134.265 39.4147 133.872 39.4147 133.388C39.4147 132.904 39.0221 132.511 38.5378 132.511C38.0534 132.511 37.6608 132.904 37.6608 133.388C37.6608 133.872 38.0534 134.265 38.5378 134.265Z" fill="white"/>
<path d="M42.166 134.265C42.6503 134.265 43.043 133.872 43.043 133.388C43.043 132.904 42.6503 132.511 42.166 132.511C41.6817 132.511 41.289 132.904 41.289 133.388C41.289 133.872 41.6817 134.265 42.166 134.265Z" fill="white"/>
<path d="M45.7955 134.265C46.2799 134.265 46.6725 133.872 46.6725 133.388C46.6725 132.904 46.2799 132.511 45.7955 132.511C45.3112 132.511 44.9186 132.904 44.9186 133.388C44.9186 133.872 45.3112 134.265 45.7955 134.265Z" fill="white"/>
<path d="M41.107 155.299V147H42.7793V150.266H46.0552V147H47.7275V155.299H46.0552V151.67H42.7793V155.299H41.107Z" fill="white"/>
<path d="M51.3214 155.299V148.404H48.8645V147H55.4451V148.404H52.9937V155.299H51.3214Z" fill="white"/>
<path d="M56.5013 155.299V147H59.0034L60.5057 152.661L61.9918 147H64.5011V155.299H62.9463V148.766L61.303 155.299H59.6922L58.0542 148.766V155.299H56.5013Z" fill="white"/>
<path d="M66.2078 155.298V147.067H67.8801V153.9H72.0382V155.298H66.2078Z" fill="white"/>
<path d="M75.7357 29H25.0174C23.9032 29 23 29.9032 23 31.0175V78.9826C23 80.0968 23.9032 81 25.0174 81H75.7357C76.8499 81 77.7531 80.0968 77.7531 78.9826V31.0175C77.7531 29.9032 76.8499 29 75.7357 29Z" fill="#022C22"/>
<path d="M27.5036 33.1572C28.1203 33.1572 28.6202 32.6572 28.6202 32.0405C28.6202 31.4238 28.1203 30.9238 27.5036 30.9238C26.8868 30.9238 26.3869 31.4238 26.3869 32.0405C26.3869 32.6572 26.8868 33.1572 27.5036 33.1572Z" fill="white"/>
<path d="M32.1239 33.1572C32.7406 33.1572 33.2406 32.6572 33.2406 32.0405C33.2406 31.4238 32.7406 30.9238 32.1239 30.9238C31.5072 30.9238 31.0072 31.4238 31.0072 32.0405C31.0072 32.6572 31.5072 33.1572 32.1239 33.1572Z" fill="white"/>
<path d="M36.7457 33.1572C37.3625 33.1572 37.8624 32.6572 37.8624 32.0405C37.8624 31.4238 37.3625 30.9238 36.7457 30.9238C36.129 30.9238 35.6291 31.4238 35.6291 32.0405C35.6291 32.6572 36.129 33.1572 36.7457 33.1572Z" fill="white"/>
<path d="M39.7689 58.522L42.7555 59.4712C42.2967 61.1381 41.536 62.3779 40.4704 63.1876C39.4048 63.9974 38.055 64.4037 36.4182 64.4037C34.3935 64.4037 32.727 63.7097 31.4217 62.3245C30.1163 60.9364 29.4651 59.0411 29.4651 56.6356C29.4651 54.0908 30.1193 52.1154 31.4306 50.7065C32.7419 49.2976 34.4646 48.5947 36.6017 48.5947C38.4694 48.5947 39.9849 49.1463 41.1482 50.2527C41.8409 50.9052 42.3618 51.8455 42.7081 53.0675L39.6593 53.7971C39.4788 53.0052 39.1029 52.3793 38.5316 51.9196C37.9603 51.4599 37.2647 51.2315 36.4448 51.2315C35.3141 51.2315 34.3965 51.6378 33.692 52.4505C32.9875 53.2632 32.6353 54.5802 32.6353 56.4013C32.6353 58.3352 32.9816 59.7114 33.6772 60.5301C34.3698 61.3517 35.2726 61.761 36.3826 61.761C37.2026 61.761 37.9041 61.4999 38.4961 60.9779C39.0851 60.4559 39.5084 59.6373 39.7659 58.5161L39.7689 58.522Z" fill="white"/>
<path d="M44.6182 59.1679L47.6137 58.8742C47.7943 59.8827 48.1613 60.6242 48.7119 61.0958C49.2625 61.5674 50.0084 61.8047 50.9437 61.8047C51.9353 61.8047 52.6842 61.5941 53.1874 61.1729C53.6906 60.7517 53.9422 60.2594 53.9422 59.6988C53.9422 59.3369 53.8356 59.0285 53.6255 58.7763C53.4153 58.5213 53.0453 58.3018 52.5185 58.1149C52.1573 57.9903 51.3344 57.7679 50.0528 57.4476C48.4011 57.0382 47.2437 56.534 46.5777 55.9349C45.6424 55.0925 45.1718 54.0692 45.1718 52.8591C45.1718 52.082 45.3908 51.3523 45.8318 50.6761C46.2729 49.9998 46.9063 49.4837 47.7351 49.1278C48.5639 48.7748 49.5644 48.5969 50.7365 48.5969C52.6516 48.5969 54.0932 49.018 55.0611 49.8574C56.029 50.6998 56.5381 51.821 56.5855 53.2269L53.5041 53.3633C53.3709 52.5773 53.0897 52.0138 52.6546 51.6697C52.2225 51.3256 51.5713 51.1536 50.704 51.1536C49.8367 51.1536 49.1085 51.3375 48.6024 51.7053C48.2768 51.9426 48.114 52.257 48.114 52.6544C48.114 53.0163 48.2679 53.3247 48.5728 53.5828C48.9605 53.9091 49.9048 54.2502 51.4025 54.6061C52.9003 54.962 54.0103 55.3268 54.7266 55.7065C55.4459 56.0861 56.0053 56.6022 56.4138 57.2607C56.8193 57.9162 57.0235 58.7289 57.0235 59.6958C57.0235 60.5708 56.7808 61.3924 56.2954 62.1576C55.81 62.9229 55.1232 63.4894 54.2352 63.8631C53.3472 64.2339 52.2402 64.4207 50.9141 64.4207C48.9842 64.4207 47.5042 63.9729 46.4712 63.0801C45.4382 62.1873 44.8195 60.8852 44.6182 59.1738V59.1679Z" fill="white"/>
<path d="M58.8328 59.1679L61.8284 58.8742C62.0089 59.8827 62.3759 60.6242 62.9265 61.0958C63.4771 61.5674 64.223 61.8047 65.1583 61.8047C66.1499 61.8047 66.8988 61.5941 67.402 61.1729C67.9052 60.7517 68.1568 60.2594 68.1568 59.6988C68.1568 59.3369 68.0503 59.0285 67.8401 58.7763C67.627 58.5213 67.2599 58.3018 66.733 58.1149C66.3719 57.9903 65.5491 57.7679 64.2674 57.4476C62.6157 57.0382 61.4584 56.534 60.7924 55.9349C59.857 55.0925 59.3864 54.0692 59.3864 52.8591C59.3864 52.082 59.6054 51.3523 60.0464 50.6761C60.4875 49.9998 61.1209 49.4837 61.9497 49.1278C62.7785 48.7748 63.779 48.5969 64.9511 48.5969C66.8663 48.5969 68.3078 49.018 69.2757 49.8574C70.2436 50.6998 70.7527 51.821 70.8001 53.2269L67.7187 53.3633C67.5855 52.5773 67.3043 52.0138 66.8692 51.6697C66.4371 51.3256 65.7859 51.1536 64.9186 51.1536C64.0513 51.1536 63.3231 51.3375 62.817 51.7053C62.4914 51.9426 62.3286 52.257 62.3286 52.6544C62.3286 53.0163 62.4825 53.3247 62.7874 53.5828C63.1752 53.9091 64.1194 54.2502 65.6171 54.6061C67.1149 54.962 68.2249 55.3268 68.9412 55.7065C69.6605 56.0861 70.2199 56.6022 70.6284 57.2607C71.0339 57.9162 71.2382 58.7289 71.2382 59.6958C71.2382 60.5708 70.9954 61.3924 70.51 62.1576C70.0246 62.9229 69.3379 63.4894 68.4499 63.8631C67.5619 64.2339 66.4548 64.4207 65.1317 64.4207C63.2018 64.4207 61.7218 63.9729 60.6888 63.0801C59.6557 62.1873 59.0371 60.8852 58.8358 59.1738L58.8328 59.1679Z" fill="white"/>
<rect x="94" y="26" width="61.913" height="16" rx="0.695652" fill="#FDC500"/>
<path d="M98.8696 31.671H100.361V32.4501H100.383C100.591 32.1533 100.84 31.9233 101.129 31.76C101.426 31.5968 101.763 31.5151 102.142 31.5151C102.506 31.5151 102.836 31.5856 103.133 31.7266C103.437 31.8676 103.667 32.1162 103.823 32.4724C103.993 32.2201 104.223 31.9975 104.513 31.8045C104.81 31.6116 105.158 31.5151 105.559 31.5151C105.863 31.5151 106.145 31.5522 106.405 31.6264C106.665 31.7006 106.887 31.8194 107.073 31.9826C107.258 32.1459 107.403 32.3611 107.507 32.6282C107.611 32.8879 107.663 33.2033 107.663 33.5743V37.4254H106.082V34.1642C106.082 33.9713 106.075 33.7895 106.06 33.6188C106.045 33.4481 106.004 33.2997 105.937 33.1736C105.871 33.0474 105.77 32.9473 105.637 32.8731C105.511 32.7989 105.336 32.7617 105.114 32.7617C104.891 32.7617 104.709 32.8063 104.568 32.8953C104.435 32.9769 104.327 33.0882 104.246 33.2292C104.171 33.3628 104.119 33.5186 104.09 33.6967C104.067 33.8674 104.056 34.0418 104.056 34.2198V37.4254H102.476V34.1976C102.476 34.0269 102.472 33.86 102.465 33.6967C102.457 33.526 102.424 33.3702 102.365 33.2292C102.313 33.0882 102.22 32.9769 102.086 32.8953C101.96 32.8063 101.771 32.7617 101.519 32.7617C101.444 32.7617 101.344 32.7803 101.218 32.8174C101.099 32.8471 100.981 32.9102 100.862 33.0066C100.751 33.0957 100.654 33.2292 100.573 33.4073C100.491 33.578 100.45 33.8043 100.45 34.0863V37.4254H98.8696V31.671Z" fill="black"/>
<path d="M110.092 34.5538C110.092 34.7838 110.114 35.0101 110.159 35.2327C110.203 35.4479 110.277 35.6445 110.381 35.8226C110.493 35.9933 110.637 36.1306 110.815 36.2344C110.993 36.3383 111.216 36.3903 111.483 36.3903C111.75 36.3903 111.973 36.3383 112.151 36.2344C112.336 36.1306 112.481 35.9933 112.585 35.8226C112.696 35.6445 112.774 35.4479 112.819 35.2327C112.863 35.0101 112.886 34.7838 112.886 34.5538C112.886 34.3237 112.863 34.0974 112.819 33.8748C112.774 33.6522 112.696 33.4555 112.585 33.2849C112.481 33.1142 112.336 32.9769 112.151 32.8731C111.973 32.7618 111.75 32.7061 111.483 32.7061C111.216 32.7061 110.993 32.7618 110.815 32.8731C110.637 32.9769 110.493 33.1142 110.381 33.2849C110.277 33.4555 110.203 33.6522 110.159 33.8748C110.114 34.0974 110.092 34.3237 110.092 34.5538ZM108.511 34.5538C108.511 34.0937 108.582 33.6782 108.723 33.3071C108.864 32.9287 109.064 32.6096 109.324 32.3499C109.584 32.0828 109.895 31.8787 110.259 31.7377C110.622 31.5893 111.03 31.5151 111.483 31.5151C111.936 31.5151 112.344 31.5893 112.707 31.7377C113.078 31.8787 113.394 32.0828 113.654 32.3499C113.913 32.6096 114.114 32.9287 114.255 33.3071C114.396 33.6782 114.466 34.0937 114.466 34.5538C114.466 35.0138 114.396 35.4293 114.255 35.8004C114.114 36.1714 113.913 36.4904 113.654 36.7576C113.394 37.0173 113.078 37.2176 112.707 37.3586C112.344 37.4996 111.936 37.5701 111.483 37.5701C111.03 37.5701 110.622 37.4996 110.259 37.3586C109.895 37.2176 109.584 37.0173 109.324 36.7576C109.064 36.4904 108.864 36.1714 108.723 35.8004C108.582 35.4293 108.511 35.0138 108.511 34.5538Z" fill="black"/>
<path d="M115.271 31.671H116.774V32.4724H116.807C117.007 32.1384 117.267 31.8973 117.586 31.7489C117.905 31.5931 118.232 31.5151 118.566 31.5151C118.989 31.5151 119.334 31.5745 119.601 31.6932C119.875 31.8045 120.091 31.9641 120.246 32.1718C120.402 32.3722 120.51 32.6208 120.569 32.9176C120.636 33.207 120.669 33.5297 120.669 33.8859V37.4254H119.089V34.1753C119.089 33.7004 119.015 33.348 118.866 33.1179C118.718 32.8805 118.454 32.7617 118.076 32.7617C117.646 32.7617 117.334 32.8916 117.141 33.1513C116.948 33.4036 116.852 33.8229 116.852 34.4091V37.4254H115.271V31.671Z" fill="black"/>
<path d="M124.329 36.0675C124.551 36.0675 124.748 36.023 124.919 35.9339C125.089 35.8449 125.23 35.7262 125.342 35.5778C125.453 35.4293 125.535 35.2624 125.587 35.0769C125.646 34.884 125.676 34.6836 125.676 34.4758C125.676 34.2384 125.653 34.0158 125.609 33.808C125.564 33.5928 125.49 33.4036 125.386 33.2404C125.282 33.0771 125.145 32.9473 124.974 32.8508C124.804 32.7543 124.588 32.7061 124.329 32.7061C124.106 32.7061 123.913 32.7506 123.75 32.8397C123.594 32.9287 123.461 33.0511 123.349 33.207C123.245 33.3554 123.168 33.5297 123.116 33.7301C123.071 33.923 123.049 34.1271 123.049 34.3423C123.049 34.55 123.067 34.7578 123.104 34.9656C123.149 35.1659 123.219 35.3477 123.316 35.511C123.42 35.6742 123.553 35.8078 123.717 35.9117C123.88 36.0155 124.084 36.0675 124.329 36.0675ZM127.178 37.0581C127.178 37.2881 127.145 37.5515 127.078 37.8484C127.019 38.1452 126.885 38.4197 126.677 38.672C126.47 38.9317 126.169 39.1506 125.776 39.3287C125.382 39.5068 124.856 39.5958 124.195 39.5958C123.913 39.5958 123.624 39.5587 123.327 39.4845C123.038 39.4178 122.771 39.3102 122.526 39.1618C122.288 39.0133 122.088 38.8204 121.925 38.583C121.769 38.3529 121.68 38.0747 121.657 37.7482H123.227C123.301 38.045 123.446 38.2491 123.661 38.3604C123.876 38.4791 124.125 38.5384 124.407 38.5384C124.852 38.5384 125.175 38.4049 125.375 38.1378C125.583 37.8706 125.683 37.533 125.676 37.1249V36.368H125.653C125.483 36.6722 125.238 36.8986 124.919 37.047C124.607 37.188 124.277 37.2584 123.928 37.2584C123.498 37.2584 123.127 37.1842 122.815 37.0358C122.503 36.88 122.247 36.6722 122.047 36.4125C121.847 36.1454 121.698 35.8375 121.602 35.4887C121.513 35.1325 121.468 34.7578 121.468 34.3645C121.468 33.9935 121.52 33.6373 121.624 33.296C121.735 32.9473 121.895 32.643 122.103 32.3833C122.31 32.1162 122.566 31.9047 122.871 31.7489C123.182 31.5931 123.539 31.5151 123.939 31.5151C124.318 31.5151 124.648 31.5856 124.93 31.7266C125.219 31.8676 125.46 32.1051 125.653 32.439H125.676V31.671H127.178V37.0581Z" fill="black"/>
<path d="M129.631 34.5538C129.631 34.7838 129.653 35.0101 129.697 35.2327C129.742 35.4479 129.816 35.6445 129.92 35.8226C130.031 35.9933 130.176 36.1306 130.354 36.2344C130.532 36.3383 130.755 36.3903 131.022 36.3903C131.289 36.3903 131.512 36.3383 131.69 36.2344C131.875 36.1306 132.02 35.9933 132.124 35.8226C132.235 35.6445 132.313 35.4479 132.357 35.2327C132.402 35.0101 132.424 34.7838 132.424 34.5538C132.424 34.3237 132.402 34.0974 132.357 33.8748C132.313 33.6522 132.235 33.4555 132.124 33.2849C132.02 33.1142 131.875 32.9769 131.69 32.8731C131.512 32.7618 131.289 32.7061 131.022 32.7061C130.755 32.7061 130.532 32.7618 130.354 32.8731C130.176 32.9769 130.031 33.1142 129.92 33.2849C129.816 33.4555 129.742 33.6522 129.697 33.8748C129.653 34.0974 129.631 34.3237 129.631 34.5538ZM128.05 34.5538C128.05 34.0937 128.12 33.6782 128.261 33.3071C128.402 32.9287 128.603 32.6096 128.863 32.3499C129.122 32.0828 129.434 31.8787 129.797 31.7377C130.161 31.5893 130.569 31.5151 131.022 31.5151C131.474 31.5151 131.883 31.5893 132.246 31.7377C132.617 31.8787 132.933 32.0828 133.192 32.3499C133.452 32.6096 133.652 32.9287 133.793 33.3071C133.934 33.6782 134.005 34.0937 134.005 34.5538C134.005 35.0138 133.934 35.4293 133.793 35.8004C133.652 36.1714 133.452 36.4904 133.192 36.7576C132.933 37.0173 132.617 37.2176 132.246 37.3586C131.883 37.4996 131.474 37.5701 131.022 37.5701C130.569 37.5701 130.161 37.4996 129.797 37.3586C129.434 37.2176 129.122 37.0173 128.863 36.7576C128.603 36.4904 128.402 36.1714 128.261 35.8004C128.12 35.4293 128.05 35.0138 128.05 34.5538Z" fill="black"/>
<path d="M136.724 35.9562H138.283C138.535 35.9562 138.78 35.9154 139.017 35.8338C139.255 35.7521 139.466 35.6186 139.652 35.4331C139.837 35.2401 139.985 34.9915 140.097 34.6873C140.208 34.3831 140.264 34.0121 140.264 33.5743C140.264 33.1736 140.223 32.8137 140.141 32.4946C140.067 32.1681 139.941 31.8899 139.763 31.6598C139.585 31.4298 139.347 31.2554 139.051 31.1367C138.761 31.0106 138.401 30.9475 137.971 30.9475H136.724V35.9562ZM134.977 29.4783H138.405C138.917 29.4783 139.392 29.5599 139.83 29.7231C140.275 29.8864 140.657 30.1313 140.976 30.4577C141.303 30.7842 141.555 31.1924 141.733 31.6821C141.918 32.1718 142.011 32.7469 142.011 33.4073C142.011 33.9861 141.937 34.5204 141.789 35.0101C141.64 35.4998 141.414 35.9228 141.11 36.279C140.813 36.6351 140.438 36.9171 139.985 37.1249C139.54 37.3252 139.013 37.4254 138.405 37.4254H134.977V29.4783Z" fill="black"/>
<path d="M144.752 32.695H146.521C146.833 32.695 147.089 32.6208 147.289 32.4724C147.49 32.324 147.59 32.0828 147.59 31.7489C147.59 31.5634 147.557 31.4113 147.49 31.2925C147.423 31.1738 147.334 31.0811 147.223 31.0143C147.111 30.9475 146.981 30.903 146.833 30.8807C146.692 30.851 146.544 30.8362 146.388 30.8362H144.752V32.695ZM143.004 29.4783H146.744C147.122 29.4783 147.467 29.5117 147.779 29.5784C148.091 29.6452 148.358 29.7565 148.581 29.9124C148.803 30.0608 148.974 30.2611 149.093 30.5134C149.219 30.7657 149.282 31.0773 149.282 31.4484C149.282 31.8491 149.189 32.183 149.003 32.4501C148.825 32.7172 148.558 32.9361 148.202 33.1068C148.692 33.2478 149.055 33.4964 149.293 33.8525C149.538 34.2013 149.66 34.6242 149.66 35.1214C149.66 35.5221 149.582 35.8709 149.426 36.1677C149.271 36.4571 149.059 36.6945 148.792 36.88C148.532 37.0655 148.232 37.2028 147.89 37.2918C147.557 37.3809 147.211 37.4254 146.855 37.4254H143.004V29.4783ZM144.752 36.0675H146.622C146.792 36.0675 146.955 36.0526 147.111 36.023C147.267 35.9859 147.404 35.9302 147.523 35.856C147.642 35.7744 147.735 35.6668 147.801 35.5332C147.876 35.3997 147.913 35.229 147.913 35.0212C147.913 34.6131 147.798 34.3237 147.568 34.1531C147.338 33.975 147.033 33.8859 146.655 33.8859H144.752V36.0675Z" fill="black"/>
<rect x="144.9" y="62.7188" width="51.2" height="16" rx="0.556522" fill="#FDC500"/>
<path d="M149.7 66.8679H154.385V68.0258H151.078V69.3679H154.113V70.438H151.078V71.9731H154.455V73.131H149.7V66.8679Z" fill="black"/>
<path d="M156.239 70.7451L154.748 68.5959H156.169L156.967 69.7802L157.757 68.5959H159.134L157.643 70.7188L159.318 73.131H157.897L156.95 71.7012L156.002 73.131H154.608L156.239 70.7451Z" fill="black"/>
<path d="M161.907 72.3152C162.112 72.3152 162.281 72.2743 162.416 72.1924C162.556 72.1106 162.667 72.0053 162.749 71.8766C162.837 71.7421 162.898 71.5872 162.933 71.4117C162.968 71.2363 162.986 71.0579 162.986 70.8766C162.986 70.6954 162.965 70.517 162.924 70.3416C162.889 70.1661 162.828 70.0111 162.74 69.8766C162.653 69.7363 162.539 69.6252 162.398 69.5433C162.264 69.4556 162.097 69.4117 161.898 69.4117C161.693 69.4117 161.521 69.4556 161.381 69.5433C161.246 69.6252 161.135 69.7334 161.047 69.8679C160.965 70.0024 160.907 70.1573 160.872 70.3328C160.837 70.5082 160.819 70.6895 160.819 70.8766C160.819 71.0579 160.837 71.2363 160.872 71.4117C160.913 71.5872 160.974 71.7421 161.056 71.8766C161.144 72.0053 161.258 72.1106 161.398 72.1924C161.539 72.2743 161.708 72.3152 161.907 72.3152ZM159.617 68.5959H160.802V69.1749H160.819C160.971 68.9293 161.164 68.7509 161.398 68.6398C161.632 68.5287 161.889 68.4731 162.17 68.4731C162.527 68.4731 162.834 68.5404 163.091 68.6749C163.348 68.8094 163.562 68.9878 163.732 69.21C163.901 69.4322 164.027 69.6924 164.109 69.9907C164.191 70.2831 164.232 70.5901 164.232 70.9117C164.232 71.2158 164.191 71.5082 164.109 71.7889C164.027 72.0696 163.901 72.3182 163.732 72.5345C163.568 72.7509 163.36 72.9234 163.109 73.0521C162.863 73.1807 162.574 73.2451 162.24 73.2451C161.96 73.2451 161.699 73.1895 161.46 73.0784C161.226 72.9614 161.033 72.7918 160.881 72.5696H160.863V74.7188H159.617V68.5959Z" fill="black"/>
<path d="M164.805 68.5959H165.989V69.438H166.006C166.065 69.2977 166.144 69.169 166.243 69.0521C166.343 68.9293 166.457 68.8269 166.585 68.7451C166.714 68.6573 166.851 68.5901 166.998 68.5433C167.144 68.4965 167.296 68.4731 167.454 68.4731C167.536 68.4731 167.626 68.4878 167.726 68.517V69.6749C167.667 69.6632 167.597 69.6544 167.515 69.6486C167.433 69.6369 167.354 69.631 167.278 69.631C167.05 69.631 166.857 69.669 166.699 69.7451C166.541 69.8211 166.413 69.9264 166.313 70.0609C166.22 70.1895 166.153 70.3416 166.112 70.517C166.071 70.6924 166.05 70.8825 166.05 71.0872V73.131H164.805V68.5959Z" fill="black"/>
<path d="M170.937 70.3766C170.878 70.0609 170.773 69.8211 170.621 69.6573C170.475 69.4936 170.25 69.4117 169.946 69.4117C169.747 69.4117 169.58 69.4468 169.446 69.517C169.317 69.5813 169.212 69.6632 169.13 69.7626C169.054 69.862 168.998 69.9673 168.963 70.0784C168.934 70.1895 168.916 70.2889 168.911 70.3766H170.937ZM168.911 71.1661C168.928 71.5696 169.031 71.862 169.218 72.0433C169.405 72.2246 169.674 72.3152 170.025 72.3152C170.276 72.3152 170.493 72.2538 170.674 72.131C170.855 72.0024 170.966 71.8679 171.007 71.7275H172.104C171.928 72.2714 171.659 72.6603 171.297 72.8942C170.934 73.1281 170.495 73.2451 169.981 73.2451C169.624 73.2451 169.302 73.1895 169.016 73.0784C168.729 72.9614 168.487 72.7977 168.288 72.5872C168.089 72.3766 167.934 72.1252 167.823 71.8328C167.718 71.5404 167.665 71.2188 167.665 70.8679C167.665 70.5287 167.721 70.2129 167.832 69.9205C167.943 69.6281 168.101 69.3766 168.305 69.1661C168.51 68.9497 168.753 68.7802 169.033 68.6573C169.32 68.5345 169.636 68.4731 169.981 68.4731C170.367 68.4731 170.703 68.5492 170.99 68.7012C171.276 68.8474 171.51 69.0462 171.691 69.2977C171.878 69.5492 172.013 69.8357 172.095 70.1573C172.177 70.479 172.206 70.8152 172.183 71.1661H168.911Z" fill="black"/>
<path d="M173.711 71.6573C173.711 71.7918 173.737 71.9088 173.79 72.0082C173.848 72.1018 173.921 72.1807 174.009 72.2451C174.097 72.3035 174.196 72.3474 174.307 72.3766C174.424 72.4059 174.544 72.4205 174.667 72.4205C174.755 72.4205 174.845 72.4117 174.939 72.3942C175.038 72.3708 175.126 72.3386 175.202 72.2977C175.284 72.2509 175.351 72.1924 175.404 72.1223C175.456 72.0462 175.483 71.9527 175.483 71.8416C175.483 71.6544 175.357 71.5141 175.106 71.4205C174.86 71.3269 174.515 71.2334 174.07 71.1398C173.889 71.0989 173.711 71.0521 173.535 70.9995C173.366 70.941 173.214 70.8679 173.079 70.7802C172.945 70.6866 172.837 70.5726 172.755 70.438C172.673 70.2977 172.632 70.1281 172.632 69.9293C172.632 69.6369 172.687 69.3971 172.799 69.21C172.915 69.0228 173.068 68.8766 173.255 68.7714C173.442 68.6603 173.652 68.5842 173.886 68.5433C174.12 68.4965 174.36 68.4731 174.606 68.4731C174.851 68.4731 175.088 68.4965 175.316 68.5433C175.55 68.5901 175.758 68.669 175.939 68.7802C176.12 68.8913 176.269 69.0404 176.386 69.2275C176.509 69.4088 176.582 69.6398 176.606 69.9205H175.421C175.404 69.6807 175.313 69.5199 175.149 69.438C174.986 69.3503 174.793 69.3065 174.57 69.3065C174.5 69.3065 174.424 69.3123 174.342 69.324C174.261 69.3299 174.184 69.3474 174.114 69.3766C174.05 69.4059 173.994 69.4497 173.948 69.5082C173.901 69.5609 173.877 69.634 173.877 69.7275C173.877 69.8386 173.918 69.9293 174 69.9995C174.082 70.0696 174.187 70.1281 174.316 70.1749C174.451 70.2158 174.603 70.2538 174.772 70.2889C174.942 70.324 175.114 70.362 175.29 70.403C175.471 70.4439 175.646 70.4936 175.816 70.5521C175.992 70.6106 176.146 70.6895 176.281 70.7889C176.415 70.8825 176.524 71.0024 176.606 71.1486C176.687 71.2889 176.728 71.4644 176.728 71.6749C176.728 71.9731 176.667 72.2246 176.544 72.4293C176.427 72.6281 176.272 72.7889 176.079 72.9117C175.886 73.0345 175.664 73.1193 175.413 73.1661C175.167 73.2188 174.915 73.2451 174.658 73.2451C174.395 73.2451 174.138 73.2188 173.886 73.1661C173.635 73.1135 173.41 73.0258 173.211 72.903C173.018 72.7802 172.857 72.6193 172.728 72.4205C172.606 72.2158 172.538 71.9614 172.527 71.6573H173.711Z" fill="black"/>
<path d="M178.247 71.6573C178.247 71.7918 178.273 71.9088 178.326 72.0082C178.384 72.1018 178.457 72.1807 178.545 72.2451C178.633 72.3035 178.732 72.3474 178.843 72.3766C178.96 72.4059 179.08 72.4205 179.203 72.4205C179.291 72.4205 179.381 72.4117 179.475 72.3942C179.574 72.3708 179.662 72.3386 179.738 72.2977C179.82 72.2509 179.887 72.1924 179.94 72.1223C179.992 72.0462 180.019 71.9527 180.019 71.8416C180.019 71.6544 179.893 71.5141 179.642 71.4205C179.396 71.3269 179.051 71.2334 178.607 71.1398C178.425 71.0989 178.247 71.0521 178.071 70.9995C177.902 70.941 177.75 70.8679 177.615 70.7802C177.481 70.6866 177.373 70.5726 177.291 70.438C177.209 70.2977 177.168 70.1281 177.168 69.9293C177.168 69.6369 177.223 69.3971 177.335 69.21C177.452 69.0228 177.604 68.8766 177.791 68.7714C177.978 68.6603 178.188 68.5842 178.422 68.5433C178.656 68.4965 178.896 68.4731 179.142 68.4731C179.387 68.4731 179.624 68.4965 179.852 68.5433C180.086 68.5901 180.294 68.669 180.475 68.7802C180.656 68.8913 180.805 69.0404 180.922 69.2275C181.045 69.4088 181.118 69.6398 181.142 69.9205H179.957C179.94 69.6807 179.849 69.5199 179.685 69.438C179.522 69.3503 179.329 69.3065 179.107 69.3065C179.036 69.3065 178.96 69.3123 178.878 69.324C178.797 69.3299 178.721 69.3474 178.65 69.3766C178.586 69.4059 178.53 69.4497 178.484 69.5082C178.437 69.5609 178.414 69.634 178.414 69.7275C178.414 69.8386 178.454 69.9293 178.536 69.9995C178.618 70.0696 178.723 70.1281 178.852 70.1749C178.987 70.2158 179.139 70.2538 179.308 70.2889C179.478 70.324 179.65 70.362 179.826 70.403C180.007 70.4439 180.183 70.4936 180.352 70.5521C180.528 70.6106 180.683 70.6895 180.817 70.7889C180.952 70.8825 181.06 71.0024 181.142 71.1486C181.223 71.2889 181.264 71.4644 181.264 71.6749C181.264 71.9731 181.203 72.2246 181.08 72.4293C180.963 72.6281 180.808 72.7889 180.615 72.9117C180.422 73.0345 180.2 73.1193 179.949 73.1661C179.703 73.2188 179.452 73.2451 179.194 73.2451C178.931 73.2451 178.674 73.2188 178.422 73.1661C178.171 73.1135 177.946 73.0258 177.747 72.903C177.554 72.7802 177.393 72.6193 177.264 72.4205C177.142 72.2158 177.074 71.9614 177.063 71.6573H178.247Z" fill="black"/>
<path d="M185.616 71.1573C185.616 71.362 185.596 71.5872 185.555 71.8328C185.514 72.0784 185.42 72.3094 185.274 72.5258C185.128 72.7363 184.917 72.9147 184.643 73.0609C184.368 73.2012 183.996 73.2714 183.529 73.2714C183.265 73.2714 183.011 73.2334 182.765 73.1573C182.52 73.0872 182.3 72.9761 182.107 72.824C181.914 72.6661 181.76 72.4673 181.643 72.2275C181.526 71.9819 181.467 71.6866 181.467 71.3416V70.7977H182.713V71.0784C182.713 71.2304 182.724 71.3708 182.748 71.4995C182.771 71.6281 182.812 71.7392 182.871 71.8328C182.929 71.9205 183.008 71.9907 183.107 72.0433C183.213 72.0959 183.347 72.1223 183.511 72.1223C183.692 72.1223 183.833 72.0901 183.932 72.0258C184.031 71.9614 184.102 71.8796 184.143 71.7802C184.189 71.6749 184.216 71.5638 184.222 71.4468C184.233 71.324 184.239 71.2071 184.239 71.0959V66.8679H185.616V71.1573Z" fill="black"/>
<path d="M187.587 71.0521C187.587 71.2626 187.625 71.441 187.701 71.5872C187.777 71.7334 187.876 71.8533 187.999 71.9468C188.128 72.0345 188.277 72.1018 188.447 72.1486C188.616 72.1895 188.792 72.21 188.973 72.21C189.096 72.21 189.227 72.2012 189.368 72.1837C189.508 72.1603 189.64 72.1193 189.762 72.0609C189.885 72.0024 189.988 71.9234 190.069 71.824C190.151 71.7188 190.192 71.5872 190.192 71.4293C190.192 71.2597 190.137 71.1223 190.026 71.017C189.92 70.9117 189.78 70.824 189.605 70.7538C189.429 70.6837 189.23 70.6223 189.008 70.5696C188.786 70.517 188.561 70.4585 188.333 70.3942C188.099 70.3357 187.871 70.2655 187.648 70.1837C187.426 70.0959 187.227 69.9848 187.052 69.8503C186.876 69.7158 186.733 69.5492 186.622 69.3503C186.517 69.1457 186.464 68.9 186.464 68.6135C186.464 68.2918 186.531 68.0141 186.666 67.7802C186.806 67.5404 186.988 67.3416 187.21 67.1837C187.432 67.0258 187.683 66.9088 187.964 66.8328C188.245 66.7568 188.526 66.7188 188.806 66.7188C189.134 66.7188 189.447 66.7568 189.745 66.8328C190.049 66.903 190.318 67.0199 190.552 67.1837C190.786 67.3474 190.97 67.5579 191.105 67.8152C191.245 68.0667 191.315 68.3737 191.315 68.7363H189.982C189.97 68.5492 189.929 68.3942 189.859 68.2714C189.795 68.1486 189.707 68.0521 189.596 67.9819C189.485 67.9117 189.356 67.862 189.21 67.8328C189.069 67.8035 188.914 67.7889 188.745 67.7889C188.634 67.7889 188.523 67.8006 188.412 67.824C188.3 67.8474 188.198 67.8883 188.105 67.9468C188.017 68.0053 187.944 68.0784 187.885 68.1661C187.827 68.2538 187.798 68.3649 187.798 68.4995C187.798 68.6223 187.821 68.7217 187.868 68.7977C187.914 68.8737 188.005 68.9439 188.14 69.0082C188.28 69.0726 188.47 69.1369 188.71 69.2012C188.955 69.2655 189.274 69.3474 189.666 69.4468C189.783 69.4702 189.944 69.5141 190.148 69.5784C190.359 69.6369 190.567 69.7334 190.771 69.8679C190.976 70.0024 191.151 70.1837 191.298 70.4117C191.45 70.634 191.526 70.9205 191.526 71.2714C191.526 71.5579 191.47 71.824 191.359 72.0696C191.248 72.3152 191.081 72.5287 190.859 72.71C190.643 72.8854 190.371 73.0228 190.043 73.1223C189.721 73.2217 189.347 73.2714 188.92 73.2714C188.575 73.2714 188.239 73.2275 187.912 73.1398C187.59 73.0579 187.303 72.9264 187.052 72.7451C186.806 72.5638 186.61 72.3328 186.464 72.0521C186.318 71.7714 186.248 71.438 186.254 71.0521H187.587Z" fill="black"/>
<rect x="65.5" y="92.7188" width="64" height="20" rx="0.695652" fill="#FDC500"/>
<path d="M76.884 102.08H78.948C79.38 102.08 79.704 101.984 79.92 101.792C80.136 101.6 80.244 101.288 80.244 100.856C80.244 100.44 80.136 100.14 79.92 99.956C79.704 99.764 79.38 99.668 78.948 99.668H76.884V102.08ZM75 98.204H79.62C80.004 98.204 80.348 98.268 80.652 98.396C80.964 98.516 81.228 98.684 81.444 98.9C81.668 99.116 81.836 99.368 81.948 99.656C82.068 99.936 82.128 100.24 82.128 100.568C82.128 101.072 82.02 101.508 81.804 101.876C81.596 102.244 81.252 102.524 80.772 102.716V102.74C81.004 102.804 81.196 102.904 81.348 103.04C81.5 103.168 81.624 103.324 81.72 103.508C81.816 103.684 81.884 103.88 81.924 104.096C81.972 104.312 82.004 104.528 82.02 104.744C82.028 104.88 82.036 105.04 82.044 105.224C82.052 105.408 82.064 105.596 82.08 105.788C82.104 105.98 82.136 106.164 82.176 106.34C82.224 106.508 82.292 106.652 82.38 106.772H80.496C80.392 106.5 80.328 106.176 80.304 105.8C80.28 105.424 80.244 105.064 80.196 104.72C80.132 104.272 79.996 103.944 79.788 103.736C79.58 103.528 79.24 103.424 78.768 103.424H76.884V106.772H75V98.204Z" fill="black"/>
<path d="M87.4162 103.004C87.3362 102.572 87.1922 102.244 86.9842 102.02C86.7842 101.796 86.4762 101.684 86.0602 101.684C85.7882 101.684 85.5602 101.732 85.3762 101.828C85.2002 101.916 85.0562 102.028 84.9442 102.164C84.8402 102.3 84.7642 102.444 84.7162 102.596C84.6762 102.748 84.6522 102.884 84.6442 103.004H87.4162ZM84.6442 104.084C84.6682 104.636 84.8082 105.036 85.0642 105.284C85.3202 105.532 85.6882 105.656 86.1682 105.656C86.5122 105.656 86.8082 105.572 87.0562 105.404C87.3042 105.228 87.4562 105.044 87.5122 104.852H89.0122C88.7722 105.596 88.4042 106.128 87.9082 106.448C87.4122 106.768 86.8122 106.928 86.1082 106.928C85.6202 106.928 85.1802 106.852 84.7882 106.7C84.3962 106.54 84.0642 106.316 83.7922 106.028C83.5202 105.74 83.3082 105.396 83.1562 104.996C83.0122 104.596 82.9402 104.156 82.9402 103.676C82.9402 103.212 83.0162 102.78 83.1682 102.38C83.3202 101.98 83.5362 101.636 83.8162 101.348C84.0962 101.052 84.4282 100.82 84.8122 100.652C85.2042 100.484 85.6362 100.4 86.1082 100.4C86.6362 100.4 87.0962 100.504 87.4882 100.712C87.8802 100.912 88.2002 101.184 88.4482 101.528C88.7042 101.872 88.8882 102.264 89.0002 102.704C89.1122 103.144 89.1522 103.604 89.1202 104.084H84.6442Z" fill="black"/>
<path d="M89.8188 102.476C89.8428 102.076 89.9428 101.744 90.1188 101.48C90.2948 101.216 90.5188 101.004 90.7908 100.844C91.0628 100.684 91.3668 100.572 91.7028 100.508C92.0468 100.436 92.3908 100.4 92.7348 100.4C93.0468 100.4 93.3628 100.424 93.6828 100.472C94.0028 100.512 94.2948 100.596 94.5588 100.724C94.8228 100.852 95.0388 101.032 95.2068 101.264C95.3748 101.488 95.4588 101.788 95.4588 102.164V105.392C95.4588 105.672 95.4748 105.94 95.5068 106.196C95.5388 106.452 95.5948 106.644 95.6748 106.772H93.9468C93.9148 106.676 93.8868 106.58 93.8628 106.484C93.8468 106.38 93.8348 106.276 93.8268 106.172C93.5548 106.452 93.2348 106.648 92.8668 106.76C92.4988 106.872 92.1228 106.928 91.7388 106.928C91.4428 106.928 91.1668 106.892 90.9108 106.82C90.6548 106.748 90.4308 106.636 90.2388 106.484C90.0468 106.332 89.8948 106.14 89.7828 105.908C89.6788 105.676 89.6268 105.4 89.6268 105.08C89.6268 104.728 89.6868 104.44 89.8068 104.216C89.9348 103.984 90.0948 103.8 90.2868 103.664C90.4868 103.528 90.7108 103.428 90.9588 103.364C91.2148 103.292 91.4708 103.236 91.7268 103.196C91.9828 103.156 92.2348 103.124 92.4828 103.1C92.7308 103.076 92.9508 103.04 93.1428 102.992C93.3348 102.944 93.4868 102.876 93.5988 102.788C93.7108 102.692 93.7628 102.556 93.7548 102.38C93.7548 102.196 93.7228 102.052 93.6588 101.948C93.6028 101.836 93.5228 101.752 93.4188 101.696C93.3228 101.632 93.2068 101.592 93.0708 101.576C92.9428 101.552 92.8028 101.54 92.6508 101.54C92.3148 101.54 92.0508 101.612 91.8588 101.756C91.6668 101.9 91.5548 102.14 91.5228 102.476H89.8188ZM93.7548 103.736C93.6828 103.8 93.5908 103.852 93.4788 103.892C93.3748 103.924 93.2588 103.952 93.1308 103.976C93.0108 104 92.8828 104.02 92.7468 104.036C92.6108 104.052 92.4748 104.072 92.3388 104.096C92.2108 104.12 92.0828 104.152 91.9548 104.192C91.8348 104.232 91.7268 104.288 91.6308 104.36C91.5428 104.424 91.4708 104.508 91.4148 104.612C91.3588 104.716 91.3308 104.848 91.3308 105.008C91.3308 105.16 91.3588 105.288 91.4148 105.392C91.4708 105.496 91.5468 105.58 91.6428 105.644C91.7388 105.7 91.8508 105.74 91.9788 105.764C92.1068 105.788 92.2388 105.8 92.3748 105.8C92.7108 105.8 92.9708 105.744 93.1548 105.632C93.3388 105.52 93.4748 105.388 93.5628 105.236C93.6508 105.076 93.7028 104.916 93.7188 104.756C93.7428 104.596 93.7548 104.468 93.7548 104.372V103.736Z" fill="black"/>
<path d="M100.765 102.752C100.653 102.04 100.233 101.684 99.5054 101.684C99.2334 101.684 99.0054 101.748 98.8214 101.876C98.6374 101.996 98.4854 102.156 98.3654 102.356C98.2534 102.548 98.1734 102.764 98.1254 103.004C98.0774 103.236 98.0534 103.468 98.0534 103.7C98.0534 103.924 98.0774 104.152 98.1254 104.384C98.1734 104.616 98.2494 104.828 98.3534 105.02C98.4654 105.204 98.6134 105.356 98.7974 105.476C98.9814 105.596 99.2054 105.656 99.4694 105.656C99.8774 105.656 100.189 105.544 100.405 105.32C100.629 105.088 100.769 104.78 100.825 104.396H102.469C102.357 105.22 102.037 105.848 101.509 106.28C100.981 106.712 100.305 106.928 99.4814 106.928C99.0174 106.928 98.5894 106.852 98.1974 106.7C97.8134 106.54 97.4854 106.32 97.2134 106.04C96.9414 105.76 96.7294 105.428 96.5774 105.044C96.4254 104.652 96.3494 104.224 96.3494 103.76C96.3494 103.28 96.4174 102.836 96.5534 102.428C96.6974 102.012 96.9054 101.656 97.1774 101.36C97.4494 101.056 97.7814 100.82 98.1734 100.652C98.5654 100.484 99.0134 100.4 99.5174 100.4C99.8854 100.4 100.237 100.448 100.573 100.544C100.917 100.64 101.221 100.788 101.485 100.988C101.757 101.18 101.977 101.424 102.145 101.72C102.313 102.008 102.409 102.352 102.433 102.752H100.765Z" fill="black"/>
<path d="M105.352 100.568H106.6V101.708H105.352V104.78C105.352 105.068 105.4 105.26 105.496 105.356C105.592 105.452 105.784 105.5 106.072 105.5C106.168 105.5 106.26 105.496 106.348 105.488C106.436 105.48 106.52 105.468 106.6 105.452V106.772C106.456 106.796 106.296 106.812 106.12 106.82C105.944 106.828 105.772 106.832 105.604 106.832C105.34 106.832 105.088 106.812 104.848 106.772C104.616 106.74 104.408 106.672 104.224 106.568C104.048 106.464 103.908 106.316 103.804 106.124C103.7 105.932 103.648 105.68 103.648 105.368V101.708H102.616V100.568H103.648V98.708H105.352V100.568Z" fill="black"/>
<path d="M112.367 104.072C112.367 104.352 112.339 104.66 112.283 104.996C112.227 105.332 112.099 105.648 111.899 105.944C111.699 106.232 111.411 106.476 111.035 106.676C110.659 106.868 110.151 106.964 109.511 106.964C109.151 106.964 108.803 106.912 108.467 106.808C108.131 106.712 107.831 106.56 107.567 106.352C107.303 106.136 107.091 105.864 106.931 105.536C106.771 105.2 106.691 104.796 106.691 104.324V103.58H108.395V103.964C108.395 104.172 108.411 104.364 108.443 104.54C108.475 104.716 108.531 104.868 108.611 104.996C108.691 105.116 108.799 105.212 108.935 105.284C109.079 105.356 109.263 105.392 109.487 105.392C109.735 105.392 109.927 105.348 110.063 105.26C110.199 105.172 110.295 105.06 110.351 104.924C110.415 104.78 110.451 104.628 110.459 104.468C110.475 104.3 110.483 104.14 110.483 103.988V98.204H112.367V104.072Z" fill="black"/>
<path d="M115.063 103.928C115.063 104.216 115.115 104.46 115.219 104.66C115.323 104.86 115.459 105.024 115.627 105.152C115.803 105.272 116.007 105.364 116.239 105.428C116.471 105.484 116.711 105.512 116.959 105.512C117.127 105.512 117.307 105.5 117.499 105.476C117.691 105.444 117.871 105.388 118.039 105.308C118.207 105.228 118.347 105.12 118.459 104.984C118.571 104.84 118.627 104.66 118.627 104.444C118.627 104.212 118.551 104.024 118.399 103.88C118.255 103.736 118.063 103.616 117.823 103.52C117.583 103.424 117.311 103.34 117.007 103.268C116.703 103.196 116.395 103.116 116.083 103.028C115.763 102.948 115.451 102.852 115.147 102.74C114.843 102.62 114.571 102.468 114.331 102.284C114.091 102.1 113.895 101.872 113.743 101.6C113.599 101.32 113.527 100.984 113.527 100.592C113.527 100.152 113.619 99.772 113.803 99.452C113.995 99.124 114.243 98.852 114.547 98.636C114.851 98.42 115.195 98.26 115.579 98.156C115.963 98.052 116.347 98 116.731 98C117.179 98 117.607 98.052 118.015 98.156C118.431 98.252 118.799 98.412 119.119 98.636C119.439 98.86 119.691 99.148 119.875 99.5C120.067 99.844 120.163 100.264 120.163 100.76H118.339C118.323 100.504 118.267 100.292 118.171 100.124C118.083 99.956 117.963 99.824 117.811 99.728C117.659 99.632 117.483 99.564 117.283 99.524C117.091 99.484 116.879 99.464 116.647 99.464C116.495 99.464 116.343 99.48 116.191 99.512C116.039 99.544 115.899 99.6 115.771 99.68C115.651 99.76 115.551 99.86 115.471 99.98C115.391 100.1 115.351 100.252 115.351 100.436C115.351 100.604 115.383 100.74 115.447 100.844C115.511 100.948 115.635 101.044 115.819 101.132C116.011 101.22 116.271 101.308 116.599 101.396C116.935 101.484 117.371 101.596 117.907 101.732C118.067 101.764 118.287 101.824 118.567 101.912C118.855 101.992 119.139 102.124 119.419 102.308C119.699 102.492 119.939 102.74 120.139 103.052C120.347 103.356 120.451 103.748 120.451 104.228C120.451 104.62 120.375 104.984 120.223 105.32C120.071 105.656 119.843 105.948 119.539 106.196C119.243 106.436 118.871 106.624 118.423 106.76C117.983 106.896 117.471 106.964 116.887 106.964C116.415 106.964 115.955 106.904 115.507 106.784C115.067 106.672 114.675 106.492 114.331 106.244C113.995 105.996 113.727 105.68 113.527 105.296C113.327 104.912 113.231 104.456 113.239 103.928H115.063Z" fill="black"/>
<rect x="126" y="142" width="49.5304" height="16" rx="0.8" fill="#FDC500"/>
<path d="M133.291 147.902H134.739V148.674H134.771C134.964 148.353 135.214 148.12 135.522 147.977C135.829 147.827 136.144 147.752 136.466 147.752C136.873 147.752 137.206 147.809 137.463 147.924C137.728 148.031 137.935 148.185 138.085 148.385C138.235 148.578 138.339 148.817 138.396 149.103C138.461 149.382 138.493 149.693 138.493 150.037V153.448H136.97V150.316C136.97 149.858 136.898 149.518 136.755 149.297C136.612 149.068 136.358 148.953 135.994 148.953C135.579 148.953 135.279 149.078 135.093 149.329C134.907 149.572 134.814 149.976 134.814 150.541V153.448H133.291V147.902Z" fill="black"/>
<path d="M140.786 150.68C140.786 150.902 140.807 151.12 140.85 151.335C140.893 151.542 140.965 151.731 141.065 151.903C141.172 152.067 141.311 152.2 141.483 152.3C141.655 152.4 141.869 152.45 142.127 152.45C142.384 152.45 142.599 152.4 142.77 152.3C142.949 152.2 143.088 152.067 143.189 151.903C143.296 151.731 143.371 151.542 143.414 151.335C143.457 151.12 143.478 150.902 143.478 150.68C143.478 150.459 143.457 150.24 143.414 150.026C143.371 149.811 143.296 149.622 143.189 149.457C143.088 149.293 142.949 149.161 142.77 149.061C142.599 148.953 142.384 148.9 142.127 148.9C141.869 148.9 141.655 148.953 141.483 149.061C141.311 149.161 141.172 149.293 141.065 149.457C140.965 149.622 140.893 149.811 140.85 150.026C140.807 150.24 140.786 150.459 140.786 150.68ZM139.263 150.68C139.263 150.237 139.331 149.836 139.467 149.479C139.602 149.114 139.795 148.807 140.046 148.556C140.296 148.299 140.596 148.102 140.947 147.966C141.297 147.823 141.69 147.752 142.127 147.752C142.563 147.752 142.956 147.823 143.307 147.966C143.664 148.102 143.968 148.299 144.218 148.556C144.469 148.807 144.662 149.114 144.797 149.479C144.933 149.836 145.001 150.237 145.001 150.68C145.001 151.124 144.933 151.524 144.797 151.882C144.662 152.239 144.469 152.547 144.218 152.804C143.968 153.054 143.664 153.247 143.307 153.383C142.956 153.519 142.563 153.587 142.127 153.587C141.69 153.587 141.297 153.519 140.947 153.383C140.596 153.247 140.296 153.054 140.046 152.804C139.795 152.547 139.602 152.239 139.467 151.882C139.331 151.524 139.263 151.124 139.263 150.68Z" fill="black"/>
<path d="M149.714 150.659C149.714 150.43 149.692 150.212 149.649 150.004C149.606 149.79 149.531 149.604 149.424 149.447C149.324 149.282 149.192 149.15 149.027 149.05C148.863 148.95 148.655 148.9 148.405 148.9C148.155 148.9 147.944 148.95 147.772 149.05C147.601 149.15 147.461 149.282 147.354 149.447C147.254 149.611 147.179 149.801 147.129 150.015C147.086 150.223 147.064 150.441 147.064 150.67C147.064 150.884 147.089 151.099 147.139 151.313C147.189 151.528 147.268 151.721 147.375 151.892C147.49 152.057 147.629 152.193 147.794 152.3C147.965 152.4 148.169 152.45 148.405 152.45C148.655 152.45 148.863 152.4 149.027 152.3C149.199 152.2 149.335 152.067 149.435 151.903C149.535 151.731 149.606 151.538 149.649 151.324C149.692 151.109 149.714 150.888 149.714 150.659ZM149.735 152.74H149.714C149.535 153.04 149.299 153.258 149.006 153.394C148.72 153.523 148.394 153.587 148.03 153.587C147.615 153.587 147.25 153.508 146.936 153.351C146.621 153.187 146.36 152.969 146.153 152.697C145.952 152.418 145.799 152.1 145.691 151.742C145.591 151.385 145.541 151.013 145.541 150.627C145.541 150.255 145.591 149.897 145.691 149.554C145.799 149.204 145.952 148.896 146.153 148.632C146.36 148.367 146.617 148.156 146.925 147.999C147.232 147.834 147.59 147.752 147.997 147.752C148.326 147.752 148.637 147.823 148.931 147.966C149.231 148.102 149.467 148.306 149.639 148.578H149.66V145.789H151.183V153.448H149.735V152.74Z" fill="black"/>
<path d="M155.853 150.08C155.781 149.693 155.652 149.4 155.466 149.2C155.288 149 155.012 148.9 154.641 148.9C154.397 148.9 154.194 148.943 154.029 149.028C153.872 149.107 153.743 149.207 153.643 149.329C153.55 149.45 153.482 149.579 153.439 149.715C153.403 149.851 153.382 149.972 153.375 150.08H155.853ZM153.375 151.045C153.396 151.538 153.521 151.896 153.75 152.118C153.979 152.339 154.308 152.45 154.737 152.45C155.045 152.45 155.309 152.375 155.531 152.225C155.752 152.067 155.888 151.903 155.938 151.731H157.279C157.065 152.396 156.736 152.872 156.292 153.158C155.849 153.444 155.313 153.587 154.683 153.587C154.247 153.587 153.854 153.519 153.504 153.383C153.153 153.24 152.856 153.04 152.613 152.783C152.37 152.525 152.181 152.218 152.045 151.86C151.916 151.503 151.852 151.109 151.852 150.68C151.852 150.265 151.92 149.879 152.055 149.522C152.191 149.164 152.384 148.857 152.635 148.599C152.885 148.335 153.182 148.127 153.525 147.977C153.875 147.827 154.262 147.752 154.683 147.752C155.155 147.752 155.567 147.845 155.917 148.031C156.267 148.21 156.553 148.453 156.775 148.76C157.004 149.068 157.168 149.418 157.268 149.811C157.369 150.205 157.404 150.616 157.376 151.045H153.375Z" fill="black"/>
<path d="M158.129 151.796H159.813V153.448H158.129V151.796Z" fill="black"/>
<path d="M162.498 147.044H160.975V145.789H162.498V147.044ZM160.063 154.091C160.142 154.12 160.249 154.134 160.385 154.134C160.542 154.134 160.678 154.102 160.792 154.038C160.914 153.98 160.975 153.848 160.975 153.641V147.902H162.498V153.716C162.498 154.002 162.466 154.249 162.401 154.456C162.344 154.663 162.24 154.835 162.09 154.971C161.947 155.114 161.751 155.217 161.5 155.282C161.25 155.353 160.932 155.389 160.546 155.389C160.367 155.389 160.206 155.375 160.063 155.346V154.091Z" fill="black"/>
<path d="M164.786 151.646C164.786 151.81 164.818 151.953 164.883 152.075C164.954 152.189 165.043 152.286 165.151 152.364C165.258 152.436 165.38 152.489 165.515 152.525C165.658 152.561 165.805 152.579 165.955 152.579C166.062 152.579 166.173 152.568 166.288 152.547C166.409 152.518 166.517 152.479 166.61 152.429C166.71 152.371 166.792 152.3 166.856 152.214C166.921 152.121 166.953 152.007 166.953 151.871C166.953 151.642 166.799 151.47 166.492 151.356C166.191 151.242 165.769 151.127 165.226 151.013C165.004 150.963 164.786 150.905 164.572 150.841C164.364 150.77 164.178 150.68 164.014 150.573C163.849 150.459 163.717 150.319 163.617 150.155C163.517 149.983 163.467 149.776 163.467 149.533C163.467 149.175 163.535 148.882 163.671 148.653C163.814 148.424 163.999 148.245 164.228 148.117C164.457 147.981 164.715 147.888 165.001 147.838C165.287 147.781 165.58 147.752 165.88 147.752C166.18 147.752 166.47 147.781 166.749 147.838C167.035 147.895 167.289 147.992 167.511 148.127C167.732 148.263 167.915 148.446 168.058 148.674C168.208 148.896 168.297 149.179 168.326 149.522H166.878C166.856 149.229 166.745 149.032 166.545 148.932C166.345 148.825 166.109 148.771 165.837 148.771C165.751 148.771 165.658 148.778 165.558 148.792C165.458 148.8 165.365 148.821 165.279 148.857C165.201 148.893 165.133 148.946 165.076 149.018C165.018 149.082 164.99 149.171 164.99 149.286C164.99 149.422 165.04 149.533 165.14 149.618C165.24 149.704 165.369 149.776 165.526 149.833C165.691 149.883 165.877 149.929 166.084 149.972C166.291 150.015 166.502 150.062 166.717 150.112C166.938 150.162 167.153 150.223 167.36 150.294C167.575 150.366 167.764 150.462 167.929 150.584C168.093 150.698 168.226 150.845 168.326 151.023C168.426 151.195 168.476 151.41 168.476 151.667C168.476 152.032 168.401 152.339 168.251 152.59C168.108 152.833 167.918 153.029 167.682 153.179C167.446 153.33 167.174 153.433 166.867 153.491C166.567 153.555 166.259 153.587 165.944 153.587C165.623 153.587 165.308 153.555 165.001 153.491C164.693 153.426 164.418 153.319 164.175 153.169C163.939 153.019 163.742 152.822 163.585 152.579C163.435 152.329 163.352 152.017 163.338 151.646H164.786Z" fill="black"/>
</g>
<defs>
<clipPath id="clip0_9349_80779">
<rect width="398" height="180" rx="8" fill="white"/>
</clipPath>
</defs>
</svg>
